<svg width="3020" height="512" viewBox="0 0 3020 512" fill="none" xmlns="http://www.w3.org/2000/svg">
<path d="M663.335 400.364C643.153 400.364 625.744 395.909 611.108 387C596.562 378 585.335 365.455 577.426 349.364C569.608 333.182 565.699 314.364 565.699 292.909C565.699 271.455 569.608 252.545 577.426 236.182C585.335 219.727 596.335 206.909 610.426 197.727C624.608 188.455 641.153 183.818 660.062 183.818C670.972 183.818 681.744 185.636 692.381 189.273C703.017 192.909 712.699 198.818 721.426 207C730.153 215.091 737.108 225.818 742.29 239.182C747.472 252.545 750.062 269 750.062 288.545V302.182H588.608V274.364H717.335C717.335 262.545 714.972 252 710.244 242.727C705.608 233.455 698.972 226.136 690.335 220.773C681.79 215.409 671.699 212.727 660.062 212.727C647.244 212.727 636.153 215.909 626.79 222.273C617.517 228.545 610.381 236.727 605.381 246.818C600.381 256.909 597.881 267.727 597.881 279.273V297.818C597.881 313.636 600.608 327.045 606.062 338.045C611.608 348.955 619.29 357.273 629.108 363C638.926 368.636 650.335 371.455 663.335 371.455C671.79 371.455 679.426 370.273 686.244 367.909C693.153 365.455 699.108 361.818 704.108 357C709.108 352.091 712.972 346 715.699 338.727L746.79 347.455C743.517 358 738.017 367.273 730.29 375.273C722.563 383.182 713.017 389.364 701.653 393.818C690.29 398.182 677.517 400.364 663.335 400.364ZM831.199 270V396H799.017V186.545H830.108V219.273H832.835C837.744 208.636 845.199 200.091 855.199 193.636C865.199 187.091 878.108 183.818 893.926 183.818C908.108 183.818 920.517 186.727 931.153 192.545C941.79 198.273 950.063 207 955.972 218.727C961.881 230.364 964.835 245.091 964.835 262.909V396H932.653V265.091C932.653 248.636 928.381 235.818 919.835 226.636C911.29 217.364 899.563 212.727 884.653 212.727C874.381 212.727 865.199 214.955 857.108 219.409C849.108 223.864 842.79 230.364 838.153 238.909C833.517 247.455 831.199 257.818 831.199 270ZM1116.91 186.545V213.818H1004.01V186.545H1116.91ZM1037.82 396V157.636C1037.82 145.636 1040.64 135.636 1046.28 127.636C1051.91 119.636 1059.23 113.636 1068.23 109.636C1077.23 105.636 1086.73 103.636 1096.73 103.636C1104.64 103.636 1111.1 104.273 1116.1 105.545C1121.1 106.818 1124.82 108 1127.28 109.091L1118.01 136.909C1116.37 136.364 1114.1 135.682 1111.19 134.864C1108.37 134.045 1104.64 133.636 1100.01 133.636C1089.37 133.636 1081.69 136.318 1076.96 141.682C1072.32 147.045 1070.01 154.909 1070.01 165.273V396H1037.82ZM1241.21 400.364C1221.03 400.364 1203.62 395.909 1188.98 387C1174.44 378 1163.21 365.455 1155.3 349.364C1147.48 333.182 1143.57 314.364 1143.57 292.909C1143.57 271.455 1147.48 252.545 1155.3 236.182C1163.21 219.727 1174.21 206.909 1188.3 197.727C1202.48 188.455 1219.03 183.818 1237.94 183.818C1248.85 183.818 1259.62 185.636 1270.26 189.273C1280.89 192.909 1290.57 198.818 1299.3 207C1308.03 215.091 1314.98 225.818 1320.16 239.182C1325.35 252.545 1327.94 269 1327.94 288.545V302.182H1166.48V274.364H1295.21C1295.21 262.545 1292.85 252 1288.12 242.727C1283.48 233.455 1276.85 226.136 1268.21 220.773C1259.66 215.409 1249.57 212.727 1237.94 212.727C1225.12 212.727 1214.03 215.909 1204.66 222.273C1195.39 228.545 1188.26 236.727 1183.26 246.818C1178.26 256.909 1175.76 267.727 1175.76 279.273V297.818C1175.76 313.636 1178.48 327.045 1183.94 338.045C1189.48 348.955 1197.16 357.273 1206.98 363C1216.8 368.636 1228.21 371.455 1241.21 371.455C1249.66 371.455 1257.3 370.273 1264.12 367.909C1271.03 365.455 1276.98 361.818 1281.98 357C1286.98 352.091 1290.85 346 1293.57 338.727L1324.66 347.455C1321.39 358 1315.89 367.273 1308.16 375.273C1300.44 383.182 1290.89 389.364 1279.53 393.818C1268.16 398.182 1255.39 400.364 1241.21 400.364ZM1376.89 396V186.545H1407.98V218.182H1410.16C1413.98 207.818 1420.89 199.409 1430.89 192.955C1440.89 186.5 1452.16 183.273 1464.71 183.273C1467.07 183.273 1470.03 183.318 1473.57 183.409C1477.12 183.5 1479.8 183.636 1481.62 183.818V216.545C1480.53 216.273 1478.03 215.864 1474.12 215.318C1470.3 214.682 1466.26 214.364 1461.98 214.364C1451.8 214.364 1442.71 216.5 1434.71 220.773C1426.8 224.955 1420.53 230.773 1415.89 238.227C1411.35 245.591 1409.07 254 1409.07 263.455V396H1376.89ZM1519.77 396V186.545H1550.86V219.273H1553.59C1557.95 208.091 1564.99 199.409 1574.72 193.227C1584.45 186.955 1596.13 183.818 1609.77 183.818C1623.59 183.818 1635.09 186.955 1644.27 193.227C1653.54 199.409 1660.77 208.091 1665.95 219.273H1668.13C1673.49 208.455 1681.54 199.864 1692.27 193.5C1702.99 187.045 1715.86 183.818 1730.86 183.818C1749.59 183.818 1764.9 189.682 1776.81 201.409C1788.72 213.045 1794.68 231.182 1794.68 255.818V396H1762.49V255.818C1762.49 240.364 1758.27 229.318 1749.81 222.682C1741.36 216.045 1731.4 212.727 1719.95 212.727C1705.22 212.727 1693.81 217.182 1685.72 226.091C1677.63 234.909 1673.59 246.091 1673.59 259.636V396H1640.86V252.545C1640.86 240.636 1636.99 231.045 1629.27 223.773C1621.54 216.409 1611.59 212.727 1599.4 212.727C1591.04 212.727 1583.22 214.955 1575.95 219.409C1568.77 223.864 1562.95 230.045 1558.49 237.955C1554.13 245.773 1551.95 254.818 1551.95 265.091V396H1519.77ZM1941.34 400.364C1921.15 400.364 1903.74 395.909 1889.11 387C1874.56 378 1863.34 365.455 1855.43 349.364C1847.61 333.182 1843.7 314.364 1843.7 292.909C1843.7 271.455 1847.61 252.545 1855.43 236.182C1863.34 219.727 1874.34 206.909 1888.43 197.727C1902.61 188.455 1919.15 183.818 1938.06 183.818C1948.97 183.818 1959.74 185.636 1970.38 189.273C1981.02 192.909 1990.7 198.818 1999.43 207C2008.15 215.091 2015.11 225.818 2020.29 239.182C2025.47 252.545 2028.06 269 2028.06 288.545V302.182H1866.61V274.364H1995.34C1995.34 262.545 1992.97 252 1988.24 242.727C1983.61 233.455 1976.97 226.136 1968.34 220.773C1959.79 215.409 1949.7 212.727 1938.06 212.727C1925.24 212.727 1914.15 215.909 1904.79 222.273C1895.52 228.545 1888.38 236.727 1883.38 246.818C1878.38 256.909 1875.88 267.727 1875.88 279.273V297.818C1875.88 313.636 1878.61 327.045 1884.06 338.045C1889.61 348.955 1897.29 357.273 1907.11 363C1916.93 368.636 1928.34 371.455 1941.34 371.455C1949.79 371.455 1957.43 370.273 1964.24 367.909C1971.15 365.455 1977.11 361.818 1982.11 357C1987.11 352.091 1990.97 346 1993.7 338.727L2024.79 347.455C2021.52 358 2016.02 367.273 2008.29 375.273C2000.56 383.182 1991.02 389.364 1979.65 393.818C1968.29 398.182 1955.52 400.364 1941.34 400.364ZM2077.02 396V186.545H2108.11V218.182H2110.29C2114.11 207.818 2121.02 199.409 2131.02 192.955C2141.02 186.5 2152.29 183.273 2164.84 183.273C2167.2 183.273 2170.15 183.318 2173.7 183.409C2177.24 183.5 2179.93 183.636 2181.74 183.818V216.545C2180.65 216.273 2178.15 215.864 2174.24 215.318C2170.43 214.682 2166.38 214.364 2162.11 214.364C2151.93 214.364 2142.84 216.5 2134.84 220.773C2126.93 224.955 2120.65 230.773 2116.02 238.227C2111.47 245.591 2109.2 254 2109.2 263.455V396H2077.02ZM2219.89 396V186.545H2252.07V396H2219.89ZM2236.26 151.636C2229.98 151.636 2224.57 149.5 2220.03 145.227C2215.57 140.955 2213.35 135.818 2213.35 129.818C2213.35 123.818 2215.57 118.682 2220.03 114.409C2224.57 110.136 2229.98 108 2236.26 108C2242.53 108 2247.89 110.136 2252.35 114.409C2256.89 118.682 2259.16 123.818 2259.16 129.818C2259.16 135.818 2256.89 140.955 2252.35 145.227C2247.89 149.5 2242.53 151.636 2236.26 151.636ZM2372.65 400.909C2359.38 400.909 2347.34 398.409 2336.52 393.409C2325.7 388.318 2317.11 381 2310.74 371.455C2304.38 361.818 2301.2 350.182 2301.2 336.545C2301.2 324.545 2303.56 314.818 2308.29 307.364C2313.02 299.818 2319.34 293.909 2327.24 289.636C2335.15 285.364 2343.88 282.182 2353.43 280.091C2363.06 277.909 2372.74 276.182 2382.47 274.909C2395.2 273.273 2405.52 272.045 2413.43 271.227C2421.43 270.318 2427.24 268.818 2430.88 266.727C2434.61 264.636 2436.47 261 2436.47 255.818V254.727C2436.47 241.273 2432.79 230.818 2425.43 223.364C2418.15 215.909 2407.11 212.182 2392.29 212.182C2376.93 212.182 2364.88 215.545 2356.15 222.273C2347.43 229 2341.29 236.182 2337.74 243.818L2307.2 232.909C2312.65 220.182 2319.93 210.273 2329.02 203.182C2338.2 196 2348.2 191 2359.02 188.182C2369.93 185.273 2380.65 183.818 2391.2 183.818C2397.93 183.818 2405.65 184.636 2414.38 186.273C2423.2 187.818 2431.7 191.045 2439.88 195.955C2448.15 200.864 2455.02 208.273 2460.47 218.182C2465.93 228.091 2468.65 241.364 2468.65 258V396H2436.47V367.636H2434.84C2432.65 372.182 2429.02 377.045 2423.93 382.227C2418.84 387.409 2412.06 391.818 2403.61 395.455C2395.15 399.091 2384.84 400.909 2372.65 400.909ZM2377.56 372C2390.29 372 2401.02 369.5 2409.74 364.5C2418.56 359.5 2425.2 353.045 2429.65 345.136C2434.2 337.227 2436.47 328.909 2436.47 320.182V290.727C2435.11 292.364 2432.11 293.864 2427.47 295.227C2422.93 296.5 2417.65 297.636 2411.65 298.636C2405.74 299.545 2399.97 300.364 2394.34 301.091C2388.79 301.727 2384.29 302.273 2380.84 302.727C2372.47 303.818 2364.65 305.591 2357.38 308.045C2350.2 310.409 2344.38 314 2339.93 318.818C2335.56 323.545 2333.38 330 2333.38 338.182C2333.38 349.364 2337.52 357.818 2345.79 363.545C2354.15 369.182 2364.74 372 2377.56 372ZM2550.85 398.182C2544.12 398.182 2538.35 395.773 2533.53 390.955C2528.71 386.136 2526.3 380.364 2526.3 373.636C2526.3 366.909 2528.71 361.136 2533.53 356.318C2538.35 351.5 2544.12 349.091 2550.85 349.091C2557.57 349.091 2563.35 351.5 2568.16 356.318C2572.98 361.136 2575.39 366.909 2575.39 373.636C2575.39 378.091 2574.26 382.182 2571.98 385.909C2569.8 389.636 2566.85 392.636 2563.12 394.909C2559.48 397.091 2555.39 398.182 2550.85 398.182ZM2633.14 396V186.545H2665.32V396H2633.14ZM2649.51 151.636C2643.23 151.636 2637.82 149.5 2633.28 145.227C2628.82 140.955 2626.6 135.818 2626.6 129.818C2626.6 123.818 2628.82 118.682 2633.28 114.409C2637.82 110.136 2643.23 108 2649.51 108C2655.78 108 2661.14 110.136 2665.6 114.409C2670.14 118.682 2672.41 123.818 2672.41 129.818C2672.41 135.818 2670.14 140.955 2665.6 145.227C2661.14 149.5 2655.78 151.636 2649.51 151.636ZM2809.36 400.364C2790.45 400.364 2773.86 395.864 2759.59 386.864C2745.4 377.864 2734.31 365.273 2726.31 349.091C2718.4 332.909 2714.45 314 2714.45 292.364C2714.45 270.545 2718.4 251.5 2726.31 235.227C2734.31 218.955 2745.4 206.318 2759.59 197.318C2773.86 188.318 2790.45 183.818 2809.36 183.818C2828.27 183.818 2844.81 188.318 2858.99 197.318C2873.27 206.318 2884.36 218.955 2892.27 235.227C2900.27 251.5 2904.27 270.545 2904.27 292.364C2904.27 314 2900.27 332.909 2892.27 349.091C2884.36 365.273 2873.27 377.864 2858.99 386.864C2844.81 395.864 2828.27 400.364 2809.36 400.364ZM2809.36 371.455C2823.72 371.455 2835.54 367.773 2844.81 360.409C2854.09 353.045 2860.95 343.364 2865.4 331.364C2869.86 319.364 2872.09 306.364 2872.09 292.364C2872.09 278.364 2869.86 265.318 2865.4 253.227C2860.95 241.136 2854.09 231.364 2844.81 223.909C2835.54 216.455 2823.72 212.727 2809.36 212.727C2794.99 212.727 2783.18 216.455 2773.9 223.909C2764.63 231.364 2757.77 241.136 2753.31 253.227C2748.86 265.318 2746.63 278.364 2746.63 292.364C2746.63 306.364 2748.86 319.364 2753.31 331.364C2757.77 343.364 2764.63 353.045 2773.9 360.409C2783.18 367.773 2794.99 371.455 2809.36 371.455Z" fill="#060F74"/>
<path d="M611.108 387L610.582 387.85L610.588 387.854L611.108 387ZM577.426 349.364L576.526 349.799L576.529 349.805L577.426 349.364ZM577.426 236.182L576.525 235.749L576.524 235.751L577.426 236.182ZM610.426 197.727L610.972 198.565L610.973 198.564L610.426 197.727ZM692.381 189.273L692.704 188.326L692.704 188.326L692.381 189.273ZM721.426 207L720.742 207.73L720.746 207.733L721.426 207ZM742.29 239.182L743.222 238.82L743.222 238.82L742.29 239.182ZM750.062 302.182V303.182H751.062V302.182H750.062ZM588.608 302.182H587.608V303.182H588.608V302.182ZM588.608 274.364V273.364H587.608V274.364H588.608ZM717.335 274.364V275.364H718.335V274.364H717.335ZM710.244 242.727L709.35 243.174L709.353 243.181L710.244 242.727ZM690.335 220.773L689.804 221.62L689.808 221.622L690.335 220.773ZM626.79 222.273L627.35 223.101L627.352 223.1L626.79 222.273ZM605.381 246.818L604.485 246.374L604.485 246.374L605.381 246.818ZM606.062 338.045L605.167 338.49L605.171 338.499L606.062 338.045ZM629.108 363L628.604 363.864L628.61 363.867L629.108 363ZM686.244 367.909L686.572 368.854L686.579 368.851L686.244 367.909ZM704.108 357L704.802 357.72L704.809 357.714L704.108 357ZM715.699 338.727L715.969 337.764L715.085 337.516L714.763 338.376L715.699 338.727ZM746.79 347.455L747.745 347.751L748.049 346.769L747.06 346.492L746.79 347.455ZM730.29 375.273L731.005 375.972L731.009 375.967L730.29 375.273ZM701.653 393.818L702.012 394.752L702.018 394.749L701.653 393.818ZM663.335 399.364C643.304 399.364 626.082 394.944 611.628 386.146L610.588 387.854C625.407 396.874 643.003 401.364 663.335 401.364V399.364ZM611.634 386.15C597.256 377.253 586.154 364.853 578.324 348.923L576.529 349.805C584.516 366.056 595.869 378.747 610.582 387.85L611.634 386.15ZM578.327 348.929C570.585 332.906 566.699 314.242 566.699 292.909H564.699C564.699 314.485 568.63 333.457 576.526 349.799L578.327 348.929ZM566.699 292.909C566.699 271.577 570.585 252.819 578.328 236.613L576.524 235.751C568.631 252.271 564.699 271.332 564.699 292.909H566.699ZM578.327 236.615C586.164 220.311 597.047 207.639 610.972 198.565L609.88 196.889C595.623 206.18 584.506 219.144 576.525 235.749L578.327 236.615ZM610.973 198.564C624.974 189.41 641.324 184.818 660.062 184.818V182.818C640.982 182.818 624.242 187.499 609.879 196.89L610.973 198.564ZM660.062 184.818C670.858 184.818 681.522 186.617 692.057 190.219L692.704 188.326C681.967 184.656 671.085 182.818 660.062 182.818V184.818ZM692.057 190.219C702.551 193.807 712.112 199.638 720.742 207.73L722.11 206.27C713.286 197.998 703.483 192.012 692.704 188.326L692.057 190.219ZM720.746 207.733C729.342 215.702 736.219 226.293 741.357 239.543L743.222 238.82C737.997 225.344 730.965 214.48 722.106 206.267L720.746 207.733ZM741.357 239.543C746.482 252.758 749.062 269.082 749.062 288.545H751.062C751.062 268.918 748.462 252.333 743.222 238.82L741.357 239.543ZM749.062 288.545V302.182H751.062V288.545H749.062ZM750.062 301.182H588.608V303.182H750.062V301.182ZM589.608 302.182V274.364H587.608V302.182H589.608ZM588.608 275.364H717.335V273.364H588.608V275.364ZM718.335 274.364C718.335 262.409 715.943 251.704 711.135 242.273L709.353 243.181C714 252.295 716.335 262.682 716.335 274.364H718.335ZM711.139 242.28C706.421 232.845 699.66 225.386 690.863 219.923L689.808 221.622C698.284 226.886 704.795 234.064 709.35 243.174L711.139 242.28ZM690.867 219.926C682.139 214.448 671.857 211.727 660.062 211.727V213.727C671.54 213.727 681.441 216.371 689.804 221.62L690.867 219.926ZM660.062 211.727C647.071 211.727 635.778 214.955 626.228 221.446L627.352 223.1C636.528 216.863 647.417 213.727 660.062 213.727V211.727ZM626.229 221.444C616.813 227.815 609.561 236.129 604.485 246.374L606.277 247.262C611.2 237.325 618.222 229.276 627.35 223.101L626.229 221.444ZM604.485 246.374C599.415 256.607 596.881 267.577 596.881 279.273H598.881C598.881 267.877 601.347 257.212 606.277 247.262L604.485 246.374ZM596.881 279.273V297.818H598.881V279.273H596.881ZM596.881 297.818C596.881 313.748 599.627 327.318 605.167 338.49L606.958 337.601C601.589 326.773 598.881 313.525 598.881 297.818H596.881ZM605.171 338.499C610.797 349.565 618.607 358.032 628.604 363.864L629.612 362.136C619.972 356.513 612.419 348.344 606.954 337.592L605.171 338.499ZM628.61 363.867C638.601 369.603 650.187 372.455 663.335 372.455V370.455C650.484 370.455 639.251 367.67 629.606 362.133L628.61 363.867ZM663.335 372.455C671.883 372.455 679.632 371.26 686.572 368.854L685.917 366.964C679.22 369.286 671.697 370.455 663.335 370.455V372.455ZM686.579 368.851C693.615 366.352 699.694 362.643 704.802 357.72L703.414 356.28C698.522 360.994 692.692 364.557 685.91 366.967L686.579 368.851ZM704.809 357.714C709.923 352.692 713.862 346.473 716.635 339.078L714.763 338.376C712.081 345.527 708.292 351.49 703.407 356.286L704.809 357.714ZM715.429 339.69L746.52 348.417L747.06 346.492L715.969 337.764L715.429 339.69ZM745.835 347.158C742.609 357.553 737.19 366.69 729.571 374.578L731.009 375.967C738.844 367.856 744.425 358.447 747.745 347.751L745.835 347.158ZM729.574 374.574C721.956 382.372 712.534 388.479 701.288 392.887L702.018 394.749C713.5 390.248 723.169 383.992 731.005 375.972L729.574 374.574ZM701.295 392.885C690.063 397.198 677.414 399.364 663.335 399.364V401.364C677.62 401.364 690.517 399.166 702.012 394.752L701.295 392.885ZM831.199 396V397H832.199V396H831.199ZM799.017 396H798.017V397H799.017V396ZM799.017 186.545V185.545H798.017V186.545H799.017ZM830.108 186.545H831.108V185.545H830.108V186.545ZM830.108 219.273H829.108V220.273H830.108V219.273ZM832.835 219.273V220.273H833.475L833.743 219.692L832.835 219.273ZM855.199 193.636L855.741 194.477L855.747 194.473L855.199 193.636ZM931.153 192.545L930.674 193.423L930.679 193.426L931.153 192.545ZM955.972 218.727L955.079 219.177L955.08 219.18L955.972 218.727ZM964.835 396V397H965.835V396H964.835ZM932.653 396H931.653V397H932.653V396ZM919.835 226.636L919.1 227.314L919.103 227.318L919.835 226.636ZM857.108 219.409L856.626 218.533L856.621 218.535L857.108 219.409ZM838.153 238.909L837.274 238.432L837.274 238.432L838.153 238.909ZM830.199 270V396H832.199V270H830.199ZM831.199 395H799.017V397H831.199V395ZM800.017 396V186.545H798.017V396H800.017ZM799.017 187.545H830.108V185.545H799.017V187.545ZM829.108 186.545V219.273H831.108V186.545H829.108ZM830.108 220.273H832.835V218.273H830.108V220.273ZM833.743 219.692C838.571 209.231 845.898 200.83 855.741 194.477L854.657 192.796C844.5 199.352 836.917 208.042 831.927 218.854L833.743 219.692ZM855.747 194.473C865.539 188.064 878.241 184.818 893.926 184.818V182.818C877.975 182.818 864.859 186.118 854.651 192.8L855.747 194.473ZM893.926 184.818C907.969 184.818 920.207 187.698 930.674 193.423L931.633 191.668C920.827 185.757 908.247 182.818 893.926 182.818V184.818ZM930.679 193.426C941.119 199.048 949.253 207.616 955.079 219.177L956.865 218.277C950.872 206.384 942.46 197.498 931.628 191.665L930.679 193.426ZM955.08 219.18C960.897 230.634 963.835 245.194 963.835 262.909H965.835C965.835 244.988 962.865 230.093 956.863 218.274L955.08 219.18ZM963.835 262.909V396H965.835V262.909H963.835ZM964.835 395H932.653V397H964.835V395ZM933.653 396V265.091H931.653V396H933.653ZM933.653 265.091C933.653 248.465 929.333 235.374 920.567 225.955L919.103 227.318C927.428 236.263 931.653 248.808 931.653 265.091H933.653ZM920.571 225.959C911.801 216.443 899.786 211.727 884.653 211.727V213.727C899.339 213.727 910.778 218.284 919.1 227.314L920.571 225.959ZM884.653 211.727C874.231 211.727 864.88 213.988 856.626 218.533L857.59 220.285C865.517 215.921 874.53 213.727 884.653 213.727V211.727ZM856.621 218.535C848.445 223.088 841.995 229.731 837.274 238.432L839.032 239.386C843.584 230.997 849.771 224.639 857.594 220.283L856.621 218.535ZM837.274 238.432C832.541 247.157 830.199 257.693 830.199 270H832.199C832.199 257.943 834.493 247.753 839.032 239.386L837.274 238.432ZM1116.91 186.545H1117.91V185.545H1116.91V186.545ZM1116.91 213.818V214.818H1117.91V213.818H1116.91ZM1004.01 213.818H1003.01V214.818H1004.01V213.818ZM1004.01 186.545V185.545H1003.01V186.545H1004.01ZM1037.82 396H1036.82V397H1037.82V396ZM1046.28 127.636L1045.46 127.06L1045.46 127.06L1046.28 127.636ZM1068.23 109.636L1067.83 108.723L1067.83 108.723L1068.23 109.636ZM1116.1 105.545L1115.85 106.515L1115.85 106.515L1116.1 105.545ZM1127.28 109.091L1128.23 109.407L1128.51 108.546L1127.68 108.177L1127.28 109.091ZM1118.01 136.909L1117.69 137.858L1118.64 138.174L1118.95 137.225L1118.01 136.909ZM1111.19 134.864L1110.91 135.824L1110.92 135.826L1111.19 134.864ZM1076.96 141.682L1076.21 141.021L1076.2 141.028L1076.96 141.682ZM1070.01 396V397H1071.01V396H1070.01ZM1115.91 186.545V213.818H1117.91V186.545H1115.91ZM1116.91 212.818H1004.01V214.818H1116.91V212.818ZM1005.01 213.818V186.545H1003.01V213.818H1005.01ZM1004.01 187.545H1116.91V185.545H1004.01V187.545ZM1038.82 396V157.636H1036.82V396H1038.82ZM1038.82 157.636C1038.82 145.795 1041.6 136.009 1047.1 128.212L1045.46 127.06C1039.68 135.264 1036.82 145.477 1036.82 157.636H1038.82ZM1047.1 128.212C1052.63 120.361 1059.8 114.477 1068.64 110.55L1067.83 108.723C1058.66 112.795 1051.2 118.912 1045.46 127.06L1047.1 128.212ZM1068.64 110.55C1077.51 106.608 1086.87 104.636 1096.73 104.636V102.636C1086.6 102.636 1076.96 104.665 1067.83 108.723L1068.64 110.55ZM1096.73 104.636C1104.6 104.636 1110.96 105.27 1115.85 106.515L1116.34 104.576C1111.23 103.275 1104.69 102.636 1096.73 102.636V104.636ZM1115.85 106.515C1120.84 107.784 1124.5 108.949 1126.87 110.005L1127.68 108.177C1125.15 107.051 1121.36 105.853 1116.34 104.576L1115.85 106.515ZM1126.33 108.775L1117.06 136.593L1118.95 137.225L1128.23 109.407L1126.33 108.775ZM1118.32 135.96C1116.66 135.408 1114.37 134.721 1111.46 133.901L1110.92 135.826C1113.82 136.643 1116.08 137.32 1117.69 137.858L1118.32 135.96ZM1111.47 133.903C1108.52 133.048 1104.69 132.636 1100.01 132.636V134.636C1104.6 134.636 1108.22 135.043 1110.91 135.824L1111.47 133.903ZM1100.01 132.636C1089.22 132.636 1081.2 135.354 1076.21 141.021L1077.71 142.343C1082.17 137.282 1089.51 134.636 1100.01 134.636V132.636ZM1076.2 141.028C1071.35 146.641 1069.01 154.777 1069.01 165.273H1071.01C1071.01 155.041 1073.3 147.45 1077.72 142.336L1076.2 141.028ZM1069.01 165.273V396H1071.01V165.273H1069.01ZM1070.01 395H1037.82V397H1070.01V395ZM1188.98 387L1188.46 387.85L1188.46 387.854L1188.98 387ZM1155.3 349.364L1154.4 349.799L1154.4 349.805L1155.3 349.364ZM1155.3 236.182L1154.4 235.749L1154.4 235.751L1155.3 236.182ZM1188.3 197.727L1188.85 198.565L1188.85 198.564L1188.3 197.727ZM1270.26 189.273L1270.58 188.326L1270.58 188.326L1270.26 189.273ZM1299.3 207L1298.62 207.73L1298.62 207.733L1299.3 207ZM1320.16 239.182L1321.1 238.82L1321.1 238.82L1320.16 239.182ZM1327.94 302.182V303.182H1328.94V302.182H1327.94ZM1166.48 302.182H1165.48V303.182H1166.48V302.182ZM1166.48 274.364V273.364H1165.48V274.364H1166.48ZM1295.21 274.364V275.364H1296.21V274.364H1295.21ZM1288.12 242.727L1287.22 243.174L1287.23 243.181L1288.12 242.727ZM1268.21 220.773L1267.68 221.62L1267.68 221.622L1268.21 220.773ZM1204.66 222.273L1205.23 223.101L1205.23 223.1L1204.66 222.273ZM1183.26 246.818L1182.36 246.374L1182.36 246.374L1183.26 246.818ZM1183.94 338.045L1183.04 338.49L1183.05 338.499L1183.94 338.045ZM1206.98 363L1206.48 363.864L1206.49 363.867L1206.98 363ZM1264.12 367.909L1264.45 368.854L1264.45 368.851L1264.12 367.909ZM1281.98 357L1282.68 357.72L1282.68 357.714L1281.98 357ZM1293.57 338.727L1293.84 337.764L1292.96 337.516L1292.64 338.376L1293.57 338.727ZM1324.66 347.455L1325.62 347.751L1325.92 346.769L1324.94 346.492L1324.66 347.455ZM1308.16 375.273L1308.88 375.972L1308.88 375.967L1308.16 375.273ZM1279.53 393.818L1279.89 394.752L1279.89 394.749L1279.53 393.818ZM1241.21 399.364C1221.18 399.364 1203.96 394.944 1189.5 386.146L1188.46 387.854C1203.28 396.874 1220.88 401.364 1241.21 401.364V399.364ZM1189.51 386.15C1175.13 377.253 1164.03 364.853 1156.2 348.923L1154.4 349.805C1162.39 366.056 1173.74 378.747 1188.46 387.85L1189.51 386.15ZM1156.2 348.929C1148.46 332.906 1144.57 314.242 1144.57 292.909H1142.57C1142.57 314.485 1146.51 333.457 1154.4 349.799L1156.2 348.929ZM1144.57 292.909C1144.57 271.577 1148.46 252.819 1156.2 236.613L1154.4 235.751C1146.51 252.271 1142.57 271.332 1142.57 292.909H1144.57ZM1156.2 236.615C1164.04 220.311 1174.92 207.639 1188.85 198.565L1187.76 196.889C1173.5 206.18 1162.38 219.144 1154.4 235.749L1156.2 236.615ZM1188.85 198.564C1202.85 189.41 1219.2 184.818 1237.94 184.818V182.818C1218.86 182.818 1202.12 187.499 1187.75 196.89L1188.85 198.564ZM1237.94 184.818C1248.73 184.818 1259.4 186.617 1269.93 190.219L1270.58 188.326C1259.84 184.656 1248.96 182.818 1237.94 182.818V184.818ZM1269.93 190.219C1280.43 193.807 1289.99 199.638 1298.62 207.73L1299.99 206.27C1291.16 197.998 1281.36 192.012 1270.58 188.326L1269.93 190.219ZM1298.62 207.733C1307.22 215.702 1314.09 226.293 1319.23 239.543L1321.1 238.82C1315.87 225.344 1308.84 214.48 1299.98 206.267L1298.62 207.733ZM1319.23 239.543C1324.36 252.758 1326.94 269.082 1326.94 288.545H1328.94C1328.94 268.918 1326.34 252.333 1321.1 238.82L1319.23 239.543ZM1326.94 288.545V302.182H1328.94V288.545H1326.94ZM1327.94 301.182H1166.48V303.182H1327.94V301.182ZM1167.48 302.182V274.364H1165.48V302.182H1167.48ZM1166.48 275.364H1295.21V273.364H1166.48V275.364ZM1296.21 274.364C1296.21 262.409 1293.82 251.704 1289.01 242.273L1287.23 243.181C1291.87 252.295 1294.21 262.682 1294.21 274.364H1296.21ZM1289.01 242.28C1284.3 232.845 1277.53 225.386 1268.74 219.923L1267.68 221.622C1276.16 226.886 1282.67 234.064 1287.22 243.174L1289.01 242.28ZM1268.74 219.926C1260.01 214.448 1249.73 211.727 1237.94 211.727V213.727C1249.42 213.727 1259.32 216.371 1267.68 221.62L1268.74 219.926ZM1237.94 211.727C1224.95 211.727 1213.65 214.955 1204.1 221.446L1205.23 223.1C1214.4 216.863 1225.29 213.727 1237.94 213.727V211.727ZM1204.1 221.444C1194.69 227.815 1187.44 236.129 1182.36 246.374L1184.15 247.262C1189.08 237.325 1196.1 229.276 1205.23 223.101L1204.1 221.444ZM1182.36 246.374C1177.29 256.607 1174.76 267.577 1174.76 279.273H1176.76C1176.76 267.877 1179.22 257.212 1184.15 247.262L1182.36 246.374ZM1174.76 279.273V297.818H1176.76V279.273H1174.76ZM1174.76 297.818C1174.76 313.748 1177.5 327.318 1183.04 338.49L1184.83 337.601C1179.46 326.773 1176.76 313.525 1176.76 297.818H1174.76ZM1183.05 338.499C1188.67 349.565 1196.48 358.032 1206.48 363.864L1207.49 362.136C1197.85 356.513 1190.29 348.344 1184.83 337.592L1183.05 338.499ZM1206.49 363.867C1216.48 369.603 1228.06 372.455 1241.21 372.455V370.455C1228.36 370.455 1217.13 367.67 1207.48 362.133L1206.49 363.867ZM1241.21 372.455C1249.76 372.455 1257.51 371.26 1264.45 368.854L1263.79 366.964C1257.1 369.286 1249.57 370.455 1241.21 370.455V372.455ZM1264.45 368.851C1271.49 366.352 1277.57 362.643 1282.68 357.72L1281.29 356.28C1276.4 360.994 1270.57 364.557 1263.78 366.967L1264.45 368.851ZM1282.68 357.714C1287.8 352.692 1291.74 346.473 1294.51 339.078L1292.64 338.376C1289.96 345.527 1286.17 351.49 1281.28 356.286L1282.68 357.714ZM1293.3 339.69L1324.39 348.417L1324.94 346.492L1293.84 337.764L1293.3 339.69ZM1323.71 347.158C1320.48 357.553 1315.06 366.69 1307.45 374.578L1308.88 375.967C1316.72 367.856 1322.3 358.447 1325.62 347.751L1323.71 347.158ZM1307.45 374.574C1299.83 382.372 1290.41 388.479 1279.16 392.887L1279.89 394.749C1291.38 390.248 1301.04 383.992 1308.88 375.972L1307.45 374.574ZM1279.17 392.885C1267.94 397.198 1255.29 399.364 1241.21 399.364V401.364C1255.49 401.364 1268.39 399.166 1279.89 394.752L1279.17 392.885ZM1376.89 396H1375.89V397H1376.89V396ZM1376.89 186.545V185.545H1375.89V186.545H1376.89ZM1407.98 186.545H1408.98V185.545H1407.98V186.545ZM1407.98 218.182H1406.98V219.182H1407.98V218.182ZM1410.16 218.182V219.182H1410.86L1411.1 218.528L1410.16 218.182ZM1430.89 192.955L1430.35 192.114L1430.35 192.114L1430.89 192.955ZM1481.62 183.818H1482.62V182.913L1481.72 182.823L1481.62 183.818ZM1481.62 216.545L1481.38 217.516L1482.62 217.826V216.545H1481.62ZM1474.12 215.318L1473.95 216.305L1473.97 216.307L1473.98 216.309L1474.12 215.318ZM1434.71 220.773L1435.18 221.657L1435.18 221.655L1434.71 220.773ZM1415.89 238.227L1415.04 237.699L1415.04 237.702L1415.89 238.227ZM1409.07 396V397H1410.07V396H1409.07ZM1377.89 396V186.545H1375.89V396H1377.89ZM1376.89 187.545H1407.98V185.545H1376.89V187.545ZM1406.98 186.545V218.182H1408.98V186.545H1406.98ZM1407.98 219.182H1410.16V217.182H1407.98V219.182ZM1411.1 218.528C1414.84 208.383 1421.6 200.141 1431.43 193.795L1430.35 192.114C1420.18 198.677 1413.13 207.253 1409.23 217.836L1411.1 218.528ZM1431.43 193.795C1441.26 187.45 1452.35 184.273 1464.71 184.273V182.273C1451.98 182.273 1440.52 185.55 1430.35 192.114L1431.43 193.795ZM1464.71 184.273C1467.06 184.273 1470.01 184.318 1473.55 184.409L1473.6 182.409C1470.05 182.318 1467.09 182.273 1464.71 182.273V184.273ZM1473.55 184.409C1477.09 184.5 1479.74 184.635 1481.52 184.813L1481.72 182.823C1479.86 182.638 1477.15 182.5 1473.6 182.409L1473.55 184.409ZM1480.62 183.818V216.545H1482.62V183.818H1480.62ZM1481.86 215.575C1480.71 215.287 1478.15 214.871 1474.26 214.328L1473.98 216.309C1477.91 216.856 1480.35 217.258 1481.38 217.516L1481.86 215.575ZM1474.28 214.332C1470.41 213.685 1466.31 213.364 1461.98 213.364V215.364C1466.21 215.364 1470.2 215.678 1473.95 216.305L1474.28 214.332ZM1461.98 213.364C1451.66 213.364 1442.4 215.531 1434.24 219.891L1435.18 221.655C1443.02 217.469 1451.95 215.364 1461.98 215.364V213.364ZM1434.24 219.889C1426.18 224.152 1419.77 230.091 1415.04 237.699L1416.74 238.755C1421.28 231.454 1427.42 225.757 1435.18 221.657L1434.24 219.889ZM1415.04 237.702C1410.39 245.238 1408.07 253.832 1408.07 263.455H1410.07C1410.07 254.168 1412.3 245.944 1416.74 238.753L1415.04 237.702ZM1408.07 263.455V396H1410.07V263.455H1408.07ZM1409.07 395H1376.89V397H1409.07V395ZM1519.77 396H1518.77V397H1519.77V396ZM1519.77 186.545V185.545H1518.77V186.545H1519.77ZM1550.86 186.545H1551.86V185.545H1550.86V186.545ZM1550.86 219.273H1549.86V220.273H1550.86V219.273ZM1553.59 219.273V220.273H1554.27L1554.52 219.636L1553.59 219.273ZM1574.72 193.227L1575.26 194.071L1575.26 194.068L1574.72 193.227ZM1644.27 193.227L1643.7 194.053L1643.71 194.059L1644.27 193.227ZM1665.95 219.273L1665.04 219.693L1665.31 220.273H1665.95V219.273ZM1668.13 219.273V220.273H1668.75L1669.03 219.717L1668.13 219.273ZM1692.27 193.5L1692.78 194.36L1692.78 194.357L1692.27 193.5ZM1776.81 201.409L1776.11 202.122L1776.11 202.124L1776.81 201.409ZM1794.68 396V397H1795.68V396H1794.68ZM1762.49 396H1761.49V397H1762.49V396ZM1749.81 222.682L1749.2 223.468L1749.2 223.468L1749.81 222.682ZM1685.72 226.091L1686.46 226.767L1686.46 226.763L1685.72 226.091ZM1673.59 396V397H1674.59V396H1673.59ZM1640.86 396H1639.86V397H1640.86V396ZM1629.27 223.773L1628.58 224.497L1628.58 224.501L1629.27 223.773ZM1575.95 219.409L1575.43 218.556L1575.42 218.559L1575.95 219.409ZM1558.49 237.955L1557.62 237.464L1557.62 237.467L1558.49 237.955ZM1551.95 396V397H1552.95V396H1551.95ZM1520.77 396V186.545H1518.77V396H1520.77ZM1519.77 187.545H1550.86V185.545H1519.77V187.545ZM1549.86 186.545V219.273H1551.86V186.545H1549.86ZM1550.86 220.273H1553.59V218.273H1550.86V220.273ZM1554.52 219.636C1558.81 208.644 1565.72 200.134 1575.26 194.071L1574.19 192.383C1564.27 198.684 1557.09 207.538 1552.65 218.909L1554.52 219.636ZM1575.26 194.068C1584.8 187.917 1596.29 184.818 1609.77 184.818V182.818C1595.97 182.818 1584.1 185.993 1574.18 192.387L1575.26 194.068ZM1609.77 184.818C1623.43 184.818 1634.72 187.919 1643.7 194.053L1644.83 192.402C1635.45 185.99 1623.74 182.818 1609.77 182.818V184.818ZM1643.71 194.059C1652.82 200.128 1659.93 208.66 1665.04 219.693L1666.86 218.852C1661.61 207.522 1654.26 198.69 1644.82 192.395L1643.71 194.059ZM1665.95 220.273H1668.13V218.273H1665.95V220.273ZM1669.03 219.717C1674.3 209.078 1682.21 200.629 1692.78 194.36L1691.76 192.64C1680.87 199.099 1672.69 207.831 1667.23 218.829L1669.03 219.717ZM1692.78 194.357C1703.33 188.013 1716 184.818 1730.86 184.818V182.818C1715.71 182.818 1702.66 186.078 1691.75 192.643L1692.78 194.357ZM1730.86 184.818C1749.36 184.818 1764.41 190.601 1776.11 202.122L1777.51 200.697C1765.39 188.762 1749.81 182.818 1730.86 182.818V184.818ZM1776.11 202.124C1787.75 213.498 1793.68 231.322 1793.68 255.818H1795.68C1795.68 231.041 1789.69 212.592 1777.51 200.694L1776.11 202.124ZM1793.68 255.818V396H1795.68V255.818H1793.68ZM1794.68 395H1762.49V397H1794.68V395ZM1763.49 396V255.818H1761.49V396H1763.49ZM1763.49 255.818C1763.49 240.197 1759.22 228.794 1750.43 221.895L1749.2 223.468C1757.32 229.843 1761.49 240.53 1761.49 255.818H1763.49ZM1750.43 221.895C1741.79 215.111 1731.61 211.727 1719.95 211.727V213.727C1731.2 213.727 1740.93 216.98 1749.2 223.468L1750.43 221.895ZM1719.95 211.727C1705.01 211.727 1693.3 216.255 1684.98 225.419L1686.46 226.763C1694.32 218.108 1705.44 213.727 1719.95 213.727V211.727ZM1684.98 225.415C1676.7 234.442 1672.59 245.876 1672.59 259.636H1674.59C1674.59 246.306 1678.56 235.376 1686.46 226.767L1684.98 225.415ZM1672.59 259.636V396H1674.59V259.636H1672.59ZM1673.59 395H1640.86V397H1673.59V395ZM1641.86 396V252.545H1639.86V396H1641.86ZM1641.86 252.545C1641.86 240.398 1637.91 230.53 1629.95 223.045L1628.58 224.501C1636.08 231.561 1639.86 240.875 1639.86 252.545H1641.86ZM1629.96 223.049C1622.02 215.483 1611.8 211.727 1599.4 211.727V213.727C1611.37 213.727 1621.06 217.336 1628.58 224.497L1629.96 223.049ZM1599.4 211.727C1590.85 211.727 1582.85 214.007 1575.43 218.556L1576.47 220.262C1583.59 215.902 1591.23 213.727 1599.4 213.727V211.727ZM1575.42 218.559C1568.09 223.109 1562.15 229.419 1557.62 237.464L1559.37 238.445C1563.74 230.672 1569.45 224.618 1576.48 220.259L1575.42 218.559ZM1557.62 237.467C1553.16 245.455 1550.95 254.673 1550.95 265.091H1552.95C1552.95 254.963 1555.1 246.09 1559.37 238.442L1557.62 237.467ZM1550.95 265.091V396H1552.95V265.091H1550.95ZM1551.95 395H1519.77V397H1551.95V395ZM1889.11 387L1888.58 387.85L1888.59 387.854L1889.11 387ZM1855.43 349.364L1854.53 349.799L1854.53 349.805L1855.43 349.364ZM1855.43 236.182L1854.52 235.749L1854.52 235.751L1855.43 236.182ZM1888.43 197.727L1888.97 198.565L1888.97 198.564L1888.43 197.727ZM1970.38 189.273L1970.7 188.326L1970.7 188.326L1970.38 189.273ZM1999.43 207L1998.74 207.73L1998.75 207.733L1999.43 207ZM2020.29 239.182L2021.22 238.82L2021.22 238.82L2020.29 239.182ZM2028.06 302.182V303.182H2029.06V302.182H2028.06ZM1866.61 302.182H1865.61V303.182H1866.61V302.182ZM1866.61 274.364V273.364H1865.61V274.364H1866.61ZM1995.34 274.364V275.364H1996.34V274.364H1995.34ZM1988.24 242.727L1987.35 243.174L1987.35 243.181L1988.24 242.727ZM1968.34 220.773L1967.8 221.62L1967.81 221.622L1968.34 220.773ZM1904.79 222.273L1905.35 223.101L1905.35 223.1L1904.79 222.273ZM1883.38 246.818L1882.48 246.374L1882.48 246.374L1883.38 246.818ZM1884.06 338.045L1883.17 338.49L1883.17 338.499L1884.06 338.045ZM1907.11 363L1906.6 363.864L1906.61 363.867L1907.11 363ZM1964.24 367.909L1964.57 368.854L1964.58 368.851L1964.24 367.909ZM1982.11 357L1982.8 357.72L1982.81 357.714L1982.11 357ZM1993.7 338.727L1993.97 337.764L1993.08 337.516L1992.76 338.376L1993.7 338.727ZM2024.79 347.455L2025.74 347.751L2026.05 346.769L2025.06 346.492L2024.79 347.455ZM2008.29 375.273L2009.01 375.972L2009.01 375.967L2008.29 375.273ZM1979.65 393.818L1980.01 394.752L1980.02 394.749L1979.65 393.818ZM1941.34 399.364C1921.3 399.364 1904.08 394.944 1889.63 386.146L1888.59 387.854C1903.41 396.874 1921 401.364 1941.34 401.364V399.364ZM1889.63 386.15C1875.26 377.253 1864.15 364.853 1856.32 348.923L1854.53 349.805C1862.52 366.056 1873.87 378.747 1888.58 387.85L1889.63 386.15ZM1856.33 348.929C1848.59 332.906 1844.7 314.242 1844.7 292.909H1842.7C1842.7 314.485 1846.63 333.457 1854.53 349.799L1856.33 348.929ZM1844.7 292.909C1844.7 271.577 1848.59 252.819 1856.33 236.613L1854.52 235.751C1846.63 252.271 1842.7 271.332 1842.7 292.909H1844.7ZM1856.33 236.615C1864.16 220.311 1875.05 207.639 1888.97 198.565L1887.88 196.889C1873.62 206.18 1862.51 219.144 1854.52 235.749L1856.33 236.615ZM1888.97 198.564C1902.97 189.41 1919.32 184.818 1938.06 184.818V182.818C1918.98 182.818 1902.24 187.499 1887.88 196.89L1888.97 198.564ZM1938.06 184.818C1948.86 184.818 1959.52 186.617 1970.06 190.219L1970.7 188.326C1959.97 184.656 1949.08 182.818 1938.06 182.818V184.818ZM1970.06 190.219C1980.55 193.807 1990.11 199.638 1998.74 207.73L2000.11 206.27C1991.29 197.998 1981.48 192.012 1970.7 188.326L1970.06 190.219ZM1998.75 207.733C2007.34 215.702 2014.22 226.293 2019.36 239.543L2021.22 238.82C2016 225.344 2008.97 214.48 2000.11 206.267L1998.75 207.733ZM2019.36 239.543C2024.48 252.758 2027.06 269.082 2027.06 288.545H2029.06C2029.06 268.918 2026.46 252.333 2021.22 238.82L2019.36 239.543ZM2027.06 288.545V302.182H2029.06V288.545H2027.06ZM2028.06 301.182H1866.61V303.182H2028.06V301.182ZM1867.61 302.182V274.364H1865.61V302.182H1867.61ZM1866.61 275.364H1995.34V273.364H1866.61V275.364ZM1996.34 274.364C1996.34 262.409 1993.94 251.704 1989.14 242.273L1987.35 243.181C1992 252.295 1994.34 262.682 1994.34 274.364H1996.34ZM1989.14 242.28C1984.42 232.845 1977.66 225.386 1968.86 219.923L1967.81 221.622C1976.28 226.886 1982.79 234.064 1987.35 243.174L1989.14 242.28ZM1968.87 219.926C1960.14 214.448 1949.86 211.727 1938.06 211.727V213.727C1949.54 213.727 1959.44 216.371 1967.8 221.62L1968.87 219.926ZM1938.06 211.727C1925.07 211.727 1913.78 214.955 1904.23 221.446L1905.35 223.1C1914.53 216.863 1925.42 213.727 1938.06 213.727V211.727ZM1904.23 221.444C1894.81 227.815 1887.56 236.129 1882.48 246.374L1884.28 247.262C1889.2 237.325 1896.22 229.276 1905.35 223.101L1904.23 221.444ZM1882.48 246.374C1877.41 256.607 1874.88 267.577 1874.88 279.273H1876.88C1876.88 267.877 1879.35 257.212 1884.28 247.262L1882.48 246.374ZM1874.88 279.273V297.818H1876.88V279.273H1874.88ZM1874.88 297.818C1874.88 313.748 1877.63 327.318 1883.17 338.49L1884.96 337.601C1879.59 326.773 1876.88 313.525 1876.88 297.818H1874.88ZM1883.17 338.499C1888.8 349.565 1896.61 358.032 1906.6 363.864L1907.61 362.136C1897.97 356.513 1890.42 348.344 1884.95 337.592L1883.17 338.499ZM1906.61 363.867C1916.6 369.603 1928.19 372.455 1941.34 372.455V370.455C1928.48 370.455 1917.25 367.67 1907.61 362.133L1906.61 363.867ZM1941.34 372.455C1949.88 372.455 1957.63 371.26 1964.57 368.854L1963.92 366.964C1957.22 369.286 1949.7 370.455 1941.34 370.455V372.455ZM1964.58 368.851C1971.61 366.352 1977.69 362.643 1982.8 357.72L1981.41 356.28C1976.52 360.994 1970.69 364.557 1963.91 366.967L1964.58 368.851ZM1982.81 357.714C1987.92 352.692 1991.86 346.473 1994.64 339.078L1992.76 338.376C1990.08 345.527 1986.29 351.49 1981.41 356.286L1982.81 357.714ZM1993.43 339.69L2024.52 348.417L2025.06 346.492L1993.97 337.764L1993.43 339.69ZM2023.83 347.158C2020.61 357.553 2015.19 366.69 2007.57 374.578L2009.01 375.967C2016.84 367.856 2022.43 358.447 2025.74 347.751L2023.83 347.158ZM2007.57 374.574C1999.96 382.372 1990.53 388.479 1979.29 392.887L1980.02 394.749C1991.5 390.248 2001.17 383.992 2009.01 375.972L2007.57 374.574ZM1979.29 392.885C1968.06 397.198 1955.41 399.364 1941.34 399.364V401.364C1955.62 401.364 1968.52 399.166 1980.01 394.752L1979.29 392.885ZM2077.02 396H2076.02V397H2077.02V396ZM2077.02 186.545V185.545H2076.02V186.545H2077.02ZM2108.11 186.545H2109.11V185.545H2108.11V186.545ZM2108.11 218.182H2107.11V219.182H2108.11V218.182ZM2110.29 218.182V219.182H2110.99L2111.23 218.528L2110.29 218.182ZM2131.02 192.955L2130.47 192.114L2130.47 192.114L2131.02 192.955ZM2181.74 183.818H2182.74V182.913L2181.84 182.823L2181.74 183.818ZM2181.74 216.545L2181.5 217.516L2182.74 217.826V216.545H2181.74ZM2174.24 215.318L2174.08 216.305L2174.09 216.307L2174.11 216.309L2174.24 215.318ZM2134.84 220.773L2135.3 221.657L2135.31 221.655L2134.84 220.773ZM2116.02 238.227L2115.17 237.699L2115.17 237.702L2116.02 238.227ZM2109.2 396V397H2110.2V396H2109.2ZM2078.02 396V186.545H2076.02V396H2078.02ZM2077.02 187.545H2108.11V185.545H2077.02V187.545ZM2107.11 186.545V218.182H2109.11V186.545H2107.11ZM2108.11 219.182H2110.29V217.182H2108.11V219.182ZM2111.23 218.528C2114.97 208.383 2121.73 200.141 2131.56 193.795L2130.47 192.114C2120.31 198.677 2113.25 207.253 2109.35 217.836L2111.23 218.528ZM2131.56 193.795C2141.39 187.45 2152.47 184.273 2164.84 184.273V182.273C2152.11 182.273 2140.65 185.55 2130.47 192.114L2131.56 193.795ZM2164.84 184.273C2167.19 184.273 2170.13 184.318 2173.67 184.409L2173.72 182.409C2170.17 182.318 2167.21 182.273 2164.84 182.273V184.273ZM2173.67 184.409C2177.21 184.5 2179.86 184.635 2181.64 184.813L2181.84 182.823C2179.99 182.638 2177.28 182.5 2173.72 182.409L2173.67 184.409ZM2180.74 183.818V216.545H2182.74V183.818H2180.74ZM2181.99 215.575C2180.83 215.287 2178.28 214.871 2174.38 214.328L2174.11 216.309C2178.03 216.856 2180.47 217.258 2181.5 217.516L2181.99 215.575ZM2174.41 214.332C2170.53 213.685 2166.43 213.364 2162.11 213.364V215.364C2166.33 215.364 2170.32 215.678 2174.08 216.305L2174.41 214.332ZM2162.11 213.364C2151.78 213.364 2142.53 215.531 2134.36 219.891L2135.31 221.655C2143.14 217.469 2152.07 215.364 2162.11 215.364V213.364ZM2134.37 219.889C2126.31 224.152 2119.9 230.091 2115.17 237.699L2116.87 238.755C2121.41 231.454 2127.55 225.757 2135.3 221.657L2134.37 219.889ZM2115.17 237.702C2110.51 245.238 2108.2 253.832 2108.2 263.455H2110.2C2110.2 254.168 2112.43 245.944 2116.87 238.753L2115.17 237.702ZM2108.2 263.455V396H2110.2V263.455H2108.2ZM2109.2 395H2077.02V397H2109.2V395ZM2219.89 396H2218.89V397H2219.89V396ZM2219.89 186.545V185.545H2218.89V186.545H2219.89ZM2252.07 186.545H2253.07V185.545H2252.07V186.545ZM2252.07 396V397H2253.07V396H2252.07ZM2220.03 145.227L2219.34 145.949L2219.34 145.956L2220.03 145.227ZM2220.03 114.409L2219.34 113.68L2219.34 113.687L2220.03 114.409ZM2252.35 114.409L2251.65 115.131L2251.66 115.138L2252.35 114.409ZM2252.35 145.227L2251.66 144.499L2251.65 144.506L2252.35 145.227ZM2220.89 396V186.545H2218.89V396H2220.89ZM2219.89 187.545H2252.07V185.545H2219.89V187.545ZM2251.07 186.545V396H2253.07V186.545H2251.07ZM2252.07 395H2219.89V397H2252.07V395ZM2236.26 150.636C2230.24 150.636 2225.07 148.596 2220.71 144.499L2219.34 145.956C2224.08 150.404 2229.73 152.636 2236.26 152.636V150.636ZM2220.72 144.506C2216.46 140.415 2214.35 135.537 2214.35 129.818H2212.35C2212.35 136.099 2214.69 141.494 2219.34 145.949L2220.72 144.506ZM2214.35 129.818C2214.35 124.099 2216.46 119.221 2220.72 115.131L2219.34 113.687C2214.69 118.143 2212.35 123.537 2212.35 129.818H2214.35ZM2220.71 115.138C2225.07 111.04 2230.24 109 2236.26 109V107C2229.73 107 2224.08 109.232 2219.34 113.68L2220.71 115.138ZM2236.26 109C2242.28 109 2247.39 111.04 2251.65 115.131L2253.04 113.687C2248.39 109.233 2242.78 107 2236.26 107V109ZM2251.66 115.138C2256.02 119.23 2258.16 124.106 2258.16 129.818H2260.16C2260.16 123.53 2257.77 118.134 2253.03 113.68L2251.66 115.138ZM2258.16 129.818C2258.16 135.53 2256.02 140.406 2251.66 144.499L2253.03 145.956C2257.77 141.503 2260.16 136.106 2260.16 129.818H2258.16ZM2251.65 144.506C2247.39 148.597 2242.28 150.636 2236.26 150.636V152.636C2242.78 152.636 2248.39 150.403 2253.04 145.949L2251.65 144.506ZM2336.52 393.409L2336.09 394.314L2336.1 394.317L2336.52 393.409ZM2310.74 371.455L2309.91 372.006L2309.91 372.009L2310.74 371.455ZM2308.29 307.364L2309.13 307.899L2309.14 307.895L2308.29 307.364ZM2353.43 280.091L2353.64 281.068L2353.65 281.066L2353.43 280.091ZM2382.47 274.909L2382.34 273.917L2382.34 273.918L2382.47 274.909ZM2413.43 271.227L2413.53 272.222L2413.54 272.221L2413.43 271.227ZM2430.88 266.727L2430.39 265.855L2430.38 265.86L2430.88 266.727ZM2425.43 223.364L2424.71 224.062L2424.71 224.066L2425.43 223.364ZM2356.15 222.273L2356.76 223.065L2356.76 223.065L2356.15 222.273ZM2337.74 243.818L2337.41 244.76L2338.27 245.067L2338.65 244.239L2337.74 243.818ZM2307.2 232.909L2306.28 232.515L2305.86 233.493L2306.86 233.851L2307.2 232.909ZM2329.02 203.182L2329.63 203.97L2329.63 203.969L2329.02 203.182ZM2359.02 188.182L2359.27 189.15L2359.27 189.148L2359.02 188.182ZM2414.38 186.273L2414.2 187.256L2414.21 187.258L2414.38 186.273ZM2439.88 195.955L2439.37 196.812L2439.37 196.815L2439.88 195.955ZM2460.47 218.182L2459.6 218.664L2459.6 218.664L2460.47 218.182ZM2468.65 396V397H2469.65V396H2468.65ZM2436.47 396H2435.47V397H2436.47V396ZM2436.47 367.636H2437.47V366.636H2436.47V367.636ZM2434.84 367.636V366.636H2434.21L2433.93 367.204L2434.84 367.636ZM2423.93 382.227L2424.64 382.928L2424.64 382.928L2423.93 382.227ZM2403.61 395.455L2403.21 394.536L2403.61 395.455ZM2409.74 364.5L2409.25 363.63L2409.25 363.632L2409.74 364.5ZM2429.65 345.136L2428.79 344.638L2428.78 344.646L2429.65 345.136ZM2436.47 290.727H2437.47V287.965L2435.7 290.087L2436.47 290.727ZM2427.47 295.227L2427.74 296.19L2427.75 296.187L2427.47 295.227ZM2411.65 298.636L2411.81 299.625L2411.82 299.623L2411.65 298.636ZM2394.34 301.091L2394.45 302.084L2394.46 302.083L2394.34 301.091ZM2380.84 302.727L2380.96 303.719L2380.97 303.719L2380.84 302.727ZM2357.38 308.045L2357.69 308.995L2357.7 308.993L2357.38 308.045ZM2339.93 318.818L2339.19 318.139L2339.19 318.14L2339.93 318.818ZM2345.79 363.545L2345.22 364.368L2345.23 364.375L2345.79 363.545ZM2372.65 399.909C2359.51 399.909 2347.61 397.434 2336.94 392.501L2336.1 394.317C2347.06 399.384 2359.25 401.909 2372.65 401.909V399.909ZM2336.94 392.504C2326.28 387.487 2317.83 380.287 2311.58 370.9L2309.91 372.009C2316.38 381.713 2325.12 389.149 2336.09 394.314L2336.94 392.504ZM2311.58 370.903C2305.34 361.458 2302.2 350.022 2302.2 336.545H2300.2C2300.2 350.342 2303.42 362.178 2309.91 372.006L2311.58 370.903ZM2302.2 336.545C2302.2 324.669 2304.54 315.146 2309.13 307.899L2307.45 306.828C2302.59 314.491 2300.2 324.422 2300.2 336.545H2302.2ZM2309.14 307.895C2313.77 300.497 2319.96 294.708 2327.72 290.516L2326.77 288.757C2318.71 293.111 2312.26 299.139 2307.44 306.833L2309.14 307.895ZM2327.72 290.516C2335.54 286.292 2344.18 283.14 2353.64 281.068L2353.21 279.114C2343.58 281.223 2334.77 284.436 2326.77 288.757L2327.72 290.516ZM2353.65 281.066C2363.25 278.891 2372.9 277.169 2382.6 275.901L2382.34 273.918C2372.58 275.194 2362.87 276.927 2353.21 279.116L2353.65 281.066ZM2382.6 275.901C2395.32 274.265 2405.63 273.039 2413.53 272.222L2413.32 270.233C2405.4 271.052 2395.08 272.28 2382.34 273.917L2382.6 275.901ZM2413.54 272.221C2421.57 271.308 2427.56 269.79 2431.38 267.594L2430.38 265.86C2426.93 267.846 2421.28 269.328 2413.31 270.234L2413.54 272.221ZM2431.37 267.599C2435.48 265.291 2437.47 261.271 2437.47 255.818H2435.47C2435.47 260.729 2433.73 263.982 2430.39 265.855L2431.37 267.599ZM2437.47 255.818V254.727H2435.47V255.818H2437.47ZM2437.47 254.727C2437.47 241.088 2433.73 230.352 2426.14 222.661L2424.71 224.066C2431.85 231.285 2435.47 241.458 2435.47 254.727H2437.47ZM2426.14 222.665C2418.61 214.949 2407.26 211.182 2392.29 211.182V213.182C2406.95 213.182 2417.69 216.87 2424.71 224.062L2426.14 222.665ZM2392.29 211.182C2376.79 211.182 2364.5 214.574 2355.54 221.481L2356.76 223.065C2365.26 216.517 2377.06 213.182 2392.29 213.182V211.182ZM2355.54 221.481C2346.73 228.277 2340.47 235.577 2336.84 243.397L2338.65 244.239C2342.11 236.787 2348.13 229.723 2356.76 223.065L2355.54 221.481ZM2338.08 242.876L2307.54 231.967L2306.86 233.851L2337.41 244.76L2338.08 242.876ZM2308.12 233.303C2313.52 220.7 2320.7 210.938 2329.63 203.97L2328.4 202.393C2319.15 209.607 2311.79 219.664 2306.28 232.515L2308.12 233.303ZM2329.63 203.969C2338.71 196.868 2348.59 191.932 2359.27 189.15L2358.76 187.214C2347.81 190.068 2337.69 195.132 2328.4 202.394L2329.63 203.969ZM2359.27 189.148C2370.11 186.26 2380.75 184.818 2391.2 184.818V182.818C2380.56 182.818 2369.75 184.286 2358.76 187.216L2359.27 189.148ZM2391.2 184.818C2397.85 184.818 2405.51 185.627 2414.2 187.256L2414.56 185.29C2405.79 183.645 2398 182.818 2391.2 182.818V184.818ZM2414.21 187.258C2422.9 188.781 2431.28 191.962 2439.37 196.812L2440.4 195.097C2432.12 190.129 2423.5 186.856 2414.55 185.288L2414.21 187.258ZM2439.37 196.815C2447.46 201.618 2454.21 208.884 2459.6 218.664L2461.35 217.7C2455.82 207.662 2448.84 200.11 2440.39 195.095L2439.37 196.815ZM2459.6 218.664C2464.94 228.372 2467.65 241.458 2467.65 258H2469.65C2469.65 241.269 2466.91 227.81 2461.35 217.7L2459.6 218.664ZM2467.65 258V396H2469.65V258H2467.65ZM2468.65 395H2436.47V397H2468.65V395ZM2437.47 396V367.636H2435.47V396H2437.47ZM2436.47 366.636H2434.84V368.636H2436.47V366.636ZM2433.93 367.204C2431.82 371.617 2428.26 376.392 2423.21 381.526L2424.64 382.928C2429.78 377.699 2433.49 372.747 2435.74 368.069L2433.93 367.204ZM2423.21 381.526C2418.23 386.595 2411.58 390.938 2403.21 394.536L2404 396.373C2412.55 392.699 2419.44 388.224 2424.64 382.928L2423.21 381.526ZM2403.21 394.536C2394.92 398.104 2384.74 399.909 2372.65 399.909V401.909C2384.93 401.909 2395.39 400.078 2404 396.373L2403.21 394.536ZM2377.56 373C2390.42 373 2401.33 370.475 2410.24 365.368L2409.25 363.632C2400.71 368.525 2390.16 371 2377.56 371V373ZM2410.24 365.37C2419.19 360.291 2425.97 353.713 2430.52 345.627L2428.78 344.646C2424.43 352.378 2417.93 358.709 2409.25 363.63L2410.24 365.37ZM2430.52 345.635C2435.15 337.581 2437.47 329.092 2437.47 320.182H2435.47C2435.47 328.726 2433.25 336.873 2428.79 344.638L2430.52 345.635ZM2437.47 320.182V290.727H2435.47V320.182H2437.47ZM2435.7 290.087C2435.15 290.756 2434.19 291.465 2432.75 292.185C2431.32 292.9 2429.47 293.596 2427.19 294.268L2427.75 296.187C2430.11 295.495 2432.08 294.759 2433.65 293.974C2435.21 293.194 2436.43 292.335 2437.24 291.367L2435.7 290.087ZM2427.2 294.264C2422.7 295.525 2417.46 296.654 2411.49 297.65L2411.82 299.623C2417.84 298.618 2423.15 297.475 2427.74 296.19L2427.2 294.264ZM2411.5 297.648C2405.6 298.556 2399.84 299.373 2394.21 300.099L2394.46 302.083C2400.11 301.354 2405.89 300.535 2411.81 299.625L2411.5 297.648ZM2394.22 300.097C2388.67 300.734 2384.17 301.28 2380.7 301.736L2380.97 303.719C2384.41 303.265 2388.91 302.72 2394.45 302.084L2394.22 300.097ZM2380.71 301.736C2372.28 302.834 2364.4 304.621 2357.06 307.098L2357.7 308.993C2364.91 306.561 2372.66 304.802 2380.96 303.719L2380.71 301.736ZM2357.07 307.096C2349.75 309.504 2343.78 313.179 2339.19 318.139L2340.66 319.497C2344.98 314.821 2350.65 311.314 2357.69 308.995L2357.07 307.096ZM2339.19 318.14C2334.61 323.098 2332.38 329.819 2332.38 338.182H2334.38C2334.38 330.18 2336.51 323.993 2340.66 319.496L2339.19 318.14ZM2332.38 338.182C2332.38 349.649 2336.64 358.431 2345.22 364.368L2346.36 362.723C2338.39 357.206 2334.38 349.078 2334.38 338.182H2332.38ZM2345.23 364.375C2353.8 370.149 2364.6 373 2377.56 373V371C2364.89 371 2354.51 368.215 2346.35 362.716L2345.23 364.375ZM2533.53 390.955L2534.24 390.247L2534.24 390.247L2533.53 390.955ZM2568.16 356.318L2568.87 355.611L2568.87 355.611L2568.16 356.318ZM2571.98 385.909L2571.13 385.388L2571.12 385.396L2571.12 385.404L2571.98 385.909ZM2563.12 394.909L2563.63 395.767L2563.64 395.763L2563.12 394.909ZM2550.85 397.182C2544.39 397.182 2538.87 394.881 2534.24 390.247L2532.82 391.662C2537.82 396.665 2543.85 399.182 2550.85 399.182V397.182ZM2534.24 390.247C2529.6 385.614 2527.3 380.095 2527.3 373.636H2525.3C2525.3 380.633 2527.82 386.659 2532.82 391.662L2534.24 390.247ZM2527.3 373.636C2527.3 367.178 2529.6 361.659 2534.24 357.025L2532.82 355.611C2527.82 360.614 2525.3 366.64 2525.3 373.636H2527.3ZM2534.24 357.025C2538.87 352.392 2544.39 350.091 2550.85 350.091V348.091C2543.85 348.091 2537.82 350.608 2532.82 355.611L2534.24 357.025ZM2550.85 350.091C2557.3 350.091 2562.82 352.392 2567.46 357.025L2568.87 355.611C2563.87 350.608 2557.84 348.091 2550.85 348.091V350.091ZM2567.46 357.025C2572.09 361.659 2574.39 367.178 2574.39 373.636H2576.39C2576.39 366.64 2573.87 360.614 2568.87 355.611L2567.46 357.025ZM2574.39 373.636C2574.39 377.911 2573.3 381.821 2571.13 385.388L2572.84 386.43C2575.21 382.542 2576.39 378.271 2576.39 373.636H2574.39ZM2571.12 385.404C2569.02 388.987 2566.19 391.868 2562.6 394.055L2563.64 395.763C2567.51 393.405 2570.58 390.286 2572.85 386.414L2571.12 385.404ZM2562.6 394.052C2559.14 396.133 2555.22 397.182 2550.85 397.182V399.182C2555.56 399.182 2559.83 398.048 2563.63 395.767L2562.6 394.052ZM2633.14 396H2632.14V397H2633.14V396ZM2633.14 186.545V185.545H2632.14V186.545H2633.14ZM2665.32 186.545H2666.32V185.545H2665.32V186.545ZM2665.32 396V397H2666.32V396H2665.32ZM2633.28 145.227L2632.59 145.949L2632.59 145.956L2633.28 145.227ZM2633.28 114.409L2632.59 113.68L2632.59 113.687L2633.28 114.409ZM2665.6 114.409L2664.9 115.131L2664.91 115.138L2665.6 114.409ZM2665.6 145.227L2664.91 144.499L2664.9 144.506L2665.6 145.227ZM2634.14 396V186.545H2632.14V396H2634.14ZM2633.14 187.545H2665.32V185.545H2633.14V187.545ZM2664.32 186.545V396H2666.32V186.545H2664.32ZM2665.32 395H2633.14V397H2665.32V395ZM2649.51 150.636C2643.49 150.636 2638.32 148.596 2633.96 144.499L2632.59 145.956C2637.33 150.404 2642.98 152.636 2649.51 152.636V150.636ZM2633.97 144.506C2629.71 140.415 2627.6 135.537 2627.6 129.818H2625.6C2625.6 136.099 2627.94 141.494 2632.59 145.949L2633.97 144.506ZM2627.6 129.818C2627.6 124.099 2629.71 119.221 2633.97 115.131L2632.59 113.687C2627.94 118.143 2625.6 123.537 2625.6 129.818H2627.6ZM2633.96 115.138C2638.32 111.04 2643.49 109 2649.51 109V107C2642.98 107 2637.33 109.232 2632.59 113.68L2633.96 115.138ZM2649.51 109C2655.53 109 2660.64 111.04 2664.9 115.131L2666.29 113.687C2661.64 109.233 2656.03 107 2649.51 107V109ZM2664.91 115.138C2669.27 119.23 2671.41 124.106 2671.41 129.818H2673.41C2673.41 123.53 2671.02 118.134 2666.28 113.68L2664.91 115.138ZM2671.41 129.818C2671.41 135.53 2669.27 140.406 2664.91 144.499L2666.28 145.956C2671.02 141.503 2673.41 136.106 2673.41 129.818H2671.41ZM2664.9 144.506C2660.64 148.597 2655.53 150.636 2649.51 150.636V152.636C2656.03 152.636 2661.64 150.403 2666.29 145.949L2664.9 144.506ZM2759.59 386.864L2759.05 387.708L2759.05 387.71L2759.59 386.864ZM2726.31 349.091L2725.41 349.53L2725.42 349.534L2726.31 349.091ZM2726.31 235.227L2725.42 234.786L2725.41 234.79L2726.31 235.227ZM2759.59 197.318L2759.05 196.472L2759.05 196.474L2759.59 197.318ZM2858.99 197.318L2858.46 198.163L2858.46 198.164L2858.99 197.318ZM2892.27 235.227L2891.37 235.664L2891.37 235.668L2892.27 235.227ZM2892.27 349.091L2891.37 348.648L2891.37 348.652L2892.27 349.091ZM2858.99 386.864L2858.46 386.018L2858.46 386.019L2858.99 386.864ZM2844.81 360.409L2844.19 359.626L2844.19 359.626L2844.81 360.409ZM2865.4 331.364L2866.34 331.712L2866.34 331.712L2865.4 331.364ZM2865.4 253.227L2866.34 252.882L2866.34 252.882L2865.4 253.227ZM2844.81 223.909L2845.44 223.13L2845.44 223.13L2844.81 223.909ZM2773.9 223.909L2773.28 223.13L2773.28 223.13L2773.9 223.909ZM2753.31 253.227L2752.37 252.882L2752.37 252.882L2753.31 253.227ZM2753.31 331.364L2752.38 331.712L2752.38 331.712L2753.31 331.364ZM2773.9 360.409L2774.53 359.626L2774.53 359.626L2773.9 360.409ZM2809.36 399.364C2790.61 399.364 2774.21 394.905 2760.12 386.018L2759.05 387.71C2773.5 396.822 2790.28 401.364 2809.36 401.364V399.364ZM2760.12 386.019C2746.11 377.125 2735.13 364.678 2727.21 348.648L2725.42 349.534C2733.49 365.867 2744.7 378.602 2759.05 387.708L2760.12 386.019ZM2727.21 348.652C2719.38 332.632 2715.45 313.878 2715.45 292.364H2713.45C2713.45 314.122 2717.43 333.187 2725.41 349.53L2727.21 348.652ZM2715.45 292.364C2715.45 270.666 2719.38 251.776 2727.21 235.664L2725.41 234.79C2717.43 251.224 2713.45 270.425 2713.45 292.364H2715.45ZM2727.21 235.668C2735.14 219.547 2746.11 207.056 2760.12 198.163L2759.05 196.474C2744.7 205.58 2733.49 218.362 2725.42 234.786L2727.21 235.668ZM2760.12 198.164C2774.21 189.277 2790.61 184.818 2809.36 184.818V182.818C2790.28 182.818 2773.5 187.36 2759.05 196.472L2760.12 198.164ZM2809.36 184.818C2828.1 184.818 2844.46 189.277 2858.46 198.163L2859.53 196.474C2845.17 187.36 2828.43 182.818 2809.36 182.818V184.818ZM2858.46 198.164C2872.56 207.057 2883.53 219.547 2891.37 235.664L2893.17 234.79C2885.18 218.362 2873.97 205.579 2859.53 196.472L2858.46 198.164ZM2891.37 235.668C2899.29 251.779 2903.27 270.668 2903.27 292.364H2905.27C2905.27 270.423 2901.24 251.221 2893.16 234.786L2891.37 235.668ZM2903.27 292.364C2903.27 313.876 2899.29 332.628 2891.37 348.648L2893.16 349.534C2901.24 333.19 2905.27 314.124 2905.27 292.364H2903.27ZM2891.37 348.652C2883.54 364.678 2872.57 377.124 2858.46 386.018L2859.53 387.71C2873.97 378.604 2885.18 365.867 2893.17 349.53L2891.37 348.652ZM2858.46 386.019C2844.46 394.905 2828.1 399.364 2809.36 399.364V401.364C2828.43 401.364 2845.17 396.822 2859.53 387.708L2858.46 386.019ZM2809.36 372.455C2823.9 372.455 2835.95 368.724 2845.43 361.192L2844.19 359.626C2835.13 366.821 2823.55 370.455 2809.36 370.455V372.455ZM2845.43 361.192C2854.86 353.706 2861.83 343.868 2866.34 331.712L2864.47 331.016C2860.07 342.859 2853.31 352.385 2844.19 359.626L2845.43 361.192ZM2866.34 331.712C2870.84 319.59 2873.09 306.471 2873.09 292.364H2871.09C2871.09 306.256 2868.88 319.137 2864.47 331.016L2866.34 331.712ZM2873.09 292.364C2873.09 278.256 2870.84 265.092 2866.34 252.882L2864.47 253.573C2868.88 265.544 2871.09 278.471 2871.09 292.364H2873.09ZM2866.34 252.882C2861.83 240.635 2854.86 230.707 2845.44 223.13L2844.19 224.688C2853.31 232.02 2860.07 241.638 2864.47 253.573L2866.34 252.882ZM2845.44 223.13C2835.95 215.504 2823.9 211.727 2809.36 211.727V213.727C2823.54 213.727 2835.13 217.405 2844.19 224.688L2845.44 223.13ZM2809.36 211.727C2794.82 211.727 2782.76 215.504 2773.28 223.13L2774.53 224.688C2783.59 217.405 2795.17 213.727 2809.36 213.727V211.727ZM2773.28 223.13C2763.85 230.707 2756.89 240.635 2752.37 252.882L2754.25 253.573C2758.65 241.638 2765.41 232.02 2774.53 224.688L2773.28 223.13ZM2752.37 252.882C2747.88 265.092 2745.63 278.256 2745.63 292.364H2747.63C2747.63 278.471 2749.84 265.544 2754.25 253.573L2752.37 252.882ZM2745.63 292.364C2745.63 306.471 2747.88 319.59 2752.38 331.712L2754.25 331.016C2749.84 319.137 2747.63 306.256 2747.63 292.364H2745.63ZM2752.38 331.712C2756.89 343.868 2763.85 353.706 2773.28 361.192L2774.53 359.626C2765.41 352.385 2758.65 342.859 2754.25 331.016L2752.38 331.712ZM2773.28 361.192C2782.77 368.724 2794.82 372.455 2809.36 372.455V370.455C2795.17 370.455 2783.59 366.821 2774.53 359.626L2773.28 361.192Z" fill="#060F74"/>
<path d="M2198.87 82.603C2192.5 90.665 2189 100.762 2189 111.033C2189 136.341 2209.59 156.929 2234.9 156.929H2237.22L2247.9 97.424L2237.22 34L2198.87 82.603Z" fill="#FF479A"/>
<path d="M2275.57 82.603L2237.22 34V156.93H2239.54C2264.84 156.93 2285.43 136.341 2285.43 111.034C2285.43 100.763 2281.93 90.666 2275.57 82.603V82.603Z" fill="#FF1A81"/>
<path d="M2610.87 82.603C2604.5 90.665 2601 100.762 2601 111.033C2601 136.341 2621.59 156.929 2646.9 156.929H2649.22L2659.9 97.424L2649.22 34L2610.87 82.603Z" fill="#FF479A"/>
<path d="M2687.57 82.603L2649.22 34V156.93H2651.54C2676.84 156.93 2697.43 136.341 2697.43 111.034C2697.43 100.763 2693.93 90.666 2687.57 82.603V82.603Z" fill="#FF1A81"/>
<path d="M255.637 0V86.667H270.637L278.066 43.333L270.637 0H255.637Z" fill="#08149B"/>
<path d="M270.637 0H285.637V86.667H270.637V0Z" fill="#060F74"/>
<path d="M148.592 449.823L141.204 444.054C93.1641 406.544 69.9161 345.958 80.5321 285.94L102.251 163.148C110.664 115.581 151.831 81.057 200.137 81.057V111.057C166.41 111.057 137.667 135.162 131.792 168.374L110.073 291.165C101.396 340.224 120.4 389.747 159.667 420.408L167.056 426.177L148.592 449.823Z" fill="#08149B"/>
<path d="M392.683 449.822L374.218 426.177L381.606 420.408C420.875 389.746 439.877 340.223 431.201 291.164L409.482 168.372C403.608 135.16 374.865 111.055 341.137 111.055V81.055C389.443 81.055 430.61 115.579 439.023 163.147L460.742 285.938C471.358 345.956 448.11 406.542 400.07 444.052L392.683 449.822Z" fill="#060F74"/>
<path d="M277.028 417.652H203.592V337.22H277.028V417.652Z" fill="#08149B"/>
<path d="M337.682 417.652H270.637V337.22H337.682V417.652Z" fill="#060F74"/>
<path d="M203.589 128L200.287 132.001C147.395 196.112 147.395 289.176 200.287 353.288L203.589 357.289H270.637V128H203.589Z" fill="#F8F8F8"/>
<path d="M340.987 132.001L337.686 128H270.637V357.289H337.686L340.988 353.288C393.88 289.177 393.88 196.112 340.987 132.001Z" fill="#EBEBEB"/>
<path d="M242.093 42.591C213.883 42.591 191.015 65.46 191.015 93.669V144.311H270.637L285.637 100.417L270.637 42.591H242.093Z" fill="#08149B"/>
<path d="M299.182 42.591H270.637V144.311H350.26V93.669C350.26 65.459 327.392 42.591 299.182 42.591V42.591Z" fill="#060F74"/>
<path d="M270.637 399.652H175.665L148.824 431.979V497H281.01L270.637 399.652Z" fill="#08149B"/>
<path d="M365.609 399.652H270.637V497H392.45V431.979L365.609 399.652Z" fill="#060F74"/>
<path d="M125.137 482H281.01V512H125.137V482Z" fill="#060F74"/>
<path d="M270.637 482H416.137V512H270.637V482Z" fill="#060F74"/>
<path d="M232.287 282.962C225.925 291.024 222.421 301.121 222.421 311.392C222.421 336.7 243.01 357.288 268.317 357.288H270.637L281.324 297.783L270.637 234.359L232.287 282.962Z" fill="#FF479A"/>
<path d="M308.988 282.962L270.637 234.359V357.289H272.956C298.264 357.289 318.852 336.7 318.852 311.393C318.853 301.122 315.349 291.025 308.988 282.962V282.962Z" fill="#FF1A81"/>
</svg>
