<svg width="781" height="115" viewBox="0 0 781 115" fill="none" xmlns="http://www.w3.org/2000/svg">
<path d="M33.0909 114.455C26.3636 114.455 20.5606 112.97 15.6818 110C10.8333 107 7.09091 102.818 4.45455 97.4545C1.84849 92.0606 0.545455 85.7879 0.545455 78.6364C0.545455 71.4848 1.84849 65.1818 4.45455 59.7273C7.09091 54.2424 10.7576 49.9697 15.4545 46.9091C20.1818 43.8182 25.697 42.2727 32 42.2727C35.6364 42.2727 39.2273 42.8788 42.7727 44.0909C46.3182 45.303 49.5455 47.2727 52.4545 50C55.3636 52.697 57.6818 56.2727 59.4091 60.7273C61.1364 65.1818 62 70.6667 62 77.1818V81.7273H8.18182V72.4545H51.0909C51.0909 68.5151 50.303 65 48.7273 61.9091C47.1818 58.8182 44.9697 56.3788 42.0909 54.5909C39.2424 52.803 35.8788 51.9091 32 51.9091C27.7273 51.9091 24.0303 52.9697 20.9091 55.0909C17.8182 57.1818 15.4394 59.9091 13.7727 63.2727C12.1061 66.6364 11.2727 70.2424 11.2727 74.0909V80.2727C11.2727 85.5455 12.1818 90.0152 14 93.6818C15.8485 97.3182 18.4091 100.091 21.6818 102C24.9545 103.879 28.7576 104.818 33.0909 104.818C35.9091 104.818 38.4545 104.424 40.7273 103.636C43.0303 102.818 45.0152 101.606 46.6818 100C48.3485 98.3636 49.6364 96.3333 50.5455 93.9091L60.9091 96.8182C59.8182 100.333 57.9848 103.424 55.4091 106.091C52.8333 108.727 49.6515 110.788 45.8636 112.273C42.0758 113.727 37.8182 114.455 33.0909 114.455ZM89.0455 71V113H78.3182V43.1818H88.6818V54.0909H89.5909C91.2273 50.5455 93.7121 47.697 97.0455 45.5455C100.379 43.3636 104.682 42.2727 109.955 42.2727C114.682 42.2727 118.818 43.2424 122.364 45.1818C125.909 47.0909 128.667 50 130.636 53.9091C132.606 57.7879 133.591 62.697 133.591 68.6364V113H122.864V69.3636C122.864 63.8788 121.439 59.6061 118.591 56.5455C115.742 53.4545 111.833 51.9091 106.864 51.9091C103.439 51.9091 100.379 52.6515 97.6818 54.1364C95.0152 55.6212 92.9091 57.7879 91.3636 60.6364C89.8182 63.4848 89.0455 66.9394 89.0455 71ZM184.284 43.1818V52.2727H146.648V43.1818H184.284ZM157.92 113V33.5455C157.92 29.5455 158.86 26.2121 160.739 23.5454C162.617 20.8788 165.057 18.8788 168.057 17.5454C171.057 16.2121 174.223 15.5454 177.557 15.5454C180.193 15.5454 182.345 15.7576 184.011 16.1818C185.678 16.6061 186.92 17 187.739 17.3636L184.648 26.6364C184.102 26.4545 183.345 26.2273 182.375 25.9545C181.436 25.6818 180.193 25.5454 178.648 25.5454C175.102 25.5454 172.542 26.4394 170.966 28.2273C169.42 30.0151 168.648 32.6364 168.648 36.0909V113H157.92ZM225.716 114.455C218.989 114.455 213.186 112.97 208.307 110C203.458 107 199.716 102.818 197.08 97.4545C194.473 92.0606 193.17 85.7879 193.17 78.6364C193.17 71.4848 194.473 65.1818 197.08 59.7273C199.716 54.2424 203.383 49.9697 208.08 46.9091C212.807 43.8182 218.322 42.2727 224.625 42.2727C228.261 42.2727 231.852 42.8788 235.398 44.0909C238.943 45.303 242.17 47.2727 245.08 50C247.989 52.697 250.307 56.2727 252.034 60.7273C253.761 65.1818 254.625 70.6667 254.625 77.1818V81.7273H200.807V72.4545H243.716C243.716 68.5151 242.928 65 241.352 61.9091C239.807 58.8182 237.595 56.3788 234.716 54.5909C231.867 52.803 228.504 51.9091 224.625 51.9091C220.352 51.9091 216.655 52.9697 213.534 55.0909C210.443 57.1818 208.064 59.9091 206.398 63.2727C204.731 66.6364 203.898 70.2424 203.898 74.0909V80.2727C203.898 85.5455 204.807 90.0152 206.625 93.6818C208.473 97.3182 211.034 100.091 214.307 102C217.58 103.879 221.383 104.818 225.716 104.818C228.534 104.818 231.08 104.424 233.352 103.636C235.655 102.818 237.64 101.606 239.307 100C240.973 98.3636 242.261 96.3333 243.17 93.9091L253.534 96.8182C252.443 100.333 250.61 103.424 248.034 106.091C245.458 108.727 242.277 110.788 238.489 112.273C234.701 113.727 230.443 114.455 225.716 114.455ZM270.943 113V43.1818H281.307V53.7273H282.034C283.307 50.2727 285.61 47.4697 288.943 45.3182C292.277 43.1667 296.034 42.0909 300.216 42.0909C301.004 42.0909 301.989 42.1061 303.17 42.1364C304.352 42.1667 305.246 42.2121 305.852 42.2727V53.1818C305.489 53.0909 304.655 52.9545 303.352 52.7727C302.08 52.5606 300.731 52.4545 299.307 52.4545C295.913 52.4545 292.883 53.1667 290.216 54.5909C287.58 55.9848 285.489 57.9242 283.943 60.4091C282.428 62.8636 281.67 65.6667 281.67 68.8182V113H270.943ZM318.568 113V43.1818H328.932V54.0909H329.841C331.295 50.3636 333.644 47.4697 336.886 45.4091C340.129 43.3182 344.023 42.2727 348.568 42.2727C353.174 42.2727 357.008 43.3182 360.068 45.4091C363.159 47.4697 365.568 50.3636 367.295 54.0909H368.023C369.811 50.4848 372.492 47.6212 376.068 45.5C379.644 43.3485 383.932 42.2727 388.932 42.2727C395.174 42.2727 400.28 44.2273 404.25 48.1364C408.22 52.0151 410.205 58.0606 410.205 66.2727V113H399.477V66.2727C399.477 61.1212 398.068 57.4394 395.25 55.2273C392.432 53.0151 389.114 51.9091 385.295 51.9091C380.386 51.9091 376.583 53.3939 373.886 56.3636C371.189 59.303 369.841 63.0303 369.841 67.5455V113H358.932V65.1818C358.932 61.2121 357.644 58.0152 355.068 55.5909C352.492 53.1364 349.174 51.9091 345.114 51.9091C342.326 51.9091 339.72 52.6515 337.295 54.1364C334.902 55.6212 332.962 57.6818 331.477 60.3182C330.023 62.9242 329.295 65.9394 329.295 69.3636V113H318.568ZM459.091 114.455C452.364 114.455 446.561 112.97 441.682 110C436.833 107 433.091 102.818 430.455 97.4545C427.848 92.0606 426.545 85.7879 426.545 78.6364C426.545 71.4848 427.848 65.1818 430.455 59.7273C433.091 54.2424 436.758 49.9697 441.455 46.9091C446.182 43.8182 451.697 42.2727 458 42.2727C461.636 42.2727 465.227 42.8788 468.773 44.0909C472.318 45.303 475.545 47.2727 478.455 50C481.364 52.697 483.682 56.2727 485.409 60.7273C487.136 65.1818 488 70.6667 488 77.1818V81.7273H434.182V72.4545H477.091C477.091 68.5151 476.303 65 474.727 61.9091C473.182 58.8182 470.97 56.3788 468.091 54.5909C465.242 52.803 461.879 51.9091 458 51.9091C453.727 51.9091 450.03 52.9697 446.909 55.0909C443.818 57.1818 441.439 59.9091 439.773 63.2727C438.106 66.6364 437.273 70.2424 437.273 74.0909V80.2727C437.273 85.5455 438.182 90.0152 440 93.6818C441.848 97.3182 444.409 100.091 447.682 102C450.955 103.879 454.758 104.818 459.091 104.818C461.909 104.818 464.455 104.424 466.727 103.636C469.03 102.818 471.015 101.606 472.682 100C474.348 98.3636 475.636 96.3333 476.545 93.9091L486.909 96.8182C485.818 100.333 483.985 103.424 481.409 106.091C478.833 108.727 475.652 110.788 471.864 112.273C468.076 113.727 463.818 114.455 459.091 114.455ZM504.318 113V43.1818H514.682V53.7273H515.409C516.682 50.2727 518.985 47.4697 522.318 45.3182C525.652 43.1667 529.409 42.0909 533.591 42.0909C534.379 42.0909 535.364 42.1061 536.545 42.1364C537.727 42.1667 538.621 42.2121 539.227 42.2727V53.1818C538.864 53.0909 538.03 52.9545 536.727 52.7727C535.455 52.5606 534.106 52.4545 532.682 52.4545C529.288 52.4545 526.258 53.1667 523.591 54.5909C520.955 55.9848 518.864 57.9242 517.318 60.4091C515.803 62.8636 515.045 65.6667 515.045 68.8182V113H504.318ZM551.943 113V43.1818H562.67V113H551.943ZM557.398 31.5455C555.307 31.5455 553.504 30.8333 551.989 29.4091C550.504 27.9848 549.761 26.2727 549.761 24.2727C549.761 22.2727 550.504 20.5606 551.989 19.1364C553.504 17.7121 555.307 17 557.398 17C559.489 17 561.277 17.7121 562.761 19.1364C564.277 20.5606 565.034 22.2727 565.034 24.2727C565.034 26.2727 564.277 27.9848 562.761 29.4091C561.277 30.8333 559.489 31.5455 557.398 31.5455ZM602.864 114.636C598.439 114.636 594.424 113.803 590.818 112.136C587.212 110.439 584.348 108 582.227 104.818C580.106 101.606 579.045 97.7273 579.045 93.1818C579.045 89.1818 579.833 85.9394 581.409 83.4545C582.985 80.9394 585.091 78.9697 587.727 77.5455C590.364 76.1212 593.273 75.0606 596.455 74.3636C599.667 73.6364 602.894 73.0606 606.136 72.6364C610.379 72.0909 613.818 71.6818 616.455 71.4091C619.121 71.1061 621.061 70.6061 622.273 69.9091C623.515 69.2121 624.136 68 624.136 66.2727V65.9091C624.136 61.4242 622.909 57.9394 620.455 55.4545C618.03 52.9697 614.348 51.7273 609.409 51.7273C604.288 51.7273 600.273 52.8485 597.364 55.0909C594.455 57.3333 592.409 59.7273 591.227 62.2727L581.045 58.6364C582.864 54.3939 585.288 51.0909 588.318 48.7273C591.379 46.3333 594.712 44.6667 598.318 43.7273C601.955 42.7576 605.53 42.2727 609.045 42.2727C611.288 42.2727 613.864 42.5455 616.773 43.0909C619.712 43.6061 622.545 44.6818 625.273 46.3182C628.03 47.9545 630.318 50.4242 632.136 53.7273C633.955 57.0303 634.864 61.4545 634.864 67V113H624.136V103.545H623.591C622.864 105.061 621.652 106.682 619.955 108.409C618.258 110.136 616 111.606 613.182 112.818C610.364 114.03 606.924 114.636 602.864 114.636ZM604.5 105C608.742 105 612.318 104.167 615.227 102.5C618.167 100.833 620.379 98.6818 621.864 96.0455C623.379 93.4091 624.136 90.6364 624.136 87.7273V77.9091C623.682 78.4545 622.682 78.9545 621.136 79.4091C619.621 79.8333 617.864 80.2121 615.864 80.5455C613.894 80.8485 611.97 81.1212 610.091 81.3636C608.242 81.5758 606.742 81.7576 605.591 81.9091C602.803 82.2727 600.197 82.8636 597.773 83.6818C595.379 84.4697 593.439 85.6667 591.955 87.2727C590.5 88.8485 589.773 91 589.773 93.7273C589.773 97.4545 591.152 100.273 593.909 102.182C596.697 104.061 600.227 105 604.5 105ZM662.261 113.727C660.019 113.727 658.095 112.924 656.489 111.318C654.883 109.712 654.08 107.788 654.08 105.545C654.08 103.303 654.883 101.379 656.489 99.7727C658.095 98.1667 660.019 97.3636 662.261 97.3636C664.504 97.3636 666.428 98.1667 668.034 99.7727C669.64 101.379 670.443 103.303 670.443 105.545C670.443 107.03 670.064 108.394 669.307 109.636C668.58 110.879 667.595 111.879 666.352 112.636C665.14 113.364 663.777 113.727 662.261 113.727ZM689.693 113V43.1818H700.42V113H689.693ZM695.148 31.5455C693.057 31.5455 691.254 30.8333 689.739 29.4091C688.254 27.9848 687.511 26.2727 687.511 24.2727C687.511 22.2727 688.254 20.5606 689.739 19.1364C691.254 17.7121 693.057 17 695.148 17C697.239 17 699.027 17.7121 700.511 19.1364C702.027 20.5606 702.784 22.2727 702.784 24.2727C702.784 26.2727 702.027 27.9848 700.511 29.4091C699.027 30.8333 697.239 31.5455 695.148 31.5455ZM748.432 114.455C742.129 114.455 736.598 112.955 731.841 109.955C727.114 106.955 723.417 102.758 720.75 97.3636C718.114 91.9697 716.795 85.6667 716.795 78.4545C716.795 71.1818 718.114 64.8333 720.75 59.4091C723.417 53.9848 727.114 49.7727 731.841 46.7727C736.598 43.7727 742.129 42.2727 748.432 42.2727C754.735 42.2727 760.25 43.7727 764.977 46.7727C769.735 49.7727 773.432 53.9848 776.068 59.4091C778.735 64.8333 780.068 71.1818 780.068 78.4545C780.068 85.6667 778.735 91.9697 776.068 97.3636C773.432 102.758 769.735 106.955 764.977 109.955C760.25 112.955 754.735 114.455 748.432 114.455ZM748.432 104.818C753.22 104.818 757.159 103.591 760.25 101.136C763.341 98.6818 765.629 95.4545 767.114 91.4545C768.598 87.4545 769.341 83.1212 769.341 78.4545C769.341 73.7879 768.598 69.4394 767.114 65.4091C765.629 61.3788 763.341 58.1212 760.25 55.6364C757.159 53.1515 753.22 51.9091 748.432 51.9091C743.644 51.9091 739.705 53.1515 736.614 55.6364C733.523 58.1212 731.235 61.3788 729.75 65.4091C728.265 69.4394 727.523 73.7879 727.523 78.4545C727.523 83.1212 728.265 87.4545 729.75 91.4545C731.235 95.4545 733.523 98.6818 736.614 101.136C739.705 103.591 743.644 104.818 748.432 104.818Z" fill="white"/>
<path d="M15.6818 110L15.1556 110.85L15.1619 110.854L15.6818 110ZM4.45455 97.4545L3.55411 97.8896L3.5571 97.8957L4.45455 97.4545ZM4.45455 59.7273L3.55325 59.2941L3.55224 59.2962L4.45455 59.7273ZM15.4545 46.9091L16.0005 47.7469L16.0018 47.7461L15.4545 46.9091ZM42.7727 44.0909L43.0962 43.1447L43.0962 43.1447L42.7727 44.0909ZM52.4545 50L51.7706 50.7295L51.7747 50.7333L52.4545 50ZM59.4091 60.7273L60.3415 60.3657L60.3415 60.3657L59.4091 60.7273ZM62 81.7273V82.7273H63V81.7273H62ZM8.18182 81.7273H7.18182V82.7273H8.18182V81.7273ZM8.18182 72.4545V71.4545H7.18182V72.4545H8.18182ZM51.0909 72.4545V73.4545H52.0909V72.4545H51.0909ZM48.7273 61.9091L47.8328 62.3563L47.8364 62.3633L48.7273 61.9091ZM42.0909 54.5909L41.5593 55.4379L41.5633 55.4404L42.0909 54.5909ZM20.9091 55.0909L21.4694 55.9192L21.4712 55.918L20.9091 55.0909ZM13.7727 63.2727L12.8767 62.8287L12.8767 62.8287L13.7727 63.2727ZM14 93.6818L13.1041 94.1261L13.1086 94.135L14 93.6818ZM21.6818 102L21.1779 102.864L21.184 102.867L21.6818 102ZM40.7273 103.636L41.0548 104.581L41.062 104.579L40.7273 103.636ZM46.6818 100L47.3757 100.72L47.3824 100.714L46.6818 100ZM50.5455 93.9091L50.8157 92.9463L49.9316 92.6981L49.6091 93.558L50.5455 93.9091ZM60.9091 96.8182L61.8642 97.1146L62.1688 96.1331L61.1794 95.8554L60.9091 96.8182ZM55.4091 106.091L56.1244 106.79L56.1284 106.786L55.4091 106.091ZM45.8636 112.273L46.2221 113.206L46.2286 113.204L45.8636 112.273ZM33.0909 113.455C26.514 113.455 20.8979 112.004 16.2018 109.146L15.1619 110.854C20.2233 113.935 26.2132 115.455 33.0909 115.455V113.455ZM16.208 109.15C11.5271 106.253 7.90969 102.217 5.35199 97.0134L3.5571 97.8957C6.27213 103.419 10.1395 107.747 15.1556 110.85L16.208 109.15ZM5.35496 97.0195C2.82594 91.785 1.54545 85.6661 1.54545 78.6364H-0.454545C-0.454545 85.9097 0.871028 92.3362 3.55413 97.8896L5.35496 97.0195ZM1.54545 78.6364C1.54545 71.607 2.82583 65.4559 5.35685 60.1584L3.55224 59.2962C0.87114 64.9078 -0.454545 71.3627 -0.454545 78.6364H1.54545ZM5.35584 60.1605C7.91999 54.8259 11.4698 50.6992 16.0005 47.7469L14.9086 46.0713C10.0454 49.2402 6.26183 53.659 3.55326 59.2941L5.35584 60.1605ZM16.0018 47.7461C20.5479 44.7736 25.868 43.2727 32 43.2727V41.2727C25.5259 41.2727 19.8158 42.8627 14.9073 46.0721L16.0018 47.7461ZM32 43.2727C35.523 43.2727 39.0047 43.8595 42.4492 45.0371L43.0962 43.1447C39.4498 41.8981 35.7498 41.2727 32 41.2727V43.2727ZM42.4492 45.0371C45.852 46.2005 48.9582 48.0929 51.7706 50.7295L53.1385 49.2705C50.1327 46.4526 46.7843 44.4056 43.0962 43.1447L42.4492 45.0371ZM51.7747 50.7333C54.552 53.3082 56.7933 56.7472 58.4767 61.0888L60.3415 60.3657C58.5704 55.7982 56.1752 52.0858 53.1344 49.2667L51.7747 50.7333ZM58.4767 61.0888C60.1463 65.3945 61 70.7483 61 77.1818H63C63 70.585 62.1265 64.9692 60.3415 60.3657L58.4767 61.0888ZM61 77.1818V81.7273H63V77.1818H61ZM62 80.7273H8.18182V82.7273H62V80.7273ZM9.18182 81.7273V72.4545H7.18182V81.7273H9.18182ZM8.18182 73.4545H51.0909V71.4545H8.18182V73.4545ZM52.0909 72.4545C52.0909 68.3788 51.2748 64.7045 49.6182 61.4549L47.8364 62.3633C49.3312 65.2955 50.0909 68.6515 50.0909 72.4545H52.0909ZM49.6217 61.4619C47.9952 58.209 45.6577 55.6289 42.6185 53.7414L41.5633 55.4404C44.2817 57.1287 46.3684 59.4274 47.8328 62.3563L49.6217 61.4619ZM42.6225 53.7439C39.5915 51.8415 36.0374 50.9091 32 50.9091V52.9091C35.7202 52.9091 38.8933 53.7646 41.5593 55.4379L42.6225 53.7439ZM32 50.9091C27.5542 50.9091 23.6553 52.0155 20.347 54.2638L21.4712 55.918C24.4053 53.9239 27.9003 52.9091 32 52.9091V50.9091ZM20.3488 54.2626C17.1137 56.451 14.6197 59.3111 12.8767 62.8287L14.6688 63.7167C16.2591 60.5071 18.5226 57.9126 21.4694 55.9192L20.3488 54.2626ZM12.8767 62.8287C11.1399 66.3339 10.2727 70.0924 10.2727 74.0909H12.2727C12.2727 70.3924 13.0722 66.9388 14.6688 63.7167L12.8767 62.8287ZM10.2727 74.0909V80.2727H12.2727V74.0909H10.2727ZM10.2727 80.2727C10.2727 85.6566 11.2006 90.2874 13.1041 94.1261L14.8959 93.2376C13.163 89.7429 12.2727 85.4343 12.2727 80.2727H10.2727ZM13.1086 94.135C15.0371 97.9289 17.7265 100.85 21.1779 102.864L22.1857 101.136C19.0917 99.3314 16.6598 96.7075 14.8914 93.2287L13.1086 94.135ZM21.184 102.867C24.6295 104.845 28.6091 105.818 33.0909 105.818V103.818C28.906 103.818 25.2796 102.912 22.1797 101.133L21.184 102.867ZM33.0909 105.818C36.0019 105.818 38.6604 105.411 41.0548 104.581L40.3997 102.692C38.2487 103.437 35.8163 103.818 33.0909 103.818V105.818ZM41.062 104.579C43.4916 103.716 45.6008 102.43 47.3757 100.72L45.9879 99.2799C44.4295 100.782 42.569 101.921 40.3925 102.694L41.062 104.579ZM47.3824 100.714C49.164 98.9644 50.5271 96.8061 51.4818 94.2602L49.6091 93.558C48.7456 95.8606 47.533 97.7629 45.9812 99.2864L47.3824 100.714ZM50.2752 94.8719L60.6388 97.781L61.1794 95.8554L50.8157 92.9463L50.2752 94.8719ZM59.954 96.5218C58.9098 99.8864 57.1577 102.841 54.6898 105.396L56.1284 106.786C58.812 104.007 60.7265 100.78 61.8642 97.1146L59.954 96.5218ZM54.6938 105.392C52.2269 107.917 49.1685 109.903 45.4987 111.342L46.2286 113.204C50.1346 111.673 53.4397 109.538 56.1244 106.79L54.6938 105.392ZM45.5052 111.339C41.8489 112.743 37.7155 113.455 33.0909 113.455V115.455C37.9208 115.455 42.3026 114.711 46.2221 113.206L45.5052 111.339ZM89.0455 113V114H90.0455V113H89.0455ZM78.3182 113H77.3182V114H78.3182V113ZM78.3182 43.1818V42.1818H77.3182V43.1818H78.3182ZM88.6818 43.1818H89.6818V42.1818H88.6818V43.1818ZM88.6818 54.0909H87.6818V55.0909H88.6818V54.0909ZM89.5909 54.0909V55.0909H90.2307L90.4989 54.51L89.5909 54.0909ZM97.0455 45.5455L97.5878 46.3857L97.5931 46.3822L97.0455 45.5455ZM122.364 45.1818L121.884 46.0592L121.89 46.0623L122.364 45.1818ZM130.636 53.9091L129.743 54.3591L129.745 54.3619L130.636 53.9091ZM133.591 113V114H134.591V113H133.591ZM122.864 113H121.864V114H122.864V113ZM118.591 56.5455L117.856 57.2231L117.859 57.2267L118.591 56.5455ZM97.6818 54.1364L97.1995 53.2603L97.1953 53.2627L97.6818 54.1364ZM91.3636 60.6364L90.4847 60.1595L90.4847 60.1595L91.3636 60.6364ZM88.0455 71V113H90.0455V71H88.0455ZM89.0455 112H78.3182V114H89.0455V112ZM79.3182 113V43.1818H77.3182V113H79.3182ZM78.3182 44.1818H88.6818V42.1818H78.3182V44.1818ZM87.6818 43.1818V54.0909H89.6818V43.1818H87.6818ZM88.6818 55.0909H89.5909V53.0909H88.6818V55.0909ZM90.4989 54.51C92.0544 51.1396 94.4111 48.436 97.5878 46.3856L96.5032 44.7053C93.0132 46.9579 90.4001 49.9513 88.683 53.6718L90.4989 54.51ZM97.5931 46.3822C100.719 44.3363 104.815 43.2727 109.955 43.2727V41.2727C104.549 41.2727 100.039 42.391 96.4978 44.7088L97.5931 46.3822ZM109.955 43.2727C114.543 43.2727 118.509 44.2129 121.884 46.0591L122.844 44.3045C119.128 42.2719 114.821 41.2727 109.955 41.2727V43.2727ZM121.89 46.0623C125.239 47.8657 127.857 50.6163 129.743 54.3591L131.529 53.4591C129.476 49.3837 126.579 46.3161 122.838 44.3013L121.89 46.0623ZM129.745 54.3619C131.622 58.0587 132.591 62.7998 132.591 68.6364H134.591C134.591 62.5942 133.59 57.5171 131.528 53.4563L129.745 54.3619ZM132.591 68.6364V113H134.591V68.6364H132.591ZM133.591 112H122.864V114H133.591V112ZM123.864 113V69.3636H121.864V113H123.864ZM123.864 69.3636C123.864 63.707 122.392 59.1617 119.323 55.8642L117.859 57.2267C120.487 60.0505 121.864 64.0506 121.864 69.3636H123.864ZM119.326 55.8678C116.254 52.5339 112.057 50.9091 106.864 50.9091V52.9091C111.609 52.9091 115.231 54.3752 117.856 57.2231L119.326 55.8678ZM106.864 50.9091C103.29 50.9091 100.06 51.6853 97.1995 53.2604L98.1641 55.0124C100.697 53.6177 103.589 52.9091 106.864 52.9091V50.9091ZM97.1953 53.2627C94.3524 54.8457 92.1148 57.1549 90.4847 60.1595L92.2426 61.1132C93.7034 58.4208 95.6779 56.3968 98.1683 55.01L97.1953 53.2627ZM90.4847 60.1595C88.8421 63.1869 88.0455 66.8142 88.0455 71H90.0455C90.0455 67.0646 90.7942 63.7828 92.2426 61.1132L90.4847 60.1595ZM184.284 43.1818H185.284V42.1818H184.284V43.1818ZM184.284 52.2727V53.2727H185.284V52.2727H184.284ZM146.648 52.2727H145.648V53.2727H146.648V52.2727ZM146.648 43.1818V42.1818H145.648V43.1818H146.648ZM157.92 113H156.92V114H157.92V113ZM160.739 23.5454L159.921 22.9695L159.921 22.9695L160.739 23.5454ZM168.057 17.5454L167.651 16.6316L167.651 16.6316L168.057 17.5454ZM184.011 16.1818L183.765 17.1509L183.765 17.1509L184.011 16.1818ZM187.739 17.3636L188.687 17.6799L188.974 16.8186L188.145 16.4498L187.739 17.3636ZM184.648 26.6364L184.331 27.585L185.28 27.9013L185.596 26.9526L184.648 26.6364ZM182.375 25.9545L182.096 26.9149L182.104 26.9172L182.375 25.9545ZM170.966 28.2273L170.216 27.566L170.209 27.5733L170.966 28.2273ZM168.648 113V114H169.648V113H168.648ZM183.284 43.1818V52.2727H185.284V43.1818H183.284ZM184.284 51.2727H146.648V53.2727H184.284V51.2727ZM147.648 52.2727V43.1818H145.648V52.2727H147.648ZM146.648 44.1818H184.284V42.1818H146.648V44.1818ZM158.92 113V33.5455H156.92V113H158.92ZM158.92 33.5455C158.92 29.7044 159.821 26.5846 161.556 24.1214L159.921 22.9695C157.899 25.8397 156.92 29.3865 156.92 33.5455H158.92ZM161.556 24.1214C163.33 21.6034 165.627 19.7197 168.463 18.4593L167.651 16.6316C164.487 18.0379 161.905 20.1541 159.921 22.9695L161.556 24.1214ZM168.463 18.4593C171.333 17.1836 174.361 16.5454 177.557 16.5454V14.5454C174.086 14.5454 170.781 15.2406 167.651 16.6316L168.463 18.4593ZM177.557 16.5454C180.149 16.5454 182.209 16.755 183.765 17.1509L184.258 15.2127C182.48 14.7601 180.237 14.5454 177.557 14.5454V16.5454ZM183.765 17.1509C185.417 17.5714 186.593 17.9489 187.332 18.2774L188.145 16.4498C187.248 16.0511 185.939 15.6407 184.258 15.2127L183.765 17.1509ZM186.79 17.0474L183.699 26.3201L185.596 26.9526L188.687 17.6799L186.79 17.0474ZM184.964 25.6877C184.396 25.4985 183.621 25.2662 182.646 24.9919L182.104 26.9172C183.068 27.1883 183.808 27.4106 184.331 27.585L184.964 25.6877ZM182.654 24.9942C181.587 24.6845 180.24 24.5454 178.648 24.5454V26.5454C180.147 26.5454 181.284 26.6791 182.096 26.9149L182.654 24.9942ZM178.648 24.5454C174.957 24.5454 172.058 25.4755 170.216 27.5661L171.716 28.8885C173.025 27.4033 175.248 26.5454 178.648 26.5454V24.5454ZM170.209 27.5733C168.448 29.6108 167.648 32.5046 167.648 36.0909H169.648C169.648 32.7681 170.393 30.4195 171.722 28.8812L170.209 27.5733ZM167.648 36.0909V113H169.648V36.0909H167.648ZM168.648 112H157.92V114H168.648V112ZM208.307 110L207.781 110.85L207.787 110.854L208.307 110ZM197.08 97.4545L196.179 97.8896L196.182 97.8957L197.08 97.4545ZM197.08 59.7273L196.178 59.2941L196.177 59.2962L197.08 59.7273ZM208.08 46.9091L208.625 47.7469L208.627 47.7461L208.08 46.9091ZM235.398 44.0909L235.721 43.1447L235.721 43.1447L235.398 44.0909ZM245.08 50L244.396 50.7295L244.4 50.7333L245.08 50ZM252.034 60.7273L252.966 60.3657L252.966 60.3657L252.034 60.7273ZM254.625 81.7273V82.7273H255.625V81.7273H254.625ZM200.807 81.7273H199.807V82.7273H200.807V81.7273ZM200.807 72.4545V71.4545H199.807V72.4545H200.807ZM243.716 72.4545V73.4545H244.716V72.4545H243.716ZM241.352 61.9091L240.458 62.3563L240.461 62.3633L241.352 61.9091ZM234.716 54.5909L234.184 55.4379L234.188 55.4404L234.716 54.5909ZM213.534 55.0909L214.094 55.9192L214.096 55.918L213.534 55.0909ZM206.398 63.2727L205.502 62.8287L205.502 62.8287L206.398 63.2727ZM206.625 93.6818L205.729 94.1261L205.734 94.135L206.625 93.6818ZM214.307 102L213.803 102.864L213.809 102.867L214.307 102ZM233.352 103.636L233.68 104.581L233.687 104.579L233.352 103.636ZM239.307 100L240.001 100.72L240.007 100.714L239.307 100ZM243.17 93.9091L243.441 92.9463L242.557 92.6981L242.234 93.558L243.17 93.9091ZM253.534 96.8182L254.489 97.1146L254.794 96.1331L253.804 95.8554L253.534 96.8182ZM248.034 106.091L248.749 106.79L248.753 106.786L248.034 106.091ZM238.489 112.273L238.847 113.206L238.854 113.204L238.489 112.273ZM225.716 113.455C219.139 113.455 213.523 112.004 208.827 109.146L207.787 110.854C212.848 113.935 218.838 115.455 225.716 115.455V113.455ZM208.833 109.15C204.152 106.253 200.535 102.217 197.977 97.0134L196.182 97.8957C198.897 103.419 202.765 107.747 207.781 110.85L208.833 109.15ZM197.98 97.0195C195.451 91.785 194.17 85.6661 194.17 78.6364H192.17C192.17 85.9097 193.496 92.3362 196.179 97.8896L197.98 97.0195ZM194.17 78.6364C194.17 71.607 195.451 65.4559 197.982 60.1584L196.177 59.2962C193.496 64.9078 192.17 71.3627 192.17 78.6364H194.17ZM197.981 60.1605C200.545 54.8259 204.095 50.6992 208.625 47.7469L207.534 46.0713C202.67 49.2402 198.887 53.659 196.178 59.2941L197.981 60.1605ZM208.627 47.7461C213.173 44.7736 218.493 43.2727 224.625 43.2727V41.2727C218.151 41.2727 212.441 42.8627 207.532 46.0721L208.627 47.7461ZM224.625 43.2727C228.148 43.2727 231.63 43.8595 235.074 45.0371L235.721 43.1447C232.075 41.8981 228.375 41.2727 224.625 41.2727V43.2727ZM235.074 45.0371C238.477 46.2005 241.583 48.0929 244.396 50.7295L245.763 49.2705C242.758 46.4526 239.409 44.4056 235.721 43.1447L235.074 45.0371ZM244.4 50.7333C247.177 53.3082 249.418 56.7472 251.102 61.0888L252.966 60.3657C251.195 55.7982 248.8 52.0858 245.759 49.2667L244.4 50.7333ZM251.102 61.0888C252.771 65.3945 253.625 70.7483 253.625 77.1818H255.625C255.625 70.585 254.751 64.9692 252.966 60.3657L251.102 61.0888ZM253.625 77.1818V81.7273H255.625V77.1818H253.625ZM254.625 80.7273H200.807V82.7273H254.625V80.7273ZM201.807 81.7273V72.4545H199.807V81.7273H201.807ZM200.807 73.4545H243.716V71.4545H200.807V73.4545ZM244.716 72.4545C244.716 68.3788 243.9 64.7045 242.243 61.4549L240.461 62.3633C241.956 65.2955 242.716 68.6515 242.716 72.4545H244.716ZM242.247 61.4619C240.62 58.209 238.283 55.6289 235.243 53.7414L234.188 55.4404C236.907 57.1287 238.993 59.4274 240.458 62.3563L242.247 61.4619ZM235.248 53.7439C232.217 51.8415 228.662 50.9091 224.625 50.9091V52.9091C228.345 52.9091 231.518 53.7646 234.184 55.4379L235.248 53.7439ZM224.625 50.9091C220.179 50.9091 216.28 52.0155 212.972 54.2638L214.096 55.918C217.03 53.9239 220.525 52.9091 224.625 52.9091V50.9091ZM212.974 54.2626C209.739 56.451 207.245 59.3111 205.502 62.8287L207.294 63.7167C208.884 60.5071 211.148 57.9126 214.094 55.9192L212.974 54.2626ZM205.502 62.8287C203.765 66.3339 202.898 70.0924 202.898 74.0909H204.898C204.898 70.3924 205.697 66.9388 207.294 63.7167L205.502 62.8287ZM202.898 74.0909V80.2727H204.898V74.0909H202.898ZM202.898 80.2727C202.898 85.6566 203.826 90.2874 205.729 94.1261L207.521 93.2376C205.788 89.7429 204.898 85.4343 204.898 80.2727H202.898ZM205.734 94.135C207.662 97.9289 210.351 100.85 213.803 102.864L214.811 101.136C211.717 99.3314 209.285 96.7075 207.516 93.2287L205.734 94.135ZM213.809 102.867C217.254 104.845 221.234 105.818 225.716 105.818V103.818C221.531 103.818 217.905 102.912 214.805 101.133L213.809 102.867ZM225.716 105.818C228.627 105.818 231.285 105.411 233.68 104.581L233.025 102.692C230.874 103.437 228.441 103.818 225.716 103.818V105.818ZM233.687 104.579C236.117 103.716 238.226 102.43 240.001 100.72L238.613 99.2799C237.054 100.782 235.194 101.921 233.018 102.694L233.687 104.579ZM240.007 100.714C241.789 98.9644 243.152 96.8061 244.107 94.2602L242.234 93.558C241.371 95.8606 240.158 97.7629 238.606 99.2864L240.007 100.714ZM242.9 94.8719L253.264 97.781L253.804 95.8554L243.441 92.9463L242.9 94.8719ZM252.579 96.5218C251.535 99.8864 249.783 102.841 247.315 105.396L248.753 106.786C251.437 104.007 253.352 100.78 254.489 97.1146L252.579 96.5218ZM247.319 105.392C244.852 107.917 241.793 109.903 238.124 111.342L238.854 113.204C242.76 111.673 246.065 109.538 248.749 106.79L247.319 105.392ZM238.13 111.339C234.474 112.743 230.341 113.455 225.716 113.455V115.455C230.546 115.455 234.928 114.711 238.847 113.206L238.13 111.339ZM270.943 113H269.943V114H270.943V113ZM270.943 43.1818V42.1818H269.943V43.1818H270.943ZM281.307 43.1818H282.307V42.1818H281.307V43.1818ZM281.307 53.7273H280.307V54.7273H281.307V53.7273ZM282.034 53.7273V54.7273H282.731L282.972 54.073L282.034 53.7273ZM288.943 45.3182L288.401 44.478L288.401 44.478L288.943 45.3182ZM305.852 42.2727H306.852V41.3677L305.952 41.2777L305.852 42.2727ZM305.852 53.1818L305.61 54.152L306.852 54.4626V53.1818H305.852ZM303.352 52.7727L303.188 53.7591L303.201 53.7613L303.214 53.7631L303.352 52.7727ZM290.216 54.5909L290.683 55.475L290.687 55.473L290.216 54.5909ZM283.943 60.4091L283.094 59.8809L283.092 59.8838L283.943 60.4091ZM281.67 113V114H282.67V113H281.67ZM271.943 113V43.1818H269.943V113H271.943ZM270.943 44.1818H281.307V42.1818H270.943V44.1818ZM280.307 43.1818V53.7273H282.307V43.1818H280.307ZM281.307 54.7273H282.034V52.7273H281.307V54.7273ZM282.972 54.073C284.164 50.838 286.319 48.202 289.485 46.1584L288.401 44.478C284.9 46.7374 282.449 49.7075 281.096 53.3816L282.972 54.073ZM289.485 46.1584C292.648 44.1169 296.216 43.0909 300.216 43.0909V41.0909C295.853 41.0909 291.905 42.2164 288.401 44.478L289.485 46.1584ZM300.216 43.0909C300.992 43.0909 301.968 43.1059 303.145 43.136L303.196 41.1367C302.009 41.1063 301.015 41.0909 300.216 41.0909V43.0909ZM303.145 43.136C304.32 43.1662 305.184 43.2109 305.753 43.2678L305.952 41.2777C305.308 41.2133 304.384 41.1672 303.196 41.1367L303.145 43.136ZM304.852 42.2727V53.1818H306.852V42.2727H304.852ZM306.095 52.2117C305.669 52.1052 304.779 51.9621 303.49 51.7823L303.214 53.7631C304.532 53.947 305.308 54.0766 305.61 54.152L306.095 52.2117ZM303.517 51.7863C302.184 51.5643 300.781 51.4545 299.307 51.4545V53.4545C300.682 53.4545 301.975 53.5569 303.188 53.7591L303.517 51.7863ZM299.307 51.4545C295.769 51.4545 292.573 52.1981 289.745 53.7088L290.687 55.473C293.192 54.1353 296.057 53.4545 299.307 53.4545V51.4545ZM289.748 53.7069C286.959 55.1819 284.735 57.2428 283.094 59.881L284.792 60.9372C286.242 58.6057 288.2 56.7878 290.683 55.4749L289.748 53.7069ZM283.092 59.8838C281.471 62.5107 280.67 65.4989 280.67 68.8182H282.67C282.67 65.8344 283.385 63.2166 284.794 60.9344L283.092 59.8838ZM280.67 68.8182V113H282.67V68.8182H280.67ZM281.67 112H270.943V114H281.67V112ZM318.568 113H317.568V114H318.568V113ZM318.568 43.1818V42.1818H317.568V43.1818H318.568ZM328.932 43.1818H329.932V42.1818H328.932V43.1818ZM328.932 54.0909H327.932V55.0909H328.932V54.0909ZM329.841 54.0909V55.0909H330.524L330.772 54.4545L329.841 54.0909ZM336.886 45.4091L337.423 46.2531L337.428 46.2495L336.886 45.4091ZM360.068 45.4091L359.504 46.2348L359.513 46.2411L360.068 45.4091ZM367.295 54.0909L366.388 54.5114L366.657 55.0909H367.295V54.0909ZM368.023 54.0909V55.0909H368.643L368.919 54.5351L368.023 54.0909ZM376.068 45.5L376.578 46.3601L376.584 46.3569L376.068 45.5ZM404.25 48.1364L403.548 48.8489L403.551 48.8516L404.25 48.1364ZM410.205 113V114H411.205V113H410.205ZM399.477 113H398.477V114H399.477V113ZM395.25 55.2273L394.633 56.0139L394.633 56.0139L395.25 55.2273ZM373.886 56.3636L374.623 57.0397L374.627 57.0359L373.886 56.3636ZM369.841 113V114H370.841V113H369.841ZM358.932 113H357.932V114H358.932V113ZM355.068 55.5909L354.378 56.3149L354.383 56.3191L355.068 55.5909ZM337.295 54.1364L336.773 53.2836L336.768 53.2866L337.295 54.1364ZM331.477 60.3182L330.606 59.8274L330.604 59.8308L331.477 60.3182ZM329.295 113V114H330.295V113H329.295ZM319.568 113V43.1818H317.568V113H319.568ZM318.568 44.1818H328.932V42.1818H318.568V44.1818ZM327.932 43.1818V54.0909H329.932V43.1818H327.932ZM328.932 55.0909H329.841V53.0909H328.932V55.0909ZM330.772 54.4545C332.153 50.9165 334.368 48.1947 337.423 46.2531L336.35 44.5651C332.92 46.7447 330.438 49.8108 328.909 53.7274L330.772 54.4545ZM337.428 46.2495C340.482 44.2802 344.18 43.2727 348.568 43.2727V41.2727C343.865 41.2727 339.775 42.3562 336.344 44.5687L337.428 46.2495ZM348.568 43.2727C353.022 43.2727 356.646 44.2823 359.504 46.2348L360.632 44.5834C357.369 42.354 353.326 41.2727 348.568 41.2727V43.2727ZM359.513 46.2411C362.435 48.189 364.73 50.9329 366.388 54.5114L368.203 53.6704C366.407 49.7944 363.883 46.7504 360.623 44.577L359.513 46.2411ZM367.295 55.0909H368.023V53.0909H367.295V55.0909ZM368.919 54.5351C370.618 51.1079 373.163 48.3862 376.578 46.3601L375.558 44.6399C371.822 46.8562 369.003 49.8618 367.127 53.6467L368.919 54.5351ZM376.584 46.3569C379.976 44.316 384.077 43.2727 388.932 43.2727V41.2727C383.786 41.2727 379.312 42.3809 375.553 44.6431L376.584 46.3569ZM388.932 43.2727C394.946 43.2727 399.789 45.1469 403.548 48.8489L404.952 47.4238C400.772 43.3077 395.402 41.2727 388.932 41.2727V43.2727ZM403.551 48.8516C407.252 52.4681 409.205 58.2011 409.205 66.2727H411.205C411.205 57.9201 409.187 51.5622 404.949 47.4211L403.551 48.8516ZM409.205 66.2727V113H411.205V66.2727H409.205ZM410.205 112H399.477V114H410.205V112ZM400.477 113V66.2727H398.477V113H400.477ZM400.477 66.2727C400.477 60.9548 399.02 56.9149 395.867 54.4407L394.633 56.0139C397.117 57.9639 398.477 61.2876 398.477 66.2727H400.477ZM395.867 54.4407C392.861 52.0809 389.322 50.9091 385.295 50.9091V52.9091C388.905 52.9091 392.003 53.9494 394.633 56.0139L395.867 54.4407ZM385.295 50.9091C380.173 50.9091 376.074 52.4673 373.146 55.6913L374.627 57.0359C377.093 54.3205 380.6 52.9091 385.295 52.9091V50.9091ZM373.15 55.6876C370.261 58.836 368.841 62.8154 368.841 67.5455H370.841C370.841 63.2452 372.118 59.77 374.623 57.0397L373.15 55.6876ZM368.841 67.5455V113H370.841V67.5455H368.841ZM369.841 112H358.932V114H369.841V112ZM359.932 113V65.1818H357.932V113H359.932ZM359.932 65.1818C359.932 60.9736 358.556 57.5 355.754 54.8627L354.383 56.3191C356.732 58.5303 357.932 61.4507 357.932 65.1818H359.932ZM355.758 54.867C352.97 52.2099 349.392 50.9091 345.114 50.9091V52.9091C348.957 52.9091 352.015 54.0628 354.378 56.3148L355.758 54.867ZM345.114 50.9091C342.138 50.9091 339.351 51.7045 336.773 53.2836L337.818 54.9891C340.088 53.5986 342.514 52.9091 345.114 52.9091V50.9091ZM336.768 53.2866C334.221 54.8667 332.167 57.0555 330.606 59.8274L332.349 60.8089C333.757 58.3081 335.582 56.3757 337.823 54.9862L336.768 53.2866ZM330.604 59.8308C329.055 62.6066 328.295 65.7942 328.295 69.3636H330.295C330.295 66.0846 330.991 63.2419 332.35 60.8055L330.604 59.8308ZM328.295 69.3636V113H330.295V69.3636H328.295ZM329.295 112H318.568V114H329.295V112ZM441.682 110L441.156 110.85L441.162 110.854L441.682 110ZM430.455 97.4545L429.554 97.8896L429.557 97.8957L430.455 97.4545ZM430.455 59.7273L429.553 59.2941L429.552 59.2962L430.455 59.7273ZM441.455 46.9091L442 47.7469L442.002 47.7461L441.455 46.9091ZM468.773 44.0909L469.096 43.1447L469.096 43.1447L468.773 44.0909ZM478.455 50L477.771 50.7295L477.775 50.7333L478.455 50ZM485.409 60.7273L486.341 60.3657L486.341 60.3657L485.409 60.7273ZM488 81.7273V82.7273H489V81.7273H488ZM434.182 81.7273H433.182V82.7273H434.182V81.7273ZM434.182 72.4545V71.4545H433.182V72.4545H434.182ZM477.091 72.4545V73.4545H478.091V72.4545H477.091ZM474.727 61.9091L473.833 62.3563L473.836 62.3633L474.727 61.9091ZM468.091 54.5909L467.559 55.4379L467.563 55.4404L468.091 54.5909ZM446.909 55.0909L447.469 55.9192L447.471 55.918L446.909 55.0909ZM439.773 63.2727L438.877 62.8287L438.877 62.8287L439.773 63.2727ZM440 93.6818L439.104 94.1261L439.109 94.135L440 93.6818ZM447.682 102L447.178 102.864L447.184 102.867L447.682 102ZM466.727 103.636L467.055 104.581L467.062 104.579L466.727 103.636ZM472.682 100L473.376 100.72L473.382 100.714L472.682 100ZM476.545 93.9091L476.816 92.9463L475.932 92.6981L475.609 93.558L476.545 93.9091ZM486.909 96.8182L487.864 97.1146L488.169 96.1331L487.179 95.8554L486.909 96.8182ZM481.409 106.091L482.124 106.79L482.128 106.786L481.409 106.091ZM471.864 112.273L472.222 113.206L472.229 113.204L471.864 112.273ZM459.091 113.455C452.514 113.455 446.898 112.004 442.202 109.146L441.162 110.854C446.223 113.935 452.213 115.455 459.091 115.455V113.455ZM442.208 109.15C437.527 106.253 433.91 102.217 431.352 97.0134L429.557 97.8957C432.272 103.419 436.14 107.747 441.156 110.85L442.208 109.15ZM431.355 97.0195C428.826 91.785 427.545 85.6661 427.545 78.6364H425.545C425.545 85.9097 426.871 92.3362 429.554 97.8896L431.355 97.0195ZM427.545 78.6364C427.545 71.607 428.826 65.4559 431.357 60.1584L429.552 59.2962C426.871 64.9078 425.545 71.3627 425.545 78.6364H427.545ZM431.356 60.1605C433.92 54.8259 437.47 50.6992 442 47.7469L440.909 46.0713C436.045 49.2402 432.262 53.659 429.553 59.2941L431.356 60.1605ZM442.002 47.7461C446.548 44.7736 451.868 43.2727 458 43.2727V41.2727C451.526 41.2727 445.816 42.8627 440.907 46.0721L442.002 47.7461ZM458 43.2727C461.523 43.2727 465.005 43.8595 468.449 45.0371L469.096 43.1447C465.45 41.8981 461.75 41.2727 458 41.2727V43.2727ZM468.449 45.0371C471.852 46.2005 474.958 48.0929 477.771 50.7295L479.138 49.2705C476.133 46.4526 472.784 44.4056 469.096 43.1447L468.449 45.0371ZM477.775 50.7333C480.552 53.3082 482.793 56.7472 484.477 61.0888L486.341 60.3657C484.57 55.7982 482.175 52.0858 479.134 49.2667L477.775 50.7333ZM484.477 61.0888C486.146 65.3945 487 70.7483 487 77.1818H489C489 70.585 488.126 64.9692 486.341 60.3657L484.477 61.0888ZM487 77.1818V81.7273H489V77.1818H487ZM488 80.7273H434.182V82.7273H488V80.7273ZM435.182 81.7273V72.4545H433.182V81.7273H435.182ZM434.182 73.4545H477.091V71.4545H434.182V73.4545ZM478.091 72.4545C478.091 68.3788 477.275 64.7045 475.618 61.4549L473.836 62.3633C475.331 65.2955 476.091 68.6515 476.091 72.4545H478.091ZM475.622 61.4619C473.995 58.209 471.658 55.6289 468.618 53.7414L467.563 55.4404C470.282 57.1287 472.368 59.4274 473.833 62.3563L475.622 61.4619ZM468.623 53.7439C465.592 51.8415 462.037 50.9091 458 50.9091V52.9091C461.72 52.9091 464.893 53.7646 467.559 55.4379L468.623 53.7439ZM458 50.9091C453.554 50.9091 449.655 52.0155 446.347 54.2638L447.471 55.918C450.405 53.9239 453.9 52.9091 458 52.9091V50.9091ZM446.349 54.2626C443.114 56.451 440.62 59.3111 438.877 62.8287L440.669 63.7167C442.259 60.5071 444.523 57.9126 447.469 55.9192L446.349 54.2626ZM438.877 62.8287C437.14 66.3339 436.273 70.0924 436.273 74.0909H438.273C438.273 70.3924 439.072 66.9388 440.669 63.7167L438.877 62.8287ZM436.273 74.0909V80.2727H438.273V74.0909H436.273ZM436.273 80.2727C436.273 85.6566 437.201 90.2874 439.104 94.1261L440.896 93.2376C439.163 89.7429 438.273 85.4343 438.273 80.2727H436.273ZM439.109 94.135C441.037 97.9289 443.726 100.85 447.178 102.864L448.186 101.136C445.092 99.3314 442.66 96.7075 440.891 93.2287L439.109 94.135ZM447.184 102.867C450.629 104.845 454.609 105.818 459.091 105.818V103.818C454.906 103.818 451.28 102.912 448.18 101.133L447.184 102.867ZM459.091 105.818C462.002 105.818 464.66 105.411 467.055 104.581L466.4 102.692C464.249 103.437 461.816 103.818 459.091 103.818V105.818ZM467.062 104.579C469.492 103.716 471.601 102.43 473.376 100.72L471.988 99.2799C470.429 100.782 468.569 101.921 466.393 102.694L467.062 104.579ZM473.382 100.714C475.164 98.9644 476.527 96.8061 477.482 94.2602L475.609 93.558C474.746 95.8606 473.533 97.7629 471.981 99.2864L473.382 100.714ZM476.275 94.8719L486.639 97.781L487.179 95.8554L476.816 92.9463L476.275 94.8719ZM485.954 96.5218C484.91 99.8864 483.158 102.841 480.69 105.396L482.128 106.786C484.812 104.007 486.727 100.78 487.864 97.1146L485.954 96.5218ZM480.694 105.392C478.227 107.917 475.168 109.903 471.499 111.342L472.229 113.204C476.135 111.673 479.44 109.538 482.124 106.79L480.694 105.392ZM471.505 111.339C467.849 112.743 463.716 113.455 459.091 113.455V115.455C463.921 115.455 468.303 114.711 472.222 113.206L471.505 111.339ZM504.318 113H503.318V114H504.318V113ZM504.318 43.1818V42.1818H503.318V43.1818H504.318ZM514.682 43.1818H515.682V42.1818H514.682V43.1818ZM514.682 53.7273H513.682V54.7273H514.682V53.7273ZM515.409 53.7273V54.7273H516.106L516.347 54.073L515.409 53.7273ZM522.318 45.3182L521.776 44.478L521.776 44.478L522.318 45.3182ZM539.227 42.2727H540.227V41.3677L539.327 41.2777L539.227 42.2727ZM539.227 53.1818L538.985 54.152L540.227 54.4626V53.1818H539.227ZM536.727 52.7727L536.563 53.7591L536.576 53.7613L536.589 53.7631L536.727 52.7727ZM523.591 54.5909L524.058 55.475L524.062 55.473L523.591 54.5909ZM517.318 60.4091L516.469 59.8809L516.467 59.8838L517.318 60.4091ZM515.045 113V114H516.045V113H515.045ZM505.318 113V43.1818H503.318V113H505.318ZM504.318 44.1818H514.682V42.1818H504.318V44.1818ZM513.682 43.1818V53.7273H515.682V43.1818H513.682ZM514.682 54.7273H515.409V52.7273H514.682V54.7273ZM516.347 54.073C517.539 50.838 519.694 48.202 522.86 46.1584L521.776 44.478C518.275 46.7374 515.824 49.7075 514.471 53.3816L516.347 54.073ZM522.86 46.1584C526.023 44.1169 529.591 43.0909 533.591 43.0909V41.0909C529.228 41.0909 525.28 42.2164 521.776 44.478L522.86 46.1584ZM533.591 43.0909C534.367 43.0909 535.343 43.1059 536.52 43.136L536.571 41.1367C535.384 41.1063 534.39 41.0909 533.591 41.0909V43.0909ZM536.52 43.136C537.695 43.1662 538.559 43.2109 539.128 43.2678L539.327 41.2777C538.683 41.2133 537.759 41.1672 536.571 41.1367L536.52 43.136ZM538.227 42.2727V53.1818H540.227V42.2727H538.227ZM539.47 52.2117C539.044 52.1052 538.154 51.9621 536.865 51.7823L536.589 53.7631C537.907 53.947 538.683 54.0766 538.985 54.152L539.47 52.2117ZM536.892 51.7863C535.559 51.5643 534.156 51.4545 532.682 51.4545V53.4545C534.057 53.4545 535.35 53.5569 536.563 53.7591L536.892 51.7863ZM532.682 51.4545C529.144 51.4545 525.948 52.1981 523.12 53.7088L524.062 55.473C526.567 54.1353 529.432 53.4545 532.682 53.4545V51.4545ZM523.123 53.7069C520.334 55.1819 518.11 57.2428 516.469 59.881L518.167 60.9372C519.617 58.6057 521.575 56.7878 524.058 55.4749L523.123 53.7069ZM516.467 59.8838C514.846 62.5107 514.045 65.4989 514.045 68.8182H516.045C516.045 65.8344 516.76 63.2166 518.169 60.9344L516.467 59.8838ZM514.045 68.8182V113H516.045V68.8182H514.045ZM515.045 112H504.318V114H515.045V112ZM551.943 113H550.943V114H551.943V113ZM551.943 43.1818V42.1818H550.943V43.1818H551.943ZM562.67 43.1818H563.67V42.1818H562.67V43.1818ZM562.67 113V114H563.67V113H562.67ZM551.989 29.4091L551.296 30.1308L551.304 30.1377L551.989 29.4091ZM551.989 19.1364L551.304 18.4077L551.296 18.4147L551.989 19.1364ZM562.761 19.1364L562.069 19.8581L562.076 19.865L562.761 19.1364ZM562.761 29.4091L562.076 28.6804L562.069 28.6874L562.761 29.4091ZM552.943 113V43.1818H550.943V113H552.943ZM551.943 44.1818H562.67V42.1818H551.943V44.1818ZM561.67 43.1818V113H563.67V43.1818H561.67ZM562.67 112H551.943V114H562.67V112ZM557.398 30.5455C555.56 30.5455 554.002 29.9293 552.674 28.6805L551.304 30.1377C553.005 31.7374 555.054 32.5455 557.398 32.5455V30.5455ZM552.681 28.6874C551.386 27.4457 550.761 25.9916 550.761 24.2727H548.761C548.761 26.5539 549.621 28.524 551.296 30.1308L552.681 28.6874ZM550.761 24.2727C550.761 22.5539 551.386 21.0998 552.681 19.858L551.296 18.4147C549.621 20.0214 548.761 21.9916 548.761 24.2727H550.761ZM552.674 19.865C554.002 18.6161 555.56 18 557.398 18V16C555.054 16 553.005 16.8081 551.304 18.4077L552.674 19.865ZM557.398 18C559.235 18 560.774 18.6156 562.069 19.858L563.454 18.4147C561.779 16.8086 559.742 16 557.398 16V18ZM562.076 19.865C563.4 21.1087 564.034 22.5608 564.034 24.2727H566.034C566.034 21.9847 565.153 20.0125 563.446 18.4077L562.076 19.865ZM564.034 24.2727C564.034 25.9847 563.4 27.4368 562.076 28.6805L563.446 30.1377C565.153 28.5329 566.034 26.5608 566.034 24.2727H564.034ZM562.069 28.6874C560.774 29.9298 559.235 30.5455 557.398 30.5455V32.5455C559.742 32.5455 561.779 31.7368 563.454 30.1308L562.069 28.6874ZM590.818 112.136L590.392 113.041L590.399 113.044L590.818 112.136ZM582.227 104.818L581.393 105.369L581.395 105.373L582.227 104.818ZM581.409 83.4545L582.254 83.9901L582.257 83.9855L581.409 83.4545ZM596.455 74.3636L596.669 75.3405L596.675 75.3389L596.455 74.3636ZM606.136 72.6364L606.009 71.6445L606.007 71.6448L606.136 72.6364ZM616.455 71.4091L616.557 72.4038L616.567 72.4027L616.455 71.4091ZM622.273 69.9091L621.783 69.0369L621.774 69.0422L622.273 69.9091ZM620.455 55.4545L619.739 56.1529L619.743 56.1573L620.455 55.4545ZM597.364 55.0909L597.974 55.8829L597.974 55.8829L597.364 55.0909ZM591.227 62.2727L590.891 63.2145L591.75 63.5213L592.134 62.6938L591.227 62.2727ZM581.045 58.6364L580.126 58.2424L579.707 59.2203L580.709 59.5781L581.045 58.6364ZM588.318 48.7273L588.933 49.5158L588.934 49.5149L588.318 48.7273ZM598.318 43.7273L598.57 44.695L598.576 44.6935L598.318 43.7273ZM616.773 43.0909L616.588 44.0738L616.6 44.0759L616.773 43.0909ZM625.273 46.3182L624.758 47.1757L624.762 47.1782L625.273 46.3182ZM632.136 53.7273L631.26 54.2095L631.26 54.2095L632.136 53.7273ZM634.864 113V114H635.864V113H634.864ZM624.136 113H623.136V114H624.136V113ZM624.136 103.545H625.136V102.545H624.136V103.545ZM623.591 103.545V102.545H622.962L622.689 103.113L623.591 103.545ZM619.955 108.409L620.668 109.11L620.668 109.11L619.955 108.409ZM613.182 112.818L612.787 111.9L612.787 111.9L613.182 112.818ZM615.227 102.5L614.734 101.63L614.73 101.632L615.227 102.5ZM621.864 96.0455L620.997 95.5472L620.992 95.5547L621.864 96.0455ZM624.136 77.9091H625.136V75.147L623.368 77.2689L624.136 77.9091ZM621.136 79.4091L621.406 80.3721L621.419 80.3685L621.136 79.4091ZM615.864 80.5455L616.016 81.5339L616.028 81.5318L615.864 80.5455ZM610.091 81.3636L610.205 82.3572L610.219 82.3554L610.091 81.3636ZM605.591 81.9091L605.72 82.9007L605.721 82.9005L605.591 81.9091ZM597.773 83.6818L598.085 84.6317L598.093 84.6293L597.773 83.6818ZM591.955 87.2727L591.22 86.5939L591.22 86.5944L591.955 87.2727ZM593.909 102.182L593.34 103.004L593.35 103.011L593.909 102.182ZM602.864 113.636C598.568 113.636 594.698 112.828 591.238 111.229L590.399 113.044C594.15 114.778 598.311 115.636 602.864 115.636V113.636ZM591.244 111.232C587.795 109.609 585.075 107.287 583.059 104.263L581.395 105.373C583.622 108.713 586.629 111.27 590.392 113.041L591.244 111.232ZM583.062 104.267C581.067 101.246 580.045 97.5674 580.045 93.1818H578.045C578.045 97.8871 579.145 101.966 581.393 105.369L583.062 104.267ZM580.045 93.1818C580.045 89.3054 580.81 86.2669 582.254 83.9901L580.565 82.919C578.857 85.6119 578.045 89.0582 578.045 93.1818H580.045ZM582.257 83.9855C583.74 81.6183 585.717 79.7682 588.203 78.4253L587.252 76.6656C584.465 78.1712 582.23 80.2605 580.562 82.9236L582.257 83.9855ZM588.203 78.4253C590.75 77.0491 593.57 76.0192 596.669 75.3405L596.241 73.3868C592.975 74.102 589.977 75.1933 587.252 76.6656L588.203 78.4253ZM596.675 75.3389C599.858 74.6184 603.054 74.0481 606.266 73.6279L606.007 71.6448C602.733 72.0731 599.476 72.6543 596.234 73.3883L596.675 75.3389ZM606.264 73.6282C610.502 73.0832 613.933 72.6753 616.557 72.4038L616.352 70.4144C613.704 70.6883 610.255 71.0986 606.009 71.6445L606.264 73.6282ZM616.567 72.4027C619.268 72.0958 621.376 71.5784 622.771 70.776L621.774 69.0422C620.745 69.6338 618.974 70.1163 616.342 70.4155L616.567 72.4027ZM622.762 70.7812C624.392 69.8669 625.136 68.2708 625.136 66.2727H623.136C623.136 67.7292 622.638 68.5573 621.783 69.0369L622.762 70.7812ZM625.136 66.2727V65.9091H623.136V66.2727H625.136ZM625.136 65.9091C625.136 61.2392 623.854 57.4729 621.166 54.7518L619.743 56.1573C621.964 58.4059 623.136 61.6093 623.136 65.9091H625.136ZM621.17 54.7562C618.49 52.0091 614.503 50.7273 609.409 50.7273V52.7273C614.194 52.7273 617.57 53.9303 619.739 56.1529L621.17 54.7562ZM609.409 50.7273C604.152 50.7273 599.895 51.8774 596.753 54.2989L597.974 55.8829C600.651 53.8196 604.423 52.7273 609.409 52.7273V50.7273ZM596.753 54.2989C593.755 56.6101 591.587 59.1226 590.32 61.8516L592.134 62.6938C593.231 60.332 595.154 58.0565 597.974 55.8829L596.753 54.2989ZM591.564 61.331L581.382 57.6946L580.709 59.5781L590.891 63.2145L591.564 61.331ZM581.965 59.0303C583.73 54.9119 586.06 51.7567 588.933 49.5158L587.703 47.9388C584.515 50.4251 581.998 53.876 580.126 58.2424L581.965 59.0303ZM588.934 49.5149C591.892 47.2016 595.102 45.5984 598.57 44.695L598.066 42.7596C594.322 43.7349 590.866 45.4651 587.702 47.9396L588.934 49.5149ZM598.576 44.6935C602.134 43.7446 605.623 43.2727 609.045 43.2727V41.2727C605.437 41.2727 601.775 41.7705 598.061 42.761L598.576 44.6935ZM609.045 43.2727C611.21 43.2727 613.722 43.5363 616.588 44.0738L616.957 42.108C614.005 41.5546 611.366 41.2727 609.045 41.2727V43.2727ZM616.6 44.0759C619.411 44.5685 622.129 45.5982 624.758 47.1757L625.787 45.4607C622.962 43.7654 620.013 42.6436 616.945 42.1059L616.6 44.0759ZM624.762 47.1782C627.341 48.7086 629.513 51.035 631.26 54.2095L633.012 53.245C631.123 49.8135 628.719 47.2005 625.783 45.4582L624.762 47.1782ZM631.26 54.2095C632.968 57.3114 633.864 61.5494 633.864 67H635.864C635.864 61.3597 634.941 56.7492 633.012 53.245L631.26 54.2095ZM633.864 67V113H635.864V67H633.864ZM634.864 112H624.136V114H634.864V112ZM625.136 113V103.545H623.136V113H625.136ZM624.136 102.545H623.591V104.545H624.136V102.545ZM622.689 103.113C622.026 104.496 620.892 106.028 619.241 107.708L620.668 109.11C622.411 107.336 623.702 105.626 624.492 103.978L622.689 103.113ZM619.241 107.708C617.656 109.322 615.516 110.726 612.787 111.9L613.577 113.737C616.484 112.487 618.859 110.951 620.668 109.11L619.241 107.708ZM612.787 111.9C610.127 113.044 606.83 113.636 602.864 113.636V115.636C607.018 115.636 610.601 115.017 613.577 113.737L612.787 111.9ZM604.5 106C608.871 106 612.629 105.141 615.724 103.368L614.73 101.632C612.008 103.192 608.614 104 604.5 104V106ZM615.721 103.37C618.799 101.624 621.151 99.3489 622.735 96.5362L620.992 95.5547C619.607 98.0147 617.534 100.042 614.734 101.63L615.721 103.37ZM622.731 96.5437C624.329 93.7629 625.136 90.8193 625.136 87.7273H623.136C623.136 90.4534 622.429 93.0553 620.997 95.5472L622.731 96.5437ZM625.136 87.7273V77.9091H623.136V87.7273H625.136ZM623.368 77.2689C623.265 77.3923 623.038 77.5789 622.598 77.7988C622.169 78.0135 621.593 78.2325 620.854 78.4497L621.419 80.3685C622.226 80.1311 622.922 79.8729 623.493 79.5876C624.053 79.3075 624.553 78.9713 624.905 78.5493L623.368 77.2689ZM620.867 78.4461C619.394 78.8584 617.673 79.23 615.699 79.5591L616.028 81.5318C618.054 81.1942 619.848 80.8083 621.406 80.3721L620.867 78.4461ZM615.712 79.5571C613.749 79.8589 611.833 80.1305 609.963 80.3719L610.219 82.3554C612.106 82.1119 614.038 81.838 616.016 81.5338L615.712 79.5571ZM609.977 80.3702C608.126 80.5826 606.62 80.7651 605.46 80.9176L605.721 82.9005C606.865 82.75 608.359 82.5689 610.205 82.3571L609.977 80.3702ZM605.462 80.9175C602.615 81.2888 599.945 81.8933 597.453 82.7343L598.093 84.6293C600.449 83.8339 602.991 83.2567 605.72 82.9007L605.462 80.9175ZM597.46 82.7319C594.93 83.5647 592.837 84.8453 591.22 86.5939L592.689 87.9516C594.042 86.4881 595.828 85.3747 598.085 84.6317L597.46 82.7319ZM591.22 86.5944C589.552 88.4011 588.773 90.8195 588.773 93.7273H590.773C590.773 91.1805 591.448 89.2958 592.689 87.951L591.22 86.5944ZM588.773 93.7273C588.773 97.74 590.279 100.885 593.34 103.004L594.478 101.36C592.024 99.6604 590.773 97.1691 590.773 93.7273H588.773ZM593.35 103.011C596.343 105.028 600.082 106 604.5 106V104C600.373 104 597.051 103.093 594.468 101.353L593.35 103.011ZM656.489 111.318L657.196 110.611L657.196 110.611L656.489 111.318ZM668.034 99.7727L668.741 99.0656L668.741 99.0656L668.034 99.7727ZM669.307 109.636L668.453 109.116L668.448 109.123L668.444 109.131L669.307 109.636ZM666.352 112.636L666.867 113.494L666.873 113.49L666.352 112.636ZM662.261 112.727C660.288 112.727 658.617 112.032 657.196 110.611L655.782 112.025C657.572 113.816 659.75 114.727 662.261 114.727V112.727ZM657.196 110.611C655.775 109.19 655.08 107.519 655.08 105.545H653.08C653.08 108.057 653.991 110.234 655.782 112.025L657.196 110.611ZM655.08 105.545C655.08 103.572 655.775 101.901 657.196 100.48L655.782 99.0656C653.991 100.857 653.08 103.034 653.08 105.545H655.08ZM657.196 100.48C658.617 99.0586 660.288 98.3636 662.261 98.3636V96.3636C659.75 96.3636 657.572 97.2747 655.782 99.0656L657.196 100.48ZM662.261 98.3636C664.235 98.3636 665.906 99.0586 667.327 100.48L668.741 99.0656C666.95 97.2747 664.773 96.3636 662.261 96.3636V98.3636ZM667.327 100.48C668.748 101.901 669.443 103.572 669.443 105.545H671.443C671.443 103.034 670.532 100.857 668.741 99.0656L667.327 100.48ZM669.443 105.545C669.443 106.851 669.113 108.033 668.453 109.116L670.161 110.157C671.016 108.754 671.443 107.21 671.443 105.545H669.443ZM668.444 109.131C667.801 110.229 666.934 111.11 665.832 111.783L666.873 113.49C668.255 112.647 669.358 111.528 670.17 110.142L668.444 109.131ZM665.838 111.779C664.792 112.406 663.609 112.727 662.261 112.727V114.727C663.944 114.727 665.488 114.321 666.867 113.494L665.838 111.779ZM689.693 113H688.693V114H689.693V113ZM689.693 43.1818V42.1818H688.693V43.1818H689.693ZM700.42 43.1818H701.42V42.1818H700.42V43.1818ZM700.42 113V114H701.42V113H700.42ZM689.739 29.4091L689.046 30.1308L689.054 30.1377L689.739 29.4091ZM689.739 19.1364L689.054 18.4077L689.046 18.4147L689.739 19.1364ZM700.511 19.1364L699.819 19.8581L699.826 19.865L700.511 19.1364ZM700.511 29.4091L699.826 28.6804L699.819 28.6874L700.511 29.4091ZM690.693 113V43.1818H688.693V113H690.693ZM689.693 44.1818H700.42V42.1818H689.693V44.1818ZM699.42 43.1818V113H701.42V43.1818H699.42ZM700.42 112H689.693V114H700.42V112ZM695.148 30.5455C693.31 30.5455 691.752 29.9293 690.424 28.6805L689.054 30.1377C690.755 31.7374 692.804 32.5455 695.148 32.5455V30.5455ZM690.431 28.6874C689.136 27.4457 688.511 25.9916 688.511 24.2727H686.511C686.511 26.5539 687.371 28.524 689.046 30.1308L690.431 28.6874ZM688.511 24.2727C688.511 22.5539 689.136 21.0998 690.431 19.858L689.046 18.4147C687.371 20.0214 686.511 21.9916 686.511 24.2727H688.511ZM690.424 19.865C691.752 18.6161 693.31 18 695.148 18V16C692.804 16 690.755 16.8081 689.054 18.4077L690.424 19.865ZM695.148 18C696.985 18 698.524 18.6156 699.819 19.858L701.204 18.4147C699.529 16.8086 697.492 16 695.148 16V18ZM699.826 19.865C701.15 21.1087 701.784 22.5608 701.784 24.2727H703.784C703.784 21.9847 702.903 20.0125 701.196 18.4077L699.826 19.865ZM701.784 24.2727C701.784 25.9847 701.15 27.4368 699.826 28.6805L701.196 30.1377C702.903 28.5329 703.784 26.5608 703.784 24.2727H701.784ZM699.819 28.6874C698.524 29.9298 696.985 30.5455 695.148 30.5455V32.5455C697.492 32.5455 699.529 31.7368 701.204 30.1308L699.819 28.6874ZM731.841 109.955L731.305 110.799L731.308 110.8L731.841 109.955ZM720.75 97.3636L719.852 97.8028L719.854 97.8068L720.75 97.3636ZM720.75 59.4091L719.853 58.9679L719.851 58.972L720.75 59.4091ZM731.841 46.7727L731.308 45.9269L731.305 45.9284L731.841 46.7727ZM764.977 46.7727L764.441 47.6171L764.444 47.6186L764.977 46.7727ZM776.068 59.4091L775.169 59.8462L775.171 59.8503L776.068 59.4091ZM776.068 97.3636L775.172 96.9205L775.17 96.9245L776.068 97.3636ZM764.977 109.955L764.444 109.109L764.441 109.11L764.977 109.955ZM760.25 101.136L759.628 100.353L759.628 100.353L760.25 101.136ZM767.114 91.4545L768.051 91.8026L768.051 91.8026L767.114 91.4545ZM767.114 65.4091L768.052 65.0634L768.052 65.0634L767.114 65.4091ZM760.25 55.6364L760.877 54.857L760.877 54.857L760.25 55.6364ZM736.614 55.6364L735.987 54.857L735.987 54.857L736.614 55.6364ZM729.75 65.4091L728.812 65.0634L728.812 65.0634L729.75 65.4091ZM729.75 91.4545L728.813 91.8026L728.813 91.8026L729.75 91.4545ZM736.614 101.136L737.236 100.353L737.236 100.353L736.614 101.136ZM748.432 113.455C742.294 113.455 736.953 111.996 732.374 109.109L731.308 110.8C736.244 113.913 741.963 115.455 748.432 115.455V113.455ZM732.377 109.11C727.816 106.216 724.238 102.163 721.646 96.9205L719.854 97.8068C722.595 103.352 726.412 107.693 731.305 110.799L732.377 109.11ZM721.648 96.9245C719.091 91.6921 717.795 85.5447 717.795 78.4545H715.795C715.795 85.7886 717.136 92.2473 719.852 97.8028L721.648 96.9245ZM717.795 78.4545C717.795 71.3025 719.091 65.1091 721.649 59.8462L719.851 58.972C717.136 64.5576 715.795 71.0611 715.795 78.4545H717.795ZM721.647 59.8503C724.24 54.5775 727.817 50.5107 732.377 47.6171L731.305 45.9284C726.41 49.0348 722.594 53.3922 719.853 58.9679L721.647 59.8503ZM732.374 47.6186C736.953 44.7311 742.294 43.2727 748.432 43.2727V41.2727C741.963 41.2727 736.244 42.8143 731.308 45.9269L732.374 47.6186ZM748.432 43.2727C754.57 43.2727 759.894 44.7311 764.441 47.6171L765.513 45.9284C760.606 42.8143 754.9 41.2727 748.432 41.2727V43.2727ZM764.444 47.6186C769.032 50.5119 772.608 54.5771 775.169 59.8462L776.968 58.972C774.256 53.3926 770.437 49.0335 765.511 45.9269L764.444 47.6186ZM775.171 59.8503C777.758 65.1121 779.068 71.3041 779.068 78.4545H781.068C781.068 71.0596 779.712 64.5546 776.966 58.9679L775.171 59.8503ZM779.068 78.4545C779.068 85.5431 777.758 91.6891 775.172 96.9205L776.965 97.8068C779.712 92.2503 781.068 85.7902 781.068 78.4545H779.068ZM775.17 96.9245C772.609 102.163 769.034 106.214 764.444 109.109L765.511 110.8C770.436 107.695 774.254 103.352 776.967 97.8028L775.17 96.9245ZM764.441 109.11C759.894 111.996 754.57 113.455 748.432 113.455V115.455C754.9 115.455 760.606 113.913 765.513 110.799L764.441 109.11ZM748.432 105.818C753.396 105.818 757.569 104.543 760.872 101.919L759.628 100.353C756.749 102.639 753.044 103.818 748.432 103.818V105.818ZM760.872 101.919C764.117 99.3422 766.508 95.9593 768.051 91.8026L766.176 91.1065C764.749 94.9498 762.565 98.0214 759.628 100.353L760.872 101.919ZM768.051 91.8026C769.581 87.6812 770.341 83.2289 770.341 78.4545H768.341C768.341 83.0136 767.616 87.2279 766.176 91.1065L768.051 91.8026ZM770.341 78.4545C770.341 73.6801 769.581 69.2136 768.052 65.0634L766.175 65.7548C767.616 69.6652 768.341 73.8956 768.341 78.4545H770.341ZM768.052 65.0634C766.51 60.8776 764.12 57.4648 760.877 54.857L759.623 56.4157C762.561 58.7776 764.748 61.88 766.175 65.7548L768.052 65.0634ZM760.877 54.857C757.573 52.2015 753.399 50.9091 748.432 50.9091V52.9091C753.041 52.9091 756.745 54.1016 759.623 56.4157L760.877 54.857ZM748.432 50.9091C743.465 50.9091 739.29 52.2015 735.987 54.857L737.24 56.4157C740.119 54.1016 743.823 52.9091 748.432 52.9091V50.9091ZM735.987 54.857C732.743 57.4648 730.354 60.8776 728.812 65.0634L730.688 65.7548C732.116 61.88 734.302 58.7776 737.24 56.4157L735.987 54.857ZM728.812 65.0634C727.283 69.2136 726.523 73.6801 726.523 78.4545H728.523C728.523 73.8956 729.248 69.6652 730.688 65.7548L728.812 65.0634ZM726.523 78.4545C726.523 83.2289 727.283 87.6812 728.813 91.8026L730.687 91.1065C729.248 87.2279 728.523 83.0136 728.523 78.4545H726.523ZM728.813 91.8026C730.356 95.9593 732.746 99.3422 735.992 101.919L737.236 100.353C734.299 98.0214 732.114 94.9498 730.687 91.1065L728.813 91.8026ZM735.992 101.919C739.295 104.543 743.468 105.818 748.432 105.818V103.818C743.82 103.818 740.114 102.639 737.236 100.353L735.992 101.919Z" fill="white"/>
<path d="M683.762 14.213C681.981 16.5706 681 19.5233 681 22.5269C681 29.9277 686.765 35.9483 693.851 35.9483H694.5L697.492 18.5472L694.5 0L683.762 14.213Z" fill="#FF479A"/>
<path d="M705.34 14.2334L695 0V36H695.625C702.449 36 708 29.9705 708 22.5594C708 19.5515 707.056 16.5946 705.34 14.2334V14.2334Z" fill="#FF1A81"/>
<path d="M545.762 14.213C543.981 16.5706 543 19.5233 543 22.5269C543 29.9277 548.765 35.9483 555.851 35.9483H556.5L559.492 18.5472L556.5 0L545.762 14.213Z" fill="#FF479A"/>
<path d="M567.34 14.2334L557 0V36H557.625C564.449 36 570 29.9705 570 22.5594C570 19.5515 569.056 16.5946 567.34 14.2334V14.2334Z" fill="#FF1A81"/>
</svg>
