<?xml version="1.0"?>
<svg xmlns="http://www.w3.org/2000/svg" xmlns:xlink="http://www.w3.org/1999/xlink" xmlns:svgjs="http://svgjs.com/svgjs" version="1.1" width="512" height="512" x="0" y="0" viewBox="0 0 512 512" style="enable-background:new 0 0 512 512" xml:space="preserve" class=""><g><g xmlns="http://www.w3.org/2000/svg"><g><path d="m241 0v86.667h15l7.429-43.334-7.429-43.333z" fill="#f8f8f8" data-original="#a8a8a8" style="" class=""/><path d="m256 0h15v86.667h-15z" fill="#e7e7e7" data-original="#808080" style="" class=""/></g><g><path d="m133.955 449.823-7.388-5.769c-48.04-37.51-71.288-98.096-60.672-158.114l21.719-122.792c8.413-47.567 49.58-82.091 97.886-82.091v30c-33.727 0-62.47 24.105-68.345 57.317l-21.719 122.791c-8.677 49.059 10.327 98.582 49.594 129.243l7.389 5.769z" fill="#f8f8f8" data-original="#6e6e6e" style="" class=""/></g><g><path d="m378.046 449.822-18.465-23.645 7.388-5.769c39.269-30.662 58.271-80.185 49.595-129.244l-21.719-122.792c-5.874-33.212-34.617-57.317-68.345-57.317v-30c48.306 0 89.473 34.524 97.886 82.092l21.719 122.791c10.616 60.018-12.632 120.604-60.672 158.114z" fill="#f8f8f8" data-original="#464646" style="" class=""/></g><g><g><path d="m262.391 417.652h-73.436v-80.432h73.436z" fill="#1714ab" data-original="#d0b9a4" style="" class=""/></g></g><g><g><path d="m323.045 417.652h-67.045v-80.432h67.045z" fill="#080580" data-original="#ba9779" style="" class=""/></g></g><path d="m188.952 128-3.302 4.001c-52.892 64.111-52.892 157.175 0 221.287l3.302 4.001h67.048v-229.289z" fill="#f8f8f8" data-original="#fbf2e0" style="" class=""/><path d="m326.35 132.001-3.301-4.001h-67.049v229.289h67.049l3.302-4.001c52.892-64.111 52.892-157.176-.001-221.287z" fill="#e7e7e7" data-original="#ebd5ae" style="" class=""/><g><g><path d="m227.456 42.591c-28.21 0-51.078 22.869-51.078 51.078v50.642h79.622l15-43.894-15-57.826z" fill="#1714ab" data-original="#804e2b" style="" class=""/><path d="m284.545 42.591h-28.545v101.72h79.623v-50.642c0-28.21-22.868-51.078-51.078-51.078z" fill="#080580" data-original="#4f2f25" style="" class=""/><path d="m256 399.652h-94.972l-26.841 32.327v65.021h132.186z" fill="#1714ab" data-original="#804e2b" style="" class=""/><path d="m350.972 399.652h-94.972v97.348h121.813v-65.021z" fill="#080580" data-original="#4f2f25" style="" class=""/><g><path d="m110.5 482h155.873v30h-155.873z" fill="#080580" data-original="#4f2f25" style="" class=""/></g><g><path d="m256 482h145.5v30h-145.5z" fill="#080580" data-original="#31160f" style="" class=""/></g></g></g><g><path d="m217.65 282.962c-6.362 8.062-9.866 18.159-9.866 28.43 0 25.308 20.589 45.896 45.896 45.896h2.32l10.687-59.505-10.687-63.424z" fill="#e64e4e" data-original="#ecbd2c" style="" class=""/></g><path d="m294.351 282.962-38.351-48.603v122.93h2.319c25.308 0 45.896-20.589 45.896-45.896.001-10.271-3.503-20.368-9.864-28.431z" fill="#c93535" data-original="#e68f21" style="" class=""/></g></g></svg>
