<?xml version="1.0" encoding="UTF-8" standalone="no"?>
<!DOCTYPE svg PUBLIC "-//W3C//DTD SVG 1.1//EN" "http://www.w3.org/Graphics/SVG/1.1/DTD/svg11.dtd">
<svg version="1.1" xmlns="http://www.w3.org/2000/svg" xmlns:xlink="http://www.w3.org/1999/xlink" preserveAspectRatio="xMidYMid meet" viewBox="0 0 640 640" width="640" height="640"><defs><path d="M38.41 378.43C29.63 373.5 22.09 365.39 30.65 360.09C58.35 344.13 279.93 216.41 307.63 200.44C311.79 197.87 318.09 196.19 322.32 198.64C351.29 215.45 583.1 349.97 612.08 366.78C620.86 371.88 622.44 386.14 613.68 391.24C587.39 406.25 377.11 526.29 350.83 541.29C339.59 547.82 325.74 547.91 314.41 541.55C259.21 508.92 66.01 394.74 38.41 378.43Z" id="d5Xoz2j8V"></path><path d="M223.65 279.26C122.22 335.9 65.88 367.37 54.61 373.66C54.61 373.66 75.55 382.64 109.84 402.99C119.39 394.95 167.14 354.76 253.09 282.42" id="aQ7ETDtfV"></path><linearGradient id="gradientc186ZaZo" gradientUnits="userSpaceOnUse" x1="98.91" y1="374.69" x2="222.9" y2="273.41"><stop style="stop-color: #080580;stop-opacity: 1" offset="1%"></stop><stop style="stop-color: #282860;stop-opacity: 1" offset="100%"></stop></linearGradient><path d="M346.4 422.77C294.28 442.18 265.33 452.96 259.54 455.12C259.54 455.12 268.34 464.29 302.61 484.64C307.8 481.59 333.75 466.34 380.46 438.9" id="bUU6gOD7t"></path><linearGradient id="gradientamqenMnCp" gradientUnits="userSpaceOnUse" x1="292.56" y1="469.41" x2="353.5" y2="419.63"><stop style="stop-color: #080580;stop-opacity: 1" offset="1%"></stop><stop style="stop-color: #282860;stop-opacity: 1" offset="100%"></stop></linearGradient><path d="M296.69 244L240.48 276.1L244.26 284.72L244.26 284.72L296.69 244Z" id="aHNn8Lfml"></path><path d="M231.42 301.68C234.06 299.92 235.53 298.95 235.82 298.75C236.42 298.36 236.76 297.69 236.74 296.98C236.72 296.38 236.58 291.59 236.56 290.99C236.54 290.28 236.88 289.61 237.47 289.22C238.15 288.76 243.56 285.16 244.24 284.7C244.85 284.31 245.2 283.63 245.17 282.91C245 279.93 243.19 277.29 240.46 276.06C239.81 275.73 239.02 275.79 238.42 276.21C237.72 276.67 232.18 280.36 231.49 280.82C230.98 281.16 230.35 281.25 229.76 281.07C229.15 280.89 224.26 279.42 223.65 279.23C223.06 279.06 222.43 279.15 221.92 279.49C221.62 279.68 220.15 280.67 217.49 282.43" id="bX0vK9qNV"></path><path d="M145.95 358.59C197.24 324.44 225.74 305.47 231.44 301.68C231.44 301.68 233.34 286.45 217.52 282.48C212.34 285.93 186.42 303.17 139.78 334.21" id="b5YT2cHDgF"></path><path d="M132.11 364.77C132.26 365.54 132.57 366.27 133.02 366.91C135.12 370.25 139.24 371.71 142.98 370.45C145.62 369.51 147.22 366.82 146.77 364.05C146.44 361.84 143.77 344.15 143.44 341.94C142.93 338.02 140.76 334.52 137.47 332.34C136.18 331.54 134.75 331 133.25 330.74C126.77 329.47 126.77 337.06 126.77 337.06C126.64 337.7 131.09 359.71 132.11 364.77Z" id="fZ6EkAM8o"></path><path d="M111.37 361.99C109.77 359.59 110.17 357.6 112.57 356C123.57 348.68 129.69 344.61 130.91 343.79C133.31 342.2 135.31 342.6 136.9 345C139.98 349.62 141.68 352.18 142.03 352.69C143.62 355.09 143.22 357.09 140.82 358.68C129.82 366.01 123.71 370.08 122.48 370.89C120.09 372.49 118.09 372.09 116.49 369.69C113.42 365.07 111.71 362.51 111.37 361.99Z" id="bCelPHjUS"></path><path d="M118.4 380.8C120.7 379.26 121.98 378.41 122.24 378.24C123.58 377.36 124.42 375.9 124.51 374.3C124.69 371.1 124.02 365.33 118.72 358.83C110.62 348.8 105.6 352.14 105.6 352.14C105.31 352.34 103.85 353.31 101.23 355.06" id="a21f9Sp4B4"></path><path d="M116.88 363.25C121.61 370.37 122.3 378.23 118.41 380.82C114.52 383.41 107.52 379.75 102.79 372.63C98.05 365.52 97.37 357.66 101.26 355.07C105.15 352.47 112.14 356.14 116.88 363.25Z" id="d5B4zslzmH"></path><path d="M157.23 322.85C157.23 322.85 162.45 321.6 166.4 329.6C166.08 329.81 163.52 331.49 163.2 331.7C163.2 331.7 159.34 324.8 152.43 326.05C153.96 324.88 155.56 323.81 157.23 322.85Z" id="dt7Vz9IRa"></path><path d="M170.85 313.79C170.85 313.79 176.14 312.54 180.03 320.42C179.71 320.63 177.15 322.3 176.83 322.51C176.83 322.51 172.96 315.78 166.05 316.99C167.58 315.82 169.18 314.75 170.85 313.79Z" id="g3kuKSFqVz"></path><path d="M184.46 304.72C184.46 304.72 189.76 303.47 193.65 311.34C193.33 311.55 190.77 313.23 190.45 313.44C190.45 313.44 186.59 306.72 179.66 307.92C181.19 306.75 182.8 305.68 184.46 304.72Z" id="ajOAIJuVJ"></path><path d="M198.11 295.5C198.11 295.5 203.41 294.26 207.3 302.13C206.98 302.34 204.42 304.01 204.1 304.22C204.1 304.22 200.24 297.5 193.31 298.7C194.84 297.53 196.44 296.47 198.11 295.5Z" id="b1YDe3ccKv"></path><path d="M212.4 287.25C212.4 287.25 217.7 286 221.58 293.87C221.26 294.08 218.7 295.76 218.38 295.97C218.38 295.97 214.53 289.25 207.6 290.45C209.13 289.28 210.73 288.21 212.4 287.25Z" id="b1imAVDSTW"></path><path d="M362.37 418.7C362.66 419.42 365.12 423.04 372.78 427.54C380.45 432.03 380.88 437.23 376.69 439.55C372.5 441.87 364.38 440.42 359.9 437.38C355.42 434.34 355.42 432.3 350.78 431.44C346.14 430.58 342.98 430 342.53 423.78C342.59 422.62 342.92 416.83 343.52 406.4" id="aNjS0W1AR"></path><path d="M322.14 438.82C322 439.68 321.42 448.94 320.99 452.85C320.56 456.75 320.56 463.41 323.17 466.3C325.56 469.29 329.69 470.25 333.15 468.62C336.77 466.88 337.06 459.79 336.91 455.17C336.77 450.54 335.9 437.95 335.9 437.95" id="b52uyQQh4"></path><path d="M365.89 187.38C367.49 188.21 371.49 223.22 372.19 232.83C372.9 242.45 373.52 269.86 373.52 269.86C372.93 270.18 369.99 271.78 364.69 274.66L358.64 243.95" id="aVgBKbacR"></path><path d="M370.14 282.4C371.1 283.25 368.88 328.7 367.92 341.09C366.96 353.47 361.25 420.56 361.25 420.56C361.25 420.56 352.93 425.01 341.82 415.15C341.82 411.53 341.82 393.39 341.82 360.75L342.26 285.1" id="a2pEKf6hvD"></path><path d="M346.5 300.11C346.5 300.11 345.62 339.34 346.5 347.62C346.5 347.62 341.86 399.25 341.81 408.1C341.81 408.1 338.53 441.44 338.53 441.44C338.53 441.44 327.62 445.57 319.33 439.38C319.33 439.38 317.55 381.42 319.33 371.46C321.1 361.49 321.3 340.83 318.54 332.58C315.79 324.32 311.07 293.04 313.74 282.42" id="d1GAt2F8As"></path><path d="M342.85 373.7C339.81 396.47 338.31 419.42 338.37 442.4C338.37 442.95 338.82 443.4 339.37 443.4C339.92 443.4 340.37 442.95 340.37 442.4C340.31 419.42 341.81 396.47 344.85 373.7C347.7 350.88 347.92 327.86 348.72 304.9C348.8 303.62 346.77 303.62 346.72 304.9C345.92 327.86 345.7 350.86 342.85 373.7Z" id="a2Yb6Dx13"></path><path d="M345.33 307.2C345.33 307.2 314.7 312.78 314.7 312.78C314.51 311.2 312.96 298.54 312.77 296.96C312.77 296.96 344.59 300.5 351.06 296.03C357.52 291.57 373.5 288 373.5 288C367.87 291.84 355.76 303.28 345.33 307.2Z" id="b1oLKBEKgu"></path><path d="M329.6 177.52C338.8 172.29 354.05 166.82 360.21 171.01C366.37 175.2 369.52 197.33 369.52 203.9C369.52 210.48 364.85 220.24 364.72 224.7C364.59 229.17 367.22 240.56 369.52 250.83C371.92 263.07 373.26 275.49 373.52 287.95C373.52 287.95 352.42 305.28 332.8 305.28C313.18 305.28 312.8 296.99 312.8 296.99C312.8 296.99 308.94 272.48 320.96 261.66C332.98 250.85 319.36 216.98 319.36 216.98C319.36 216.98 306.75 200.56 311.02 191.2C316.71 185.99 322.94 181.4 329.6 177.52Z" id="b16Wv0lhqX"></path><path d="M355.06 220.7C354.86 221.26 326.26 203.89 326.26 203.89C326.05 204.04 325.03 204.77 323.2 206.1L323.2 258.24L352.42 274.69L355.01 271.89C355.03 244.59 355.05 227.53 355.06 220.7Z" id="a3tC3cxRzh"></path><path d="M350.59 240.51C351.21 241.09 351.45 241.97 351.2 242.78C352.46 242.87 353.73 242.87 354.99 242.78C354.99 242.57 354.99 240.87 354.99 240.66C354.99 240.66 358.93 242.18 358.64 244C358.64 244 359.09 253.47 357.12 254.58C357.12 254.58 351.2 255.26 348.78 255.39C348.78 255.39 339.18 250.59 339.18 250.59C339.18 250.59 338.46 242.48 342.26 240.51C342.69 240.29 349.54 239.46 350.59 240.51Z" id="biEAxFASR"></path><path d="M342.26 240.51C342.26 240.51 320.42 234.11 317.62 232.99C317.62 232.99 327.22 199.39 320.94 192.58C314.67 185.76 308.53 189.25 304.32 206.22C300.11 223.2 297.6 241.6 301.52 246.11C305.44 250.62 337.71 255.54 340.88 254.58C341.16 251.76 341.98 243.32 342.26 240.51Z" id="e2gtVRBNK"></path><path d="M348.64 169.6C348.64 169.6 348.64 169.6 348.64 169.6C348.64 169.6 350.06 182.61 340.16 178.75C335.95 177.14 331.89 175.19 328 172.91C328 172.39 328 169.78 328 165.07" id="g3i1pwSSS4"></path><path d="M348.8 172.32C337.9 176.53 327.87 156.8 327.86 150.83C327.86 138.3 340.32 139.38 354.9 142.14C353.68 148.18 359.7 168.11 348.8 172.32Z" id="g1yiGqrq9J"></path><path d="M355.92 134.54C352.63 131.82 348.46 130.39 344.19 130.51C340.43 130.52 336.73 131.43 333.39 133.17C326.27 136.88 321.7 143.68 319.28 151.18C318.09 155 317.32 158.94 316.98 162.93C316.61 166.94 316.08 171.74 316.98 175.73C316.98 175.76 316.98 176 316.98 176.03C318.03 180.1 322.37 180.83 325.86 181.87C328.38 182.56 330.95 183.04 333.55 183.31C334.09 183.41 334.63 183.38 335.15 183.22C335.51 183.05 335.83 182.82 336.1 182.53C338.82 179.76 339.91 175.77 338.98 172C338.13 169.39 336.74 166.98 334.9 164.94C333.83 163.93 333.18 162.54 333.09 161.07C333.25 159.04 335.46 157.87 337.42 157.31C339.39 156.75 341.63 156.26 342.67 154.5C343.89 152.4 342.67 149.81 341.95 147.5C341.53 146.22 341.26 144.88 341.14 143.54C340.91 142.58 341.21 141.58 341.92 140.91C342.41 140.64 342.98 140.55 343.52 140.67C345.41 141.02 347.12 142.04 348.32 143.54C349.57 144.94 350.56 146.58 351.79 148C352.64 149.17 353.93 149.96 355.36 150.18C357.57 150.29 359.25 148.13 359.79 145.98C360.07 144.94 360.17 143.86 360.1 142.78C359.81 139.6 358.31 136.66 355.92 134.54Z" id="g654FWArL"></path><path d="M358.78 156.62C358.78 158.98 357.13 160.9 355.09 160.9C353.05 160.9 351.39 158.98 351.39 156.62C351.39 154.26 353.05 152.35 355.09 152.35C357.13 152.35 358.78 154.26 358.78 156.62Z" id="b25nwe83r1"></path><path d="M348.08 157.44C348.08 159.8 346.43 161.71 344.38 161.71C342.34 161.71 340.69 159.8 340.69 157.44C340.69 155.08 342.34 153.17 344.38 153.17C346.43 153.17 348.08 155.08 348.08 157.44Z" id="bkSF6mrr1"></path><path d="M348.7 155.71C348.97 155.63 349.24 155.58 349.52 155.57C349.41 155.04 349.33 154.63 349.31 154.53C349.31 154.11 349.87 153.94 349.94 154.35C350 154.77 350.11 155.22 350.21 155.65C350.22 155.65 350.29 155.65 350.3 155.65C350.75 155.78 352.13 156.56 351.52 157.15C351.38 157.27 351.16 157.25 351.05 157.11C350.98 157.03 350.96 156.93 350.98 156.83C350.84 156.62 350.63 156.45 350.38 156.37C350.51 156.88 350.64 157.38 350.8 157.87C351.2 159.17 352.02 160.46 352.3 161.76C352.51 162.74 351.82 163.07 350.9 163.36C350.72 163.41 350.54 163.31 350.5 163.14C350.45 162.96 350.55 162.78 350.72 162.74C351.86 162.45 351.58 161.84 351.22 160.98C350.85 160.11 350.69 159.66 350.46 158.99C350.24 158.32 349.9 157.2 349.7 156.29C349.5 156.26 349.31 156.26 349.12 156.29C348.9 156.33 348.7 156.39 348.5 156.48C348.51 156.64 348.39 156.78 348.23 156.79C348.19 156.79 348.14 156.79 348.1 156.77C348.1 156.77 348.1 156.77 348.1 156.77C347.91 156.75 347.78 156.58 347.8 156.4C347.8 156.38 347.8 156.37 347.81 156.35C347.81 155.95 348.38 155.82 348.7 155.71Z" id="d5H1LgkyUo"></path><path d="M347.95 165.62C348.13 165.62 348.28 165.76 348.28 165.94C348.28 166.13 348.13 166.27 347.95 166.27C346.24 166.33 344.59 165.64 343.42 164.38C343.14 164.08 343.6 163.62 343.89 163.92C344.93 165.06 346.41 165.68 347.95 165.62Z" id="e4bmEvEK78"></path><path d="M353.6 198.5C354.11 197.98 365.95 191.9 365.95 191.9C365.95 192.12 365.95 193.22 365.95 195.2L353.6 201.71C353.6 200 353.6 198.92 353.6 198.5Z" id="jHDCaTGP"></path><path d="M536.94 367.06C484.83 386.47 455.87 397.25 450.08 399.41C450.08 399.41 458.88 408.58 493.15 428.93C498.34 425.88 524.29 410.63 571.01 383.18" id="e9uQURJaZ"></path><linearGradient id="gradientf9tkoS3pq" gradientUnits="userSpaceOnUse" x1="483.12" y1="413.71" x2="544.06" y2="363.94"><stop style="stop-color: #080580;stop-opacity: 1" offset="1%"></stop><stop style="stop-color: #282860;stop-opacity: 1" offset="100%"></stop></linearGradient><path d="M528.48 289.29C530.81 289.88 531.68 291.35 531.08 293.69C517.74 345.79 510.33 374.73 508.85 380.52C508.25 382.85 506.79 383.72 504.45 383.12C503.8 382.96 503.44 382.86 503.37 382.85C501.03 382.25 500.16 380.78 500.76 378.45C514.1 326.35 521.51 297.4 522.99 291.61C523.59 289.28 525.06 288.41 527.39 289.01C528.04 289.18 528.4 289.27 528.48 289.29Z" id="d1u2v2XFtl"></path><path d="M537.52 299.98C539.93 299.98 541.14 301.19 541.14 303.6C541.14 357.38 541.14 387.26 541.14 393.23C541.14 395.64 539.93 396.85 537.52 396.85C536.85 396.85 536.47 396.85 536.4 396.85C533.99 396.85 532.78 395.64 532.78 393.23C532.78 339.45 532.78 309.58 532.78 303.6C532.78 301.19 533.99 299.98 536.4 299.98C537.07 299.98 537.45 299.98 537.52 299.98Z" id="aenSbdedK"></path><path d="M549.55 288.75C551.9 288.22 553.35 289.13 553.88 291.48C565.79 343.92 572.41 373.06 573.74 378.88C574.27 381.23 573.36 382.68 571.01 383.21C570.36 383.36 569.99 383.44 569.92 383.46C567.57 383.99 566.13 383.08 565.59 380.73C553.68 328.29 547.06 299.16 545.73 293.33C545.2 290.98 546.11 289.54 548.46 289C549.12 288.85 549.48 288.77 549.55 288.75Z" id="b1bfLy9C7S"></path><path d="M573.01 310.98C573.01 322.06 557.09 331.04 537.46 331.04C517.82 331.04 501.9 322.06 501.9 310.98C501.9 299.89 517.82 290.91 537.46 290.91C557.09 290.91 573.01 299.89 573.01 310.98Z" id="a3cqvTgCk"></path><path d="M501.92 310.98L501.92 301.63L573.01 301.63L573.01 310.98" id="bg8jFIjDC"></path><path d="M573.01 301.63C573.01 312.71 557.09 321.7 537.46 321.7C517.82 321.7 501.9 312.71 501.9 301.63C501.9 290.55 517.82 281.57 537.46 281.57C557.09 281.57 573.01 290.55 573.01 301.63Z" id="crZUluf7l"></path><path d="M523.57 253.81C522.98 255.52 522.29 257.18 521.63 258.86C516.83 271.01 512.26 283.17 509.68 296C509.09 298.91 508.35 301.36 510.8 303.62C515.17 307.65 522 309.14 527.63 310.11C539 312.12 550.72 310.63 561.23 305.86C564.85 304.17 566.63 300.04 565.38 296.26C560.72 282.22 549.68 249.6 547.63 249.34C545.04 248.98 537.18 244.8 525.39 250.29C524.27 250.82 523.92 252.77 523.57 253.81Z" id="b6TfaSHpD"></path><path d="M549.14 251.36C549.14 253.86 543.56 255.89 536.69 255.89C529.81 255.89 524.24 253.86 524.24 251.36C524.24 248.86 529.81 246.83 536.69 246.83C543.56 246.83 549.14 248.86 549.14 251.36Z" id="bVmKtaJeS"></path><path d="M526.53 240.45C526.55 240.45 526.72 240.45 526.74 240.45C529.63 239.38 528.93 234.22 528.42 231.94C528.26 231.43 527.72 231.15 527.21 231.31C527 231.38 526.81 231.52 526.69 231.71C525.74 233.4 525.03 235.22 524.59 237.1C524.25 236.54 523.9 235.97 523.54 235.41C523.54 235.35 523.54 235.32 523.54 235.31C523.79 234.56 524.05 233.81 524.29 233.06C524.41 232.71 524.51 232.36 524.59 232C525.22 229.88 525.48 227.66 525.34 225.46C525.33 225.29 525.28 225.13 525.2 224.99C524.99 224.58 524.53 224.36 524.08 224.46C522.7 224.72 522.06 226.7 521.71 227.87C521.36 229.18 521.16 230.52 521.12 231.87C520.26 230.67 519.36 229.49 518.43 228.34C518.43 228.27 518.43 228.23 518.43 228.22C519.31 225.58 520.77 221.39 518.82 218.88C518.58 218.64 518.23 218.55 517.9 218.64C516.59 218.96 516.3 220.32 516.3 221.5C516.24 223.03 516.33 224.55 516.54 226.06C514.5 223.71 512.67 221.97 512.24 221.52C511.38 220.67 510.03 222 510.91 222.85C511.79 223.7 512.42 224.35 513.15 225.12C511.12 224.59 509.14 224.61 508.5 226.3C507.06 230.11 514.69 229.6 516.86 229.34C517.66 230.34 518.3 231.16 518.46 231.36C517.78 231.3 517.09 231.44 516.48 231.76C515.45 232.2 514.97 233.4 515.42 234.43C515.55 234.73 515.75 234.99 516 235.2C516.8 235.6 517.7 235.76 518.59 235.63C518.89 235.63 521.24 235.63 521.54 235.63C522.03 236.4 522.53 237.23 522.99 237.98C521.75 237.56 520.4 237.66 519.23 238.26C518.27 238.81 517.94 240.05 518.5 241.01C518.62 241.22 518.78 241.41 518.98 241.57C520.42 242.77 523.14 242.18 524.8 241.95C524.92 241.94 525.04 241.9 525.15 241.84C526.7 244.78 528.04 247.82 529.18 250.94C529.6 252.08 531.42 251.6 531.01 250.45C529.75 247.01 528.25 243.67 526.53 240.45Z" id="b3aefoOb7s"></path><path d="M504.21 213.14C504.22 213.14 501.87 222.5 513.12 223.14C511.34 221.14 512.3 213.3 504.21 213.14Z" id="eaAOL1Kbm"></path><path d="M545.6 239.54C545.58 239.54 545.4 239.54 545.38 239.54C542.3 238.4 543.06 232.93 543.58 230.51C543.74 229.98 544.31 229.68 544.84 229.83C545.08 229.91 545.28 230.06 545.41 230.27C546.42 232.06 547.17 233.98 547.63 235.98C547.99 235.38 548.37 234.78 548.75 234.19C548.75 234.12 548.75 234.09 548.75 234.08C548.48 233.28 548.21 232.48 547.97 231.68C547.84 231.31 547.73 230.94 547.65 230.56C546.98 228.31 546.71 225.97 546.85 223.63C546.86 223.46 546.92 223.29 547.01 223.14C547.23 222.7 547.73 222.46 548.21 222.58C549.66 222.85 550.35 224.94 550.72 226.19C551.09 227.58 551.3 229 551.34 230.43C552.26 229.16 553.21 227.91 554.19 226.69C554.19 226.62 554.19 226.58 554.19 226.58C553.25 223.78 551.71 219.34 553.79 216.67C554.05 216.42 554.42 216.32 554.77 216.42C556.14 216.75 556.46 218.21 556.53 219.46C556.59 221.06 556.51 222.67 556.29 224.26C558.46 221.76 560.39 219.94 560.85 219.46C561.78 218.56 563.18 219.97 562.26 220.86C561.33 221.76 560.66 222.46 559.89 223.28C562.05 222.72 564.14 222.74 564.82 224.54C566.34 228.59 558.24 228.05 555.95 227.74C555.1 228.8 554.51 229.66 554.35 229.87C555.08 229.8 555.82 229.95 556.46 230.29C557.58 230.72 558.13 231.97 557.7 233.08C557.55 233.47 557.3 233.8 556.96 234.05C556.12 234.48 555.16 234.64 554.22 234.51C553.91 234.51 551.42 234.51 551.1 234.51C550.58 235.33 550.05 236.11 549.5 237.01C550.82 236.56 552.25 236.67 553.49 237.3C554.51 237.9 554.85 239.21 554.25 240.23C554.12 240.45 553.95 240.64 553.76 240.8C552.16 242.08 549.34 241.44 547.58 241.22C547.45 241.2 547.32 241.15 547.2 241.09C545.56 244.19 544.13 247.4 542.91 250.69C542.27 251.87 540.34 251.36 540.8 250.14C542.15 246.5 543.75 242.95 545.6 239.54Z" id="b1MFvzajQn"></path><path d="M569.18 210.58C569.18 210.58 571.66 220.51 559.74 221.18C561.63 219.06 560.61 210.75 569.18 210.58Z" id="e2mdX0Vnkg"></path><path d="M537.06 235.52C537.08 235.52 537.3 235.52 537.33 235.52C541.17 236.19 543.73 230.11 544.58 227.31C544.74 226.67 544.35 226.02 543.71 225.85C543.41 225.78 543.1 225.82 542.83 225.97C540.72 227.2 538.8 228.73 537.12 230.51C537.12 229.67 537.12 228.83 537.12 228C537.19 227.95 537.22 227.93 537.23 227.92C538 227.26 538.75 226.61 539.49 225.94C539.84 225.63 540.17 225.31 540.48 224.98C542.51 223.06 544.2 220.81 545.46 218.32C545.55 218.13 545.6 217.92 545.6 217.71C545.64 217.13 545.28 216.59 544.72 216.42C543.12 215.82 541.09 217.57 539.92 218.62C538.7 219.82 537.63 221.16 536.72 222.61C536.55 220.75 536.33 218.9 536.05 217.06C536.12 217 536.17 216.97 536.18 216.96C538.83 214.64 543.06 210.99 542.58 207.02C542.47 206.61 542.15 206.28 541.73 206.18C540.13 205.7 538.91 207.01 538.1 208.24C537.06 209.86 536.18 211.58 535.46 213.36C534.72 209.49 533.84 206.43 533.66 205.66C533.5 205.03 532.84 204.65 532.21 204.82C531.57 204.98 531.19 205.64 531.36 206.27C531.71 207.57 532.05 208.86 532.34 210.18C530.45 208.3 528.29 207.06 526.5 208.58C522.51 211.78 531.15 216.11 533.68 217.2C533.84 218.26 533.98 219.33 534.11 220.4C533.4 219.89 532.56 219.61 531.7 219.57C529.73 219.49 527.98 221.17 528.93 223.14C529.54 224.09 530.43 224.83 531.47 225.26C531.79 225.45 534.35 226.92 534.67 227.1C534.67 228.27 534.75 229.42 534.77 230.59C533.69 229.34 532.14 228.59 530.5 228.5C529.09 228.46 527.93 229.57 527.89 230.98C527.88 231.33 527.95 231.68 528.08 232C528.9 234.22 532.24 235.3 534.19 236.13C534.34 236.19 534.5 236.22 534.66 236.22C534.47 240.42 534 244.59 533.26 248.72C532.99 250.16 535.3 250.8 535.57 249.28C536.39 244.73 536.88 240.14 537.06 235.52Z" id="e1fEu9hfX"></path><path d="M530.1 191.55C530.08 191.54 521.6 200.27 533.44 208.11C532.77 204.8 538.82 196.91 530.1 191.55Z" id="feuw3iKLE"></path></defs><g><g><g><use xlink:href="#d5Xoz2j8V" opacity="1" fill="#1714ab" fill-opacity="1"></use><g><use xlink:href="#d5Xoz2j8V" opacity="1" fill-opacity="0" stroke="#000000" stroke-width="1" stroke-opacity="0"></use></g></g><g><use xlink:href="#aQ7ETDtfV" opacity="1" fill="url(#gradientc186ZaZo)"></use><g><use xlink:href="#aQ7ETDtfV" opacity="1" fill-opacity="0" stroke="#000000" stroke-width="1" stroke-opacity="0"></use></g></g><g><use xlink:href="#bUU6gOD7t" opacity="1" fill="url(#gradientamqenMnCp)"></use><g><use xlink:href="#bUU6gOD7t" opacity="1" fill-opacity="0" stroke="#000000" stroke-width="1" stroke-opacity="0"></use></g></g><g><use xlink:href="#aHNn8Lfml" opacity="1" fill="#b1b2f5" fill-opacity="1"></use><g><use xlink:href="#aHNn8Lfml" opacity="1" fill-opacity="0" stroke="#000000" stroke-width="1" stroke-opacity="0"></use></g></g><g><use xlink:href="#bX0vK9qNV" opacity="1" fill="#1617fb" fill-opacity="1"></use><g><use xlink:href="#bX0vK9qNV" opacity="1" fill-opacity="0" stroke="#000000" stroke-width="1" stroke-opacity="0"></use></g></g><g><use xlink:href="#b5YT2cHDgF" opacity="1" fill="#b1b2f5" fill-opacity="1"></use><g><use xlink:href="#b5YT2cHDgF" opacity="1" fill-opacity="0" stroke="#000000" stroke-width="1" stroke-opacity="0"></use></g></g><g><use xlink:href="#fZ6EkAM8o" opacity="1" fill="#dbe0ff" fill-opacity="1"></use><g><use xlink:href="#fZ6EkAM8o" opacity="1" fill-opacity="0" stroke="#000000" stroke-width="1" stroke-opacity="0"></use></g></g><g><use xlink:href="#bCelPHjUS" opacity="1" fill="#b1b2f5" fill-opacity="1"></use><g><use xlink:href="#bCelPHjUS" opacity="1" fill-opacity="0" stroke="#000000" stroke-width="1" stroke-opacity="0"></use></g></g><g><use xlink:href="#a21f9Sp4B4" opacity="1" fill="#b1b2f5" fill-opacity="1"></use><g><use xlink:href="#a21f9Sp4B4" opacity="1" fill-opacity="0" stroke="#000000" stroke-width="1" stroke-opacity="0"></use></g></g><g><use xlink:href="#d5B4zslzmH" opacity="1" fill="#dbe0ff" fill-opacity="1"></use><g><use xlink:href="#d5B4zslzmH" opacity="1" fill-opacity="0" stroke="#000000" stroke-width="1" stroke-opacity="0"></use></g></g><g><use xlink:href="#dt7Vz9IRa" opacity="1" fill="#1617fb" fill-opacity="1"></use><g><use xlink:href="#dt7Vz9IRa" opacity="1" fill-opacity="0" stroke="#000000" stroke-width="1" stroke-opacity="0"></use></g></g><g><use xlink:href="#g3kuKSFqVz" opacity="1" fill="#1617fb" fill-opacity="1"></use><g><use xlink:href="#g3kuKSFqVz" opacity="1" fill-opacity="0" stroke="#000000" stroke-width="1" stroke-opacity="0"></use></g></g><g><use xlink:href="#ajOAIJuVJ" opacity="1" fill="#1617fb" fill-opacity="1"></use><g><use xlink:href="#ajOAIJuVJ" opacity="1" fill-opacity="0" stroke="#000000" stroke-width="1" stroke-opacity="0"></use></g></g><g><use xlink:href="#b1YDe3ccKv" opacity="1" fill="#1617fb" fill-opacity="1"></use><g><use xlink:href="#b1YDe3ccKv" opacity="1" fill-opacity="0" stroke="#000000" stroke-width="1" stroke-opacity="0"></use></g></g><g><use xlink:href="#b1imAVDSTW" opacity="1" fill="#1617fb" fill-opacity="1"></use><g><use xlink:href="#b1imAVDSTW" opacity="1" fill-opacity="0" stroke="#000000" stroke-width="1" stroke-opacity="0"></use></g></g><g><use xlink:href="#aNjS0W1AR" opacity="1" fill="#c2cad4" fill-opacity="1"></use><g><use xlink:href="#aNjS0W1AR" opacity="1" fill-opacity="0" stroke="#000000" stroke-width="1" stroke-opacity="0"></use></g></g><g><use xlink:href="#b52uyQQh4" opacity="1" fill="#c2cad4" fill-opacity="1"></use><g><use xlink:href="#b52uyQQh4" opacity="1" fill-opacity="0" stroke="#000000" stroke-width="1" stroke-opacity="0"></use></g></g><g><use xlink:href="#aVgBKbacR" opacity="1" fill="#08929d" fill-opacity="1"></use><g><use xlink:href="#aVgBKbacR" opacity="1" fill-opacity="0" stroke="#000000" stroke-width="1" stroke-opacity="0"></use></g></g><g><use xlink:href="#a2pEKf6hvD" opacity="1" fill="#57bad0" fill-opacity="1"></use><g><use xlink:href="#a2pEKf6hvD" opacity="1" fill-opacity="0" stroke="#000000" stroke-width="1" stroke-opacity="0"></use></g></g><g><use xlink:href="#d1GAt2F8As" opacity="1" fill="#57bad0" fill-opacity="1"></use><g><use xlink:href="#d1GAt2F8As" opacity="1" fill-opacity="0" stroke="#000000" stroke-width="1" stroke-opacity="0"></use></g></g><g><use xlink:href="#a2Yb6Dx13" opacity="1" fill="#08929d" fill-opacity="1"></use><g><use xlink:href="#a2Yb6Dx13" opacity="1" fill-opacity="0" stroke="#000000" stroke-width="1" stroke-opacity="0"></use></g></g><g><use xlink:href="#b1oLKBEKgu" opacity="1" fill="#08929d" fill-opacity="1"></use><g><use xlink:href="#b1oLKBEKgu" opacity="1" fill-opacity="0" stroke="#000000" stroke-width="1" stroke-opacity="0"></use></g></g><g><use xlink:href="#b16Wv0lhqX" opacity="1" fill="#57bad0" fill-opacity="1"></use><g><use xlink:href="#b16Wv0lhqX" opacity="1" fill-opacity="0" stroke="#000000" stroke-width="1" stroke-opacity="0"></use></g></g><g><use xlink:href="#a3tC3cxRzh" opacity="1" fill="#e64e4e" fill-opacity="1"></use><g><use xlink:href="#a3tC3cxRzh" opacity="1" fill-opacity="0" stroke="#000000" stroke-width="1" stroke-opacity="0"></use></g></g><g><use xlink:href="#biEAxFASR" opacity="1" fill="#ffbe8d" fill-opacity="1"></use><g><use xlink:href="#biEAxFASR" opacity="1" fill-opacity="0" stroke="#000000" stroke-width="1" stroke-opacity="0"></use></g></g><g><use xlink:href="#e2gtVRBNK" opacity="1" fill="#57bad0" fill-opacity="1"></use><g><use xlink:href="#e2gtVRBNK" opacity="1" fill-opacity="0" stroke="#000000" stroke-width="1" stroke-opacity="0"></use></g></g><g><use xlink:href="#g3i1pwSSS4" opacity="1" fill="#ffa76c" fill-opacity="1"></use><g><use xlink:href="#g3i1pwSSS4" opacity="1" fill-opacity="0" stroke="#000000" stroke-width="1" stroke-opacity="0"></use></g></g><g><use xlink:href="#g1yiGqrq9J" opacity="1" fill="#ffbe8d" fill-opacity="1"></use><g><use xlink:href="#g1yiGqrq9J" opacity="1" fill-opacity="0" stroke="#000000" stroke-width="1" stroke-opacity="0"></use></g></g><g><use xlink:href="#g654FWArL" opacity="1" fill="#e64e4e" fill-opacity="1"></use><g><use xlink:href="#g654FWArL" opacity="1" fill-opacity="0" stroke="#000000" stroke-width="1" stroke-opacity="0"></use></g></g><g><use xlink:href="#b25nwe83r1" opacity="1" fill="#000000" fill-opacity="0"></use><g><use xlink:href="#b25nwe83r1" opacity="1" fill-opacity="0" stroke="#42210b" stroke-width="0.25" stroke-opacity="1"></use></g></g><g><use xlink:href="#bkSF6mrr1" opacity="1" fill="#000000" fill-opacity="0"></use><g><use xlink:href="#bkSF6mrr1" opacity="1" fill-opacity="0" stroke="#42210b" stroke-width="0.25" stroke-opacity="1"></use></g></g><g><use xlink:href="#d5H1LgkyUo" opacity="1" fill="#42210b" fill-opacity="1"></use><g><use xlink:href="#d5H1LgkyUo" opacity="1" fill-opacity="0" stroke="#000000" stroke-width="1" stroke-opacity="0"></use></g></g><g><use xlink:href="#e4bmEvEK78" opacity="1" fill="#42210b" fill-opacity="1"></use><g><use xlink:href="#e4bmEvEK78" opacity="1" fill-opacity="0" stroke="#000000" stroke-width="1" stroke-opacity="0"></use></g></g><g><use xlink:href="#jHDCaTGP" opacity="1" fill="#eef3f7" fill-opacity="1"></use><g><use xlink:href="#jHDCaTGP" opacity="1" fill-opacity="0" stroke="#000000" stroke-width="1" stroke-opacity="0"></use></g></g><g><use xlink:href="#e9uQURJaZ" opacity="1" fill="url(#gradientf9tkoS3pq)"></use><g><use xlink:href="#e9uQURJaZ" opacity="1" fill-opacity="0" stroke="#000000" stroke-width="1" stroke-opacity="0"></use></g></g><g><use xlink:href="#d1u2v2XFtl" opacity="1" fill="#e98686" fill-opacity="1"></use><g><use xlink:href="#d1u2v2XFtl" opacity="1" fill-opacity="0" stroke="#000000" stroke-width="1" stroke-opacity="0"></use></g></g><g><use xlink:href="#aenSbdedK" opacity="1" fill="#e98686" fill-opacity="1"></use><g><use xlink:href="#aenSbdedK" opacity="1" fill-opacity="0" stroke="#000000" stroke-width="1" stroke-opacity="0"></use></g></g><g><use xlink:href="#b1bfLy9C7S" opacity="1" fill="#e98686" fill-opacity="1"></use><g><use xlink:href="#b1bfLy9C7S" opacity="1" fill-opacity="0" stroke="#000000" stroke-width="1" stroke-opacity="0"></use></g></g><g><use xlink:href="#a3cqvTgCk" opacity="1" fill="#e64e4e" fill-opacity="1"></use><g><use xlink:href="#a3cqvTgCk" opacity="1" fill-opacity="0" stroke="#000000" stroke-width="1" stroke-opacity="0"></use></g></g><g><use xlink:href="#bg8jFIjDC" opacity="1" fill="#ce4823" fill-opacity="1"></use><g><use xlink:href="#bg8jFIjDC" opacity="1" fill-opacity="0" stroke="#000000" stroke-width="1" stroke-opacity="0"></use></g></g><g><use xlink:href="#crZUluf7l" opacity="1" fill="#e98686" fill-opacity="1"></use><g><use xlink:href="#crZUluf7l" opacity="1" fill-opacity="0" stroke="#000000" stroke-width="1" stroke-opacity="0"></use></g></g><g><use xlink:href="#b6TfaSHpD" opacity="1" fill="#57bad0" fill-opacity="1"></use><g><use xlink:href="#b6TfaSHpD" opacity="1" fill-opacity="0" stroke="#000000" stroke-width="1" stroke-opacity="0"></use></g></g><g><use xlink:href="#bVmKtaJeS" opacity="1" fill="#e64e4e" fill-opacity="1"></use><g><use xlink:href="#bVmKtaJeS" opacity="1" fill-opacity="0" stroke="#000000" stroke-width="1" stroke-opacity="0"></use></g></g><g><use xlink:href="#b3aefoOb7s" opacity="1" fill="#1a7a23" fill-opacity="1"></use><g><use xlink:href="#b3aefoOb7s" opacity="1" fill-opacity="0" stroke="#000000" stroke-width="1" stroke-opacity="0"></use></g></g><g><use xlink:href="#eaAOL1Kbm" opacity="1" fill="#1a7a23" fill-opacity="1"></use><g><use xlink:href="#eaAOL1Kbm" opacity="1" fill-opacity="0" stroke="#000000" stroke-width="1" stroke-opacity="0"></use></g></g><g><use xlink:href="#b1MFvzajQn" opacity="1" fill="#1a7a23" fill-opacity="1"></use><g><use xlink:href="#b1MFvzajQn" opacity="1" fill-opacity="0" stroke="#000000" stroke-width="1" stroke-opacity="0"></use></g></g><g><use xlink:href="#e2mdX0Vnkg" opacity="1" fill="#1a7a23" fill-opacity="1"></use><g><use xlink:href="#e2mdX0Vnkg" opacity="1" fill-opacity="0" stroke="#000000" stroke-width="1" stroke-opacity="0"></use></g></g><g><use xlink:href="#e1fEu9hfX" opacity="1" fill="#1a7a23" fill-opacity="1"></use><g><use xlink:href="#e1fEu9hfX" opacity="1" fill-opacity="0" stroke="#000000" stroke-width="1" stroke-opacity="0"></use></g></g><g><use xlink:href="#feuw3iKLE" opacity="1" fill="#1a7a23" fill-opacity="1"></use><g><use xlink:href="#feuw3iKLE" opacity="1" fill-opacity="0" stroke="#000000" stroke-width="1" stroke-opacity="0"></use></g></g></g></g></svg>